<svg width="232" height="67" viewBox="0 0 232 67" fill="none" xmlns="http://www.w3.org/2000/svg">
<path d="M13.1203 34.7995H6.08553V32.0187C6.50269 31.1534 6.95738 30.3073 7.44964 29.4804C11.2463 23.4197 16.5932 18.5204 22.9189 15.306C22.9831 15.2734 23.0403 15.2281 23.087 15.1726C23.1337 15.1172 23.169 15.0529 23.1908 14.9834C23.2126 14.9139 23.2205 14.8406 23.2139 14.768C23.2074 14.6954 23.1866 14.6248 23.1527 14.5605C23.1189 14.4961 23.0727 14.4393 23.0169 14.3934C22.9611 14.3475 22.8968 14.3134 22.8278 14.2932C22.7588 14.2729 22.6865 14.2669 22.6152 14.2755C22.5438 14.2841 22.4749 14.3072 22.4125 14.3433C15.9075 17.6527 10.4122 22.6979 6.51605 28.9378C6.36771 29.1859 6.22606 29.4362 6.08441 29.6877V26.5366C6.90022 23.2659 7.9902 20.0722 9.34243 16.9903C9.37245 16.9246 9.38929 16.8534 9.39196 16.781C9.39463 16.7086 9.38309 16.6364 9.35799 16.5686C9.33289 16.5008 9.29476 16.4387 9.2458 16.386C9.19684 16.3333 9.13803 16.291 9.07281 16.2616C9.0076 16.2322 8.93729 16.2163 8.86596 16.2148C8.79463 16.2133 8.7237 16.2262 8.65734 16.2528C8.59097 16.2794 8.53046 16.3192 8.47938 16.3698C8.4283 16.4203 8.38766 16.4807 8.3598 16.5474C6.97005 19.714 5.85237 22.9967 5.01923 26.3587H0V49.1256H1.65075C1.79487 53.6984 2.67231 58.2167 4.24849 62.5026C4.30618 62.6316 4.41096 62.7327 4.54071 62.7847C4.67046 62.8366 4.81503 62.8354 4.94387 62.7811C5.07271 62.7269 5.17575 62.6239 5.23122 62.4939C5.2867 62.364 5.29025 62.2172 5.24116 62.0846C3.73865 57.9258 2.89136 53.5525 2.73046 49.1256H4.23957C4.42324 50.1571 4.63665 51.1845 4.87981 52.2076C6.01186 57.31 7.98768 62.1805 10.7233 66.612C10.8051 66.7291 10.9291 66.8088 11.0684 66.8337C11.2077 66.8587 11.351 66.8268 11.4674 66.7452C11.5837 66.6635 11.6637 66.5386 11.69 66.3975C11.7163 66.2564 11.6867 66.1104 11.6078 65.9913C10.8363 64.7892 10.1458 63.5355 9.54098 62.2387C7.97244 58.9354 6.75646 55.4712 5.91377 51.9052C5.69516 50.9832 5.50142 50.0571 5.33263 49.1268H6.08774V39.8456H13.1269V49.1268H19.2147V26.3598H13.1269L13.1203 34.7995Z" fill="#024860"/>
<path d="M34.628 32.277C33.2387 31.5197 31.6805 31.139 30.104 31.1715C28.9274 31.099 27.7488 31.2738 26.6418 31.685C25.5348 32.0963 24.5233 32.7351 23.6705 33.5614C22.1782 35.4681 21.3696 37.8339 21.3779 40.2694C21.3862 42.7049 22.2109 45.065 23.7162 46.9611C24.5367 47.7979 25.5209 48.4507 26.6052 48.8772C27.6896 49.3037 28.85 49.4944 30.0114 49.4371C31.1882 49.5088 32.3668 49.3305 33.4719 48.9135C34.5769 48.4966 35.5842 47.8501 36.4294 47.0154C38.0437 45.1623 38.8681 42.7344 38.7215 40.2647C38.759 38.5938 38.3929 36.939 37.6552 35.4451C36.9795 34.1063 35.9254 33.0031 34.628 32.277ZM32.0492 43.7307C31.8786 44.1089 31.5987 44.4254 31.2466 44.6383C30.8946 44.8511 30.4871 44.9502 30.0784 44.9223C29.6649 44.9494 29.2529 44.8504 28.8951 44.6381C28.5374 44.4258 28.2503 44.1098 28.0707 43.7307C27.6155 42.6366 27.4111 41.4518 27.4728 40.2658C27.4069 39.0946 27.6116 37.9239 28.0707 36.8473C28.2758 36.4977 28.5669 36.2083 28.9155 36.0076C29.2641 35.8069 29.6581 35.7017 30.0589 35.7025C30.4596 35.7033 30.8532 35.81 31.201 36.0121C31.5488 36.2143 31.8389 36.5048 32.0426 36.8553C32.4889 37.9325 32.688 39.0988 32.6248 40.2658C32.6846 41.4496 32.4881 42.6323 32.0492 43.7307Z" fill="#024860"/>
<path d="M60.921 31.4831L59.3873 38.2577C59.1757 39.195 59.017 40.1438 58.9122 41.0996C58.7687 42.2783 58.6664 43.2618 58.6055 44.0502H58.514C58.3054 42.2506 58.0076 40.4628 57.6217 38.6937L56.1494 31.4831H49.5251L47.9145 38.5997C47.5121 40.395 47.2304 42.2161 47.0713 44.0502H46.9798C46.8547 42.103 46.5938 40.1673 46.199 38.2577L44.7881 31.4831H38.8843L43.6225 49.1268H49.9255L51.6889 41.6365C51.8629 40.8813 52.2005 39.049 52.7017 36.1395H52.7932L53.0999 38.1784L53.5606 40.7167L55.5236 49.1257H61.9338L66.7031 31.4819L60.921 31.4831Z" fill="#024860"/>
<path d="M76.0646 31.1716C73.4212 31.075 70.793 31.6185 68.3974 32.7574L70.1252 36.7773C71.6337 36.0192 73.276 35.5744 74.9559 35.469C75.246 35.4285 75.5414 35.4573 75.8187 35.553C76.0959 35.6488 76.3473 35.8088 76.5531 36.0204C76.7588 36.2321 76.9131 36.4895 77.0037 36.7723C77.0943 37.0551 77.1187 37.3554 77.0751 37.6494V37.8986L74.1751 37.9915C72.2036 37.9676 70.2649 38.5043 68.5781 39.541C67.9325 40.0171 67.4165 40.6519 67.0785 41.386C66.7406 42.12 66.5919 42.9292 66.6463 43.7376C66.5519 45.2733 67.0591 46.7845 68.0572 47.9421C68.5629 48.4516 69.168 48.8479 69.8337 49.1054C70.4993 49.3629 71.2107 49.476 71.922 49.4372C73.0321 49.4772 74.1385 49.2864 75.1734 48.8766C76.1482 48.3904 76.9947 47.6751 77.6428 46.7902H77.7655L78.9155 49.1269H83.0714V37.5566C83.1204 36.6846 82.9818 35.8122 82.6654 35.0001C82.3489 34.1879 81.8621 33.4555 81.2388 32.8537C79.7839 31.6518 77.9363 31.0512 76.0646 31.1716ZM77.1075 42.6117C77.1188 42.9547 77.0552 43.2959 76.9214 43.611C76.7876 43.926 76.5868 44.2072 76.3334 44.4342C75.8223 44.8996 75.1559 45.1503 74.4696 45.1353C73.3349 45.1353 72.7675 44.5954 72.7675 43.5156C72.7675 42.1141 73.7539 41.3771 75.7266 41.3046L77.1064 41.2423L77.1075 42.6117Z" fill="#024860"/>
<path d="M96.0712 31.1719C95.1057 31.189 94.1656 31.4891 93.3642 32.0361C92.4853 32.5949 91.7641 33.3754 91.2707 34.3015H90.9795L90.0437 31.4834H85.5822V49.1271H91.5785V40.453C91.5472 39.9774 91.61 39.5003 91.7633 39.0497C91.9165 38.5992 92.1571 38.1844 92.4708 37.8298C92.8638 37.4951 93.3181 37.2427 93.8076 37.0872C94.2971 36.9316 94.8121 36.8761 95.3228 36.9236C96.0077 36.9054 96.6923 36.9681 97.3629 37.1105L97.8994 31.3644L97.5647 31.3021C97.0715 31.2153 96.5718 31.1717 96.0712 31.1719Z" fill="#024860"/>
<path d="M108.763 29.614C108.763 31 108.861 32.3842 109.054 33.7562H108.932C108.44 32.9314 107.752 32.2457 106.931 31.7627C106.141 31.3546 105.264 31.1514 104.378 31.1714C103.459 31.1417 102.549 31.349 101.731 31.7739C100.913 32.1988 100.214 32.8275 99.7007 33.6011C98.4605 35.6101 97.8658 37.9608 97.9986 40.328C97.967 41.9843 98.2241 43.6332 98.7582 45.1986C99.1608 46.4395 99.906 47.5369 100.905 48.3599C101.837 49.0786 102.979 49.4573 104.149 49.4348C105.073 49.4783 105.991 49.2649 106.804 48.8176C107.618 48.3703 108.295 47.7061 108.764 46.8965H108.994L110.282 49.1233H114.806V24.8953H108.763V29.614ZM109.27 40.8729C109.309 41.8574 109.09 42.8349 108.634 43.7046C108.403 44.0241 108.094 44.2769 107.738 44.438C107.381 44.5991 106.99 44.663 106.602 44.6232C106.221 44.6348 105.844 44.5409 105.512 44.3515C105.179 44.1622 104.904 43.8845 104.715 43.5482C104.219 42.5854 103.991 41.5033 104.056 40.4186C103.995 39.3074 104.22 38.1993 104.709 37.203C104.879 36.859 105.141 36.5704 105.465 36.3702C105.789 36.17 106.162 36.0661 106.541 36.0703C106.941 36.0397 107.342 36.1148 107.705 36.288C108.067 36.4613 108.38 36.7269 108.611 37.0591C109.133 38.0829 109.361 39.2346 109.271 40.3836L109.27 40.8729Z" fill="#024860"/>
<path d="M134.298 31.0776C135.202 31.0706 136.103 31.207 136.966 31.482C137.814 31.7602 138.643 32.0931 139.45 32.4787L141.306 27.6354C139.139 26.5758 136.764 26.0275 134.359 26.0315C132.338 25.9815 130.34 26.4788 128.57 27.4723C126.933 28.4283 125.619 29.8636 124.798 31.5907C123.891 33.5297 123.441 35.6571 123.486 37.8035C123.486 41.5723 124.389 44.4531 126.193 46.4458C127.998 48.4386 130.592 49.4353 133.975 49.4361C136.155 49.4727 138.319 49.0428 140.324 48.1743V42.973C139.407 43.3595 138.47 43.6975 137.518 43.9856C136.582 44.2667 135.611 44.4083 134.635 44.4059C131.353 44.4059 129.712 42.216 129.712 37.8363C129.617 36.097 130.039 34.3689 130.924 32.8763C131.285 32.3058 131.786 31.8403 132.377 31.525C132.968 31.2098 133.63 31.0556 134.298 31.0776Z" fill="#024860"/>
<path d="M155.27 32.2769C153.881 31.5197 152.323 31.139 150.746 31.1715C149.57 31.099 148.391 31.2739 147.285 31.6851C146.178 32.0964 145.166 32.7351 144.314 33.5614C142.822 35.468 142.013 37.8338 142.021 40.2693C142.03 42.7049 142.854 45.065 144.36 46.961C145.18 47.7979 146.164 48.4506 147.249 48.8771C148.333 49.3036 149.493 49.4944 150.655 49.4371C151.832 49.5084 153.01 49.3298 154.115 48.9129C155.22 48.4959 156.227 47.8497 157.073 47.0154C158.687 45.1622 159.511 42.7344 159.365 40.2646C159.402 38.5938 159.036 36.9391 158.299 35.445C157.623 34.1062 156.568 33.003 155.27 32.2769ZM152.686 43.7306C152.515 44.1088 152.235 44.4252 151.883 44.638C151.531 44.8508 151.124 44.95 150.715 44.9222C150.302 44.9494 149.89 44.8504 149.532 44.6381C149.174 44.4258 148.887 44.1098 148.707 43.7306C148.252 42.6366 148.048 41.4518 148.109 40.2658C148.044 39.0945 148.248 37.9239 148.707 36.8473C148.912 36.4977 149.204 36.2083 149.552 36.0075C149.901 35.8068 150.295 35.7017 150.695 35.7025C151.096 35.7033 151.49 35.81 151.838 36.0121C152.186 36.2142 152.475 36.5048 152.679 36.8552C153.126 37.9325 153.325 39.0988 153.261 40.2658C153.321 41.4495 153.125 42.6323 152.686 43.7306Z" fill="#024860"/>
<path d="M172.117 39.2068C172.213 40.6331 171.987 42.0628 171.458 43.3875C171.248 43.7891 170.927 44.12 170.535 44.3398C170.143 44.5596 169.696 44.6588 169.249 44.6256C168.929 44.648 168.609 44.5761 168.327 44.4187C168.046 44.2612 167.815 44.0247 167.662 43.7376C167.294 42.9183 167.128 42.0201 167.179 41.1211V31.4819H161.183V42.9741C161.074 44.7165 161.647 46.432 162.778 47.7472C163.365 48.3288 164.065 48.7796 164.833 49.0706C165.601 49.3616 166.421 49.4864 167.239 49.4372C168.324 49.4628 169.401 49.2422 170.39 48.7916C171.251 48.3907 171.979 47.7441 172.484 46.9306H172.836L173.588 49.1268H178.112V31.4831H172.116L172.117 39.2068Z" fill="#024860"/>
<path d="M191.555 31.1721C190.482 31.1507 189.417 31.3631 188.432 31.7951C187.556 32.1872 186.818 32.8386 186.313 33.664H185.96L185.208 31.4836H180.684V49.1274H186.681V41.4036C186.58 39.9627 186.811 38.5179 187.355 37.1833C187.567 36.7865 187.885 36.4597 188.274 36.2416C188.663 36.0236 189.105 35.9234 189.548 35.9532C189.872 35.9322 190.194 36.0054 190.478 36.1641C190.762 36.3228 190.996 36.5604 191.151 36.8491C191.531 37.6786 191.702 38.5909 191.65 39.5042V49.132H197.645V37.6499C197.753 35.9039 197.176 34.1854 196.042 32.8689C195.452 32.2843 194.748 31.8315 193.975 31.5393C193.202 31.2471 192.378 31.1221 191.555 31.1721Z" fill="#024860"/>
<path d="M207.036 42.9132V36.0458H211.299V31.4833H207.036V27.9482H203.11L201.562 31.6532L198.894 33.5686V36.0446H200.994V43.3198C200.865 44.9737 201.341 46.6179 202.333 47.9367C202.912 48.4848 203.6 48.9021 204.349 49.1612C205.099 49.4202 205.894 49.5151 206.683 49.4397C207.543 49.4502 208.402 49.3744 209.248 49.2132C210.041 49.0425 210.814 48.7893 211.556 48.4577V44.0199C210.629 44.3848 209.649 44.59 208.656 44.6269C207.576 44.6269 207.036 44.0557 207.036 42.9132Z" fill="#024860"/>
<path d="M225.875 31.4831L222.855 41.6365C222.676 42.2517 222.553 42.8821 222.487 43.5201H222.364C222.328 42.8735 222.231 42.2321 222.073 41.6047L219.128 31.4819H212.81L219.649 48.8765C219.417 49.5378 219.096 50.1639 218.698 50.7375C218.417 51.1037 218.061 51.404 217.655 51.6177C217.221 51.8332 216.742 51.94 216.259 51.9291C215.636 51.9365 215.013 51.8738 214.403 51.7422V56.5233C215.21 56.6964 216.033 56.7852 216.857 56.7883C218.645 56.8717 220.41 56.3515 221.877 55.309C223.4 53.9613 224.524 52.2087 225.12 50.2482L231.99 31.4831H225.875Z" fill="#024860"/>
<path fill-rule="evenodd" clip-rule="evenodd" d="M11.9422 17.3854C10.5145 17.612 10.0026 16.9844 9.87095 16.1293C9.73933 15.2741 10.0371 14.5175 11.4648 14.2898C12.7237 14.3085 13.9562 14.6598 15.0408 15.3092C14.2031 16.2634 13.1352 16.9798 11.9422 17.3877V17.3854Z" fill="#ACD03A"/>
<path fill-rule="evenodd" clip-rule="evenodd" d="M9.94011 13.3278C10.3216 14.7436 9.76389 15.3292 8.94185 15.558C8.11981 15.7868 7.34572 15.5693 6.96426 14.1546C6.84127 12.8825 7.04653 11.5997 7.55987 10.4326C8.58695 11.1716 9.408 12.1693 9.94011 13.3278Z" fill="#ACD03A"/>
<path fill-rule="evenodd" clip-rule="evenodd" d="M14.27 14.0092C12.8423 14.2357 12.3304 13.6082 12.1988 12.753C12.0672 11.8979 12.3649 11.1412 13.7926 10.9136C15.0516 10.9323 16.284 11.2836 17.3686 11.933C16.5309 12.8872 15.4631 13.6035 14.27 14.0114V14.0092Z" fill="#ACD03A"/>
<path fill-rule="evenodd" clip-rule="evenodd" d="M12.2657 9.95031C12.6472 11.3662 12.0894 11.9529 11.2674 12.1806C10.4454 12.4082 9.67128 12.1919 9.28982 10.7772C9.16683 9.50504 9.37213 8.2223 9.88547 7.05518C10.9125 7.79413 11.7325 8.7919 12.2646 9.95031H12.2657Z" fill="#ACD03A"/>
<path fill-rule="evenodd" clip-rule="evenodd" d="M16.9982 10.5771C15.5705 10.8036 15.0586 10.1761 14.927 9.32091C14.7954 8.46574 15.0932 7.70911 16.5209 7.48145C17.7798 7.50017 19.0122 7.85149 20.0968 8.50085C19.2592 9.4551 18.1913 10.1714 16.9982 10.5793V10.5771Z" fill="#ACD03A"/>
<path fill-rule="evenodd" clip-rule="evenodd" d="M14.8277 6.66906C15.2092 8.08491 14.6515 8.6705 13.8295 8.8993C13.0074 9.1281 12.2334 8.91061 11.8519 7.49589C11.7289 6.22376 11.9342 4.94105 12.4475 3.77393C13.4746 4.51288 14.2945 5.51065 14.8266 6.66906H14.8277Z" fill="#ACD03A"/>
<path fill-rule="evenodd" clip-rule="evenodd" d="M19.2123 7.16088C17.9731 7.47011 17.4768 6.95588 17.2972 6.21511C17.1176 5.47433 17.3239 4.78452 18.562 4.47529C19.6705 4.39419 20.7807 4.60773 21.7833 5.09487C21.1188 5.99732 20.2348 6.70888 19.2179 7.15974L19.2123 7.16088Z" fill="#ACD03A"/>
<path fill-rule="evenodd" clip-rule="evenodd" d="M16.8811 4.00676C16.9927 5.29802 16.4116 5.71595 15.662 5.78052C14.9125 5.84508 14.2745 5.53134 14.1674 4.24008C14.2621 3.11555 14.6434 2.03541 15.2739 1.10596C16.0486 1.91517 16.6025 2.9153 16.8811 4.0079V4.00676Z" fill="#ACD03A"/>
<path fill-rule="evenodd" clip-rule="evenodd" d="M19.8737 3.19756C18.939 4.13202 18.2341 3.94286 17.692 3.38332C17.15 2.82377 16.9749 2.10565 17.9151 1.17119C18.8527 0.508294 19.944 0.104665 21.0817 0C20.9608 1.15338 20.5465 2.25496 19.8793 3.19642L19.8737 3.19756Z" fill="#ACD03A"/>
<path fill-rule="evenodd" clip-rule="evenodd" d="M25.2175 16.7698C23.8032 16.4662 23.5445 15.6937 23.7218 14.8442C23.8991 13.9947 24.4423 13.4023 25.8589 13.7115C27.0286 14.1833 28.0573 14.9563 28.8436 15.9543C27.7263 16.5428 26.4774 16.8258 25.2197 16.7754L25.2175 16.7698Z" fill="#ACD03A"/>
<path fill-rule="evenodd" clip-rule="evenodd" d="M24.7692 12.2547C24.6286 13.7159 23.9025 14.067 23.0537 13.9787C22.2049 13.8903 21.558 13.4123 21.6985 11.9523C22.0297 10.7193 22.6712 9.59504 23.5601 8.69019C24.2607 9.75211 24.677 10.981 24.768 12.2559L24.7692 12.2547Z" fill="#ACD03A"/>
<path fill-rule="evenodd" clip-rule="evenodd" d="M28.5771 14.4577C27.1628 14.1541 26.904 13.3816 27.0814 12.5321C27.2587 11.6826 27.8019 11.0857 29.2151 11.3893C30.3852 11.8609 31.4143 12.6338 32.201 13.6319C31.0837 14.2205 29.8347 14.5035 28.5771 14.4531V14.4577Z" fill="#ACD03A"/>
<path fill-rule="evenodd" clip-rule="evenodd" d="M28.1276 9.94118C27.9881 11.4012 27.2609 11.7535 26.4132 11.664C25.5655 11.5745 24.9175 11.0976 25.0569 9.63762C25.3881 8.40459 26.0296 7.28035 26.9185 6.37549C27.6191 7.43741 28.0354 8.66629 28.1264 9.94118H28.1276Z" fill="#ACD03A"/>
<path fill-rule="evenodd" clip-rule="evenodd" d="M32.3304 12.2363C30.9172 11.9327 30.6573 11.1602 30.8346 10.3107C31.012 9.46119 31.5552 8.86426 32.9695 9.16782C34.1392 9.63961 35.1679 10.4125 35.9542 11.4105C34.837 11.9991 33.588 12.2821 32.3304 12.2317V12.2363Z" fill="#ACD03A"/>
<path fill-rule="evenodd" clip-rule="evenodd" d="M31.6722 7.80129C31.5328 9.26245 30.8056 9.61357 29.9579 9.52409C29.1102 9.43461 28.4622 8.95775 28.6016 7.49772C28.9328 6.2647 29.5743 5.14045 30.4631 4.2356C31.1638 5.29752 31.5801 6.52639 31.6711 7.80129H31.6722Z" fill="#ACD03A"/>
<path fill-rule="evenodd" clip-rule="evenodd" d="M35.5973 9.84789C34.3313 9.68932 34.0469 9.02896 34.1395 8.2712C34.2321 7.51344 34.6659 6.94369 35.9319 7.1034C36.9947 7.42936 37.9556 8.0305 38.7204 8.84774C37.7824 9.45056 36.7061 9.79523 35.5973 9.84789Z" fill="#ACD03A"/>
<path fill-rule="evenodd" clip-rule="evenodd" d="M34.5254 6.05647C34.1729 7.30242 33.487 7.48366 32.7642 7.27298C32.0414 7.0623 31.5551 6.53785 31.9076 5.29303C32.3902 4.27654 33.1252 3.40523 34.0402 2.76489C34.4803 3.80117 34.6472 4.93598 34.5243 6.05761L34.5254 6.05647Z" fill="#ACD03A"/>
<path fill-rule="evenodd" clip-rule="evenodd" d="M37.605 6.38212C36.4037 6.91675 35.8115 6.48633 35.5014 5.76708C35.1913 5.04783 35.2783 4.31383 36.4807 3.77808C37.5892 3.49778 38.7505 3.51536 39.8503 3.82906C39.3326 4.86318 38.5589 5.74265 37.605 6.38098V6.38212Z" fill="#ACD03A"/>
<path d="M210.832 54.8945H9.61663C9.53416 54.8945 9.4525 54.878 9.37632 54.846C9.30013 54.8139 9.2309 54.767 9.17259 54.7078C9.11428 54.6486 9.06803 54.5782 9.03647 54.5009C9.00491 54.4235 8.98865 54.3406 8.98865 54.2568C8.98865 54.1731 9.00491 54.0902 9.03647 54.0128C9.06803 53.9354 9.11428 53.8652 9.17259 53.8059C9.2309 53.7467 9.30013 53.6997 9.37632 53.6677C9.4525 53.6356 9.53416 53.6191 9.61663 53.6191H210.832C210.914 53.6191 210.996 53.6356 211.072 53.6677C211.148 53.6997 211.218 53.7467 211.276 53.8059C211.334 53.8652 211.381 53.9354 211.412 54.0128C211.444 54.0902 211.46 54.1731 211.46 54.2568C211.46 54.3406 211.444 54.4235 211.412 54.5009C211.381 54.5782 211.334 54.6486 211.276 54.7078C211.218 54.767 211.148 54.8139 211.072 54.846C210.996 54.878 210.914 54.8945 210.832 54.8945Z" fill="#ACD03A"/>
<path d="M18.9747 66.7113L17.4132 61.1363H17.3663C17.4407 62.0854 17.4779 62.8232 17.4779 63.3495V66.7113H15.6509V58.9648H18.3936L19.9842 64.4607H20.0254L21.5869 58.9648H24.3342V66.7056H22.438V63.3076C22.438 63.1309 22.4406 62.9349 22.4458 62.7197C22.451 62.5045 22.4744 61.9759 22.5161 61.134H22.4692L20.9311 66.6988L18.9747 66.7113Z" fill="#024860"/>
<path d="M49.4336 66.7114L49.0588 65.2605H46.5827L46.1968 66.7114H43.9337L46.421 58.939H49.1681L51.6867 66.7114H49.4336ZM48.6305 63.5399L48.3015 62.2691C48.2272 61.9866 48.1342 61.6211 48.0227 61.1726C47.9111 60.7241 47.839 60.4027 47.8063 60.2087C47.7751 60.3884 47.7133 60.6848 47.6211 61.0979C47.5289 61.5109 47.3248 62.3245 47.0088 63.5388L48.6305 63.5399Z" fill="#024860"/>
<path d="M73.3508 63.8943V66.7113H71.2907V58.9648H73.7892C75.8608 58.9648 76.8966 59.7272 76.8966 61.2518C76.8991 61.6877 76.7787 62.1152 76.5496 62.4839C76.3205 62.8526 75.9924 63.147 75.6039 63.3325L77.8246 66.7056H75.489L73.8728 63.8887L73.3508 63.8943ZM73.3508 62.3222H73.7367C74.4565 62.3222 74.8165 61.9993 74.8165 61.3537C74.8165 60.8206 74.4636 60.554 73.7579 60.554H73.3508V62.3222Z" fill="#024860"/>
<path d="M100.02 61.8407L101.329 58.9648H103.56L101.051 63.6825V66.7056H98.9868V63.7459L96.4794 58.9648H98.7214L100.02 61.8407Z" fill="#024860"/>
<path d="M123.168 66.7113V58.9648H125.227V65.0168H128.163V66.7056L123.168 66.7113Z" fill="#024860"/>
<path d="M152.841 66.7114L152.466 65.2605H149.99L149.604 66.7114H147.341L149.828 58.939H152.575L155.094 66.7114H152.841ZM152.038 63.5399L151.71 62.2691C151.636 61.9866 151.543 61.6211 151.431 61.1726C151.32 60.7241 151.247 60.4027 151.215 60.2087C151.183 60.3884 151.122 60.6848 151.03 61.0979C150.937 61.5109 150.733 62.3245 150.416 63.5388L152.038 63.5399Z" fill="#024860"/>
<path d="M181.956 66.7113H179.255L176.467 61.2586H176.42C176.486 62.1164 176.519 62.7711 176.519 63.2226V66.7113H174.695V58.9648H177.385L180.159 64.344H180.19C180.142 63.5639 180.117 62.9372 180.117 62.4638V58.9648H181.951L181.956 66.7113Z" fill="#024860"/>
<path d="M208.853 62.6766C208.888 63.2207 208.812 63.7663 208.632 64.2798C208.451 64.7932 208.169 65.2637 207.803 65.6623C207.404 66.0278 206.937 66.3088 206.43 66.4887C205.923 66.6686 205.385 66.7439 204.849 66.7101H202.383V58.9648H205.021C206.051 58.8969 207.068 59.2385 207.855 59.9174C208.203 60.28 208.472 60.7132 208.644 61.1887C208.816 61.6642 208.888 62.1712 208.853 62.6766ZM206.715 62.7502C206.758 62.1918 206.612 61.6352 206.301 61.1724C206.144 60.9946 205.949 60.8558 205.731 60.7669C205.512 60.6779 205.277 60.6411 205.042 60.6593H204.443V64.9952H204.901C205.157 65.0174 205.415 64.9791 205.654 64.8831C205.892 64.7872 206.106 64.6364 206.278 64.4424C206.607 63.9443 206.76 63.3483 206.715 62.7502Z" fill="#024860"/>
</svg>
