<svg width="251" height="70" viewBox="0 0 251 70" fill="none" xmlns="http://www.w3.org/2000/svg">
<g clip-path="url(#clip0_2046_678)" filter="url(#filter0_d_2046_678)">
<path d="M84.6519 45.3887C84.6519 46.0349 84.353 46.3832 83.6536 46.3832H79.2206C78.572 46.3832 78.2223 46.0349 78.2223 45.3887V16.4958C78.2223 15.799 78.572 15.5012 79.2206 15.5012H83.6536C84.353 15.5012 84.6519 15.799 84.6519 16.4958V28.1102H111.357V16.4958C111.357 15.799 111.707 15.5012 112.356 15.5012H116.789C117.488 15.5012 117.787 15.799 117.787 16.4958V45.3887C117.787 46.0349 117.488 46.3832 116.789 46.3832H112.356C111.707 46.3832 111.357 46.0349 111.357 45.3887V33.6225H84.6519V45.3887Z" fill="#2A3693"/>
<path d="M127.606 45.3887C127.606 46.0854 127.307 46.3832 126.608 46.3832H122.175C121.476 46.3832 121.177 46.0854 121.177 45.3887V15.5012H151.272C157.651 15.5012 160.143 18.8277 160.143 25.031V25.8233C160.143 29.6442 159.049 32.4256 155.361 33.9652L160.493 45.4336C160.792 46.0798 160.595 46.3776 159.895 46.3776H155.214C154.667 46.3776 154.267 46.0798 154.069 45.6303L149.636 35.0048H127.612V45.3774L127.606 45.3887ZM153.714 24.8344C153.714 22.3508 152.716 21.064 150.178 21.064H127.606V30.0488H150.178C152.817 30.0488 153.714 28.2114 153.714 25.8289V24.8344Z" fill="#2A3693"/>
<path d="M162.935 38.6404C162.935 37.9942 163.234 37.6458 163.934 37.6458H168.367C168.812 37.6458 168.965 37.8425 168.965 38.292V38.4887C168.965 39.9777 169.963 40.8206 171.604 40.8206H193.628C195.523 40.8206 196.567 40.3767 196.567 38.5842V36.3984C196.567 34.8082 195.371 34.1171 193.927 34.1171H171.503C165.919 34.1171 162.732 31.8807 162.732 26.0257V23.1488C162.732 17.2432 166.771 15.3047 172.151 15.3047H194.722C199.11 15.3047 201.846 17.6366 201.846 22.1542V23.2443C201.846 23.8905 201.547 24.2389 200.848 24.2389H196.414C195.969 24.2389 195.817 24.0422 195.817 23.5927V23.396C195.817 21.907 194.818 21.0642 193.177 21.0642H171.254C169.811 21.0642 168.863 21.7103 168.863 23.1994V25.5818C168.863 27.2675 169.658 28.0654 171.604 28.0654H194.773C199.505 28.0654 202.697 30.6951 202.697 35.5612V38.4381C202.697 45.1921 198.761 46.58 192.782 46.58H170.059C165.772 46.58 162.935 44.147 162.935 39.7305V38.6404Z" fill="#2A3693"/>
<path d="M232.798 15.5012C243.463 15.5012 247 20.9123 247 30.9872C247 41.062 243.311 46.3776 232.798 46.3776H207.288C206.442 46.3776 206.042 45.9787 206.042 45.1358V16.743C206.042 15.9002 206.442 15.5012 207.288 15.5012H232.798ZM233.543 40.8204C238.776 40.8204 240.57 37.5951 240.57 32.7796V29.1048C240.57 24.2893 238.776 21.064 233.543 21.064H212.466V40.8204H233.543Z" fill="#2A3693"/>
<path d="M24.9297 31.4139C24.9297 22.3617 30.863 14.3771 39.182 12.2756C45.5214 10.6742 51.246 12.225 56.2543 16.2089C61.4149 20.3164 64.7707 25.6319 65.7972 32.223C66.4684 36.544 65.8311 40.7639 64.3647 44.8545C62.041 51.322 58.2735 56.8118 52.9888 61.2508C52.7293 61.4699 52.4642 61.7452 52.1597 61.8408C51.8382 61.9363 51.4547 61.8408 51.0994 61.8408C51.1783 61.498 51.1501 61.0709 51.3532 60.8237C52.5714 59.3459 53.9701 57.9974 55.0812 56.4465C58.3299 51.8951 60.6761 46.9279 61.4544 41.3426C62.2948 35.3022 61.2909 29.672 56.7958 25.2386C53.4456 21.9346 49.334 20.1534 44.4893 21.2379C39.323 22.3954 36.4071 28.801 39.9716 33.4592C41.8102 35.8641 41.9625 38.595 40.5638 41.2584C39.1594 43.933 36.8245 45.2984 33.7732 45.158C30.8291 45.0175 28.6521 43.5678 27.3098 40.9156C25.7757 37.8926 24.8507 34.7235 24.9353 31.4139H24.9297Z" fill="#2A3693"/>
<path d="M38.3982 -0.00146484C49.2891 0.470531 58.8771 5.52201 64.9514 16.4734C65.4195 17.3219 65.7805 18.2322 66.164 19.1256C66.3332 19.5189 66.6434 19.9965 66.0737 20.2944C65.5041 20.5978 65.2841 20.0921 65.0473 19.7212C63.2989 17.0353 61.2177 14.6416 58.7417 12.5907C53.2709 8.06742 46.9879 5.73553 39.8759 5.87039C26.7346 6.12886 15.0091 15.0462 12.9505 29.2061C12.1947 34.3924 12.9617 39.4102 15.0993 44.2144C16.4303 47.2037 15.0485 49.957 11.9691 50.5246C10.1925 50.8505 8.44408 49.9009 7.51348 48.0915C5.00368 43.1974 3.75723 37.9942 4.03923 32.5044C4.68783 20.0022 10.3278 10.4162 21.2526 4.1004C26.0748 1.30776 31.5512 -0.00146484 38.3982 -0.00146484Z" fill="#1EB3E1"/>
<path d="M15.415 35.9599C15.415 23.0194 22.1153 13.6637 32.4647 10.3598C34.1285 9.82597 35.9164 9.66863 37.6535 9.3933C37.975 9.34273 38.3416 9.56749 38.6857 9.66302C38.4206 9.88778 38.195 10.2305 37.8848 10.3317C32.9554 11.9387 28.8438 14.6976 25.7193 18.8501C18.3478 28.6665 20.4628 42.5791 30.4061 49.7883C30.5979 49.9288 30.7953 50.058 30.9814 50.2041C32.4365 51.3391 32.7524 53.1203 31.7654 54.6206C30.784 56.1265 28.8551 56.6603 27.3323 55.5983C25.567 54.3734 23.8073 53.0642 22.3296 51.5245C17.6653 46.6473 15.477 40.7248 15.4037 35.9599H15.415Z" fill="#1BAF5D"/>
</g>
<defs>
<filter id="filter0_d_2046_678" x="-0.000366211" y="0" width="251" height="69.8877" filterUnits="userSpaceOnUse" color-interpolation-filters="sRGB">
<feFlood flood-opacity="0" result="BackgroundImageFix"/>
<feColorMatrix in="SourceAlpha" type="matrix" values="0 0 0 0 0 0 0 0 0 0 0 0 0 0 0 0 0 0 127 0" result="hardAlpha"/>
<feOffset dy="4"/>
<feGaussianBlur stdDeviation="2"/>
<feComposite in2="hardAlpha" operator="out"/>
<feColorMatrix type="matrix" values="0 0 0 0 0 0 0 0 0 0 0 0 0 0 0 0 0 0 0.25 0"/>
<feBlend mode="normal" in2="BackgroundImageFix" result="effect1_dropShadow_2046_678"/>
<feBlend mode="normal" in="SourceGraphic" in2="effect1_dropShadow_2046_678" result="shape"/>
</filter>
<clipPath id="clip0_2046_678">
<rect width="243" height="61.8876" fill="white" transform="translate(3.99963)"/>
</clipPath>
</defs>
</svg>
