<svg width="1440" height="1943" viewBox="0 0 1440 1943" fill="none" xmlns="http://www.w3.org/2000/svg">
<g opacity="0.4" filter="url(#filter0_f_2034_1331)">
<path d="M-310.967 1176.5C-244.303 1065.14 -35.9753 987.847 74.9529 1054.09C185.881 1120.34 226.821 1242.24 160.157 1353.6C93.4934 1464.96 -51.4961 1558.9 -162.424 1492.65C-273.353 1426.41 -377.631 1287.86 -310.967 1176.5Z" fill="url(#paint0_linear_2034_1331)"/>
</g>
<g filter="url(#filter1_f_2034_1331)">
<path d="M1584 447.884C1713.79 447.101 1887.95 585.097 1888.87 714.296C1889.79 843.496 1806.81 941.743 1677.02 942.526C1547.24 943.309 1391.71 868.095 1390.79 738.895C1389.87 609.695 1454.22 448.668 1584 447.884Z" fill="url(#paint1_linear_2034_1331)"/>
</g>
<path d="M-294.167 788.029H-260.55M-260.55 788.029H-203.172M-260.55 788.029L-260.55 730.653M-260.55 788.029V845.405M-203.172 788.029H-145.797M-203.172 788.029V730.653M-203.172 788.029L-203.172 845.405M-145.797 788.029H-88.4207M-145.797 788.029V730.653M-145.797 788.029V845.405M-88.4207 788.029H-31.0455M-88.4207 788.029V730.653M-88.4207 788.029V845.405M-31.0455 788.029H26.3291M-31.0455 788.029V730.653M-31.0455 788.029V845.405M26.3291 788.029H83.7072M26.3291 788.029V730.653M26.3291 788.029V845.405M83.7072 788.029H141.081M83.7072 788.029V730.653M83.7072 788.029V845.405M141.081 788.029H198.458M141.081 788.029V730.653M141.081 788.029V845.405M198.458 788.029H255.833M198.458 788.029V730.653M198.458 788.029V845.405M255.833 788.029H313.207M255.833 788.029V730.653M255.833 788.029V845.405M313.207 788.029H370.585M313.207 788.029V730.653M313.207 788.029V845.405M370.585 788.029H427.96M370.585 788.029V730.653M370.585 788.029V845.405M427.96 788.029H485.337M427.96 788.029V730.653M427.96 788.029V845.405M485.337 788.029H542.713M485.337 788.029V730.653M485.337 788.029V845.405M542.713 788.029H600.086M542.713 788.029V730.653M542.713 788.029V845.405M600.086 788.029H657.464M600.086 788.029V730.653M600.086 788.029V845.405M657.464 788.029H714.839M657.464 788.029V730.653M657.464 788.029V845.405M714.839 788.029H772.217M714.839 788.029V730.653M714.839 788.029V845.405M772.217 788.029H780.732M772.217 788.029V730.653M772.217 788.029V845.405M-294.167 1017.53H-260.55M-260.55 1017.53H-203.172M-260.55 1017.53L-260.55 960.156M-260.55 1017.53V1074.91M-203.172 1017.53H-145.797M-203.172 1017.53V960.156M-203.172 1017.53L-203.172 1074.91M-145.797 1017.53H-88.4208M-145.797 1017.53L-145.797 960.156M-145.797 1017.53V1074.91M-88.4208 1017.53H-31.0455M-88.4208 1017.53V960.156M-88.4208 1017.53V1074.91M-31.0455 1017.53H26.3291M-31.0455 1017.53V960.156M-31.0455 1017.53V1074.91M26.3291 1017.53H83.7071M26.3291 1017.53V960.156M26.3291 1017.53V1074.91M83.7071 1017.53H141.081M83.7071 1017.53V960.156M83.7071 1017.53V1074.91M141.081 1017.53H198.458M141.081 1017.53V960.156M141.081 1017.53V1074.91M198.458 1017.53H255.833M198.458 1017.53V960.156M198.458 1017.53V1074.91M255.833 1017.53H313.207M255.833 1017.53V960.156M255.833 1017.53V1074.91M313.207 1017.53H370.585M313.207 1017.53V960.156M313.207 1017.53V1074.91M370.585 1017.53H427.96M370.585 1017.53V960.156M370.585 1017.53V1074.91M427.96 1017.53H485.337M427.96 1017.53V960.156M427.96 1017.53V1074.91M485.337 1017.53H542.713M485.337 1017.53V960.156M485.337 1017.53V1074.91M542.713 1017.53H600.086M542.713 1017.53V960.156M542.713 1017.53V1074.91M600.086 1017.53H657.464M600.086 1017.53V960.156M600.086 1017.53V1074.91M657.464 1017.53H714.839M657.464 1017.53V960.156M657.464 1017.53V1074.91M714.839 1017.53H772.217M714.839 1017.53V960.156M714.839 1017.53V1074.91M772.217 1017.53H780.732M772.217 1017.53V960.156M772.217 1017.53V1074.91M-294.167 558.526H-260.55M-260.55 558.526H-203.172M-260.55 558.526L-260.55 501.15M-260.55 558.526L-260.55 615.901M-203.172 558.526H-145.797M-203.172 558.526V501.15M-203.172 558.526V615.901M-145.797 558.526H-88.4207M-145.797 558.526V501.15M-145.797 558.526V615.901M-88.4207 558.526H-31.0454M-88.4207 558.526L-88.4207 501.15M-88.4207 558.526V615.901M-31.0454 558.526H26.3291M-31.0454 558.526V501.15M-31.0454 558.526V615.901M26.3291 558.526H83.7072M26.3291 558.526L26.3292 501.15M26.3291 558.526V615.901M83.7072 558.526H141.081M83.7072 558.526L83.7072 501.15M83.7072 558.526V615.901M141.081 558.526H198.458M141.081 558.526L141.081 501.15M141.081 558.526V615.901M198.458 558.526H255.833M198.458 558.526L198.458 501.15M198.458 558.526V615.901M255.833 558.526H313.207M255.833 558.526V501.15M255.833 558.526V615.901M313.207 558.526H370.585M313.207 558.526V501.15M313.207 558.526V615.901M370.585 558.526H427.96M370.585 558.526V501.15M370.585 558.526V615.901M427.96 558.526H485.337M427.96 558.526V501.15M427.96 558.526V615.901M485.337 558.526H542.713M485.337 558.526V501.15M485.337 558.526V615.901M542.713 558.526H600.086M542.713 558.526V501.15M542.713 558.526V615.901M600.086 558.526H657.464M600.086 558.526V501.15M600.086 558.526V615.901M657.464 558.526H714.839M657.464 558.526V501.15M657.464 558.526V615.901M714.839 558.526H772.217M714.839 558.526V501.15M714.839 558.526V615.901M772.217 558.526H780.732M772.217 558.526V501.15M772.217 558.526V615.901M-294.167 329.022H-260.55M-260.55 329.022H-203.172M-260.55 329.022V308.854M-260.55 329.022L-260.55 386.398M-203.172 329.022H-145.797M-203.172 329.022V308.854M-203.172 329.022V386.398M-145.797 329.022H-88.4207M-145.797 329.022V308.854M-145.797 329.022V386.398M-88.4207 329.022H-31.0454M-88.4207 329.022V308.854M-88.4207 329.022V386.398M-31.0454 329.022H26.3292M-31.0454 329.022V308.854M-31.0454 329.022V386.398M26.3292 329.022H83.7072M26.3292 329.022V308.854M26.3292 329.022V386.398M83.7072 329.022H141.081M83.7072 329.022V308.854M83.7072 329.022V386.398M141.081 329.022H198.458M141.081 329.022V308.854M141.081 329.022V386.398M198.458 329.022H255.833M198.458 329.022V308.854M198.458 329.022V386.398M255.833 329.022H313.207M255.833 329.022V308.854M255.833 329.022V386.398M313.207 329.022H370.585M313.207 329.022V308.854M313.207 329.022V386.398M370.585 329.022H427.96M370.585 329.022V308.854M370.585 329.022V386.398M427.96 329.022H485.337M427.96 329.022V308.854M427.96 329.022V386.398M485.337 329.022H542.713M485.337 329.022V308.854M485.337 329.022V386.398M542.713 329.022H600.086M542.713 329.022V308.854M542.713 329.022V386.398M600.086 329.022H657.464M600.086 329.022V308.854M600.086 329.022V386.398M657.464 329.022H714.839M657.464 329.022V308.854M657.464 329.022V386.398M714.839 329.022H772.217M714.839 329.022V308.854M714.839 329.022V386.398M772.217 329.022H780.732M772.217 329.022V308.854M772.217 329.022V386.398M-294.167 1132.28H-260.55M-260.55 1132.28H-203.172M-260.55 1132.28L-260.55 1074.91M-260.55 1132.28V1139.01M-203.172 1132.28H-145.797M-203.172 1132.28V1074.91M-203.172 1132.28V1139.01M-145.797 1132.28H-88.4208M-145.797 1132.28V1074.91M-145.797 1132.28V1139.01M-88.4208 1132.28H-31.0455M-88.4208 1132.28V1074.91M-88.4208 1132.28V1139.01M-31.0455 1132.28H26.3291M-31.0455 1132.28V1074.91M-31.0455 1132.28V1139.01M26.3291 1132.28H83.7071M26.3291 1132.28V1074.91M26.3291 1132.28V1139.01M83.7071 1132.28H141.081M83.7071 1132.28V1074.91M83.7071 1132.28V1139.01M141.081 1132.28H198.458M141.081 1132.28V1074.91M141.081 1132.28V1139.01M198.458 1132.28H255.833M198.458 1132.28V1074.91M198.458 1132.28V1139.01M255.833 1132.28H313.207M255.833 1132.28V1074.91M255.833 1132.28V1139.01M313.207 1132.28H370.585M313.207 1132.28V1074.91M313.207 1132.28V1139.01M370.585 1132.28H427.96M370.585 1132.28V1074.91M370.585 1132.28V1139.01M427.96 1132.28H485.337M427.96 1132.28V1074.91M427.96 1132.28V1139.01M485.337 1132.28H542.713M485.337 1132.28V1074.91M485.337 1132.28V1139.01M542.713 1132.28H600.086M542.713 1132.28V1074.91M542.713 1132.28V1139.01M600.086 1132.28H657.464M600.086 1132.28V1074.91M600.086 1132.28V1139.01M657.464 1132.28H714.839M657.464 1132.28V1074.91M657.464 1132.28V1139.01M714.839 1132.28H772.217M714.839 1132.28V1074.91M714.839 1132.28V1139.01M772.217 1132.28H780.732M772.217 1132.28V1074.91M772.217 1132.28V1139.01M-294.167 673.276H-260.55M-260.55 673.276H-203.172M-260.55 673.276V615.901M-260.55 673.276L-260.55 730.653M-203.172 673.276H-145.797M-203.172 673.276L-203.172 615.901M-203.172 673.276V730.653M-145.797 673.276H-88.4207M-145.797 673.276V615.901M-145.797 673.276L-145.797 730.653M-88.4207 673.276H-31.0454M-88.4207 673.276V615.901M-88.4207 673.276V730.653M-31.0454 673.276H26.3291M-31.0454 673.276V615.901M-31.0454 673.276L-31.0455 730.653M26.3291 673.276H83.7072M26.3291 673.276V615.901M26.3291 673.276V730.653M83.7072 673.276H141.081M83.7072 673.276V615.901M83.7072 673.276V730.653M141.081 673.276H198.458M141.081 673.276V615.901M141.081 673.276V730.653M198.458 673.276H255.833M198.458 673.276V615.901M198.458 673.276V730.653M255.833 673.276H313.207M255.833 673.276V615.901M255.833 673.276V730.653M313.207 673.276H370.585M313.207 673.276V615.901M313.207 673.276V730.653M370.585 673.276H427.96M370.585 673.276V615.901M370.585 673.276V730.653M427.96 673.276H485.337M427.96 673.276V615.901M427.96 673.276V730.653M485.337 673.276H542.713M485.337 673.276V615.901M485.337 673.276V730.653M542.713 673.276H600.086M542.713 673.276V615.901M542.713 673.276V730.653M600.086 673.276H657.464M600.086 673.276V615.901M600.086 673.276V730.653M657.464 673.276H714.839M657.464 673.276V615.901M657.464 673.276V730.653M714.839 673.276H772.217M714.839 673.276V615.901M714.839 673.276V730.653M772.217 673.276H780.732M772.217 673.276V615.901M772.217 673.276L772.217 730.653M-294.167 902.78H-260.55M-260.55 902.78H-203.172M-260.55 902.78L-260.55 845.405M-260.55 902.78L-260.55 960.156M-203.172 902.78H-145.797M-203.172 902.78V845.405M-203.172 902.78V960.156M-145.797 902.78H-88.4207M-145.797 902.78V845.405M-145.797 902.78V960.156M-88.4207 902.78H-31.0455M-88.4207 902.78V845.405M-88.4207 902.78L-88.4208 960.156M-31.0455 902.78H26.3291M-31.0455 902.78V845.405M-31.0455 902.78V960.156M26.3291 902.78H83.7072M26.3291 902.78V845.405M26.3291 902.78L26.3291 960.156M83.7072 902.78H141.081M83.7072 902.78V845.405M83.7072 902.78L83.7071 960.156M141.081 902.78H198.458M141.081 902.78V845.405M141.081 902.78L141.081 960.156M198.458 902.78H255.833M198.458 902.78V845.405M198.458 902.78L198.458 960.156M255.833 902.78H313.207M255.833 902.78V845.405M255.833 902.78V960.156M313.207 902.78H370.585M313.207 902.78V845.405M313.207 902.78V960.156M370.585 902.78H427.96M370.585 902.78V845.405M370.585 902.78V960.156M427.96 902.78H485.337M427.96 902.78V845.405M427.96 902.78V960.156M485.337 902.78H542.713M485.337 902.78V845.405M485.337 902.78V960.156M542.713 902.78H600.086M542.713 902.78V845.405M542.713 902.78V960.156M600.086 902.78H657.464M600.086 902.78V845.405M600.086 902.78V960.156M657.464 902.78H714.839M657.464 902.78V845.405M657.464 902.78V960.156M714.839 902.78H772.217M714.839 902.78V845.405M714.839 902.78V960.156M772.217 902.78H780.732M772.217 902.78V845.405M772.217 902.78V960.156M-294.167 443.775H-260.55M-260.55 443.775H-203.172M-260.55 443.775L-260.55 386.398M-260.55 443.775V501.15M-203.172 443.775H-145.797M-203.172 443.775L-203.172 386.398M-203.172 443.775V501.15M-145.797 443.775H-88.4207M-145.797 443.775V386.398M-145.797 443.775L-145.797 501.15M-88.4207 443.775H-31.0454M-88.4207 443.775V386.398M-88.4207 443.775V501.15M-31.0454 443.775H26.3292M-31.0454 443.775V386.398M-31.0454 443.775V501.15M26.3292 443.775H83.7072M26.3292 443.775V386.398M26.3292 443.775V501.15M83.7072 443.775H141.081M83.7072 443.775V386.398M83.7072 443.775V501.15M141.081 443.775H198.458M141.081 443.775V386.398M141.081 443.775V501.15M198.458 443.775H255.833M198.458 443.775V386.398M198.458 443.775V501.15M255.833 443.775H313.207M255.833 443.775V386.398M255.833 443.775V501.15M313.207 443.775H370.585M313.207 443.775V386.398M313.207 443.775V501.15M370.585 443.775H427.96M370.585 443.775V386.398M370.585 443.775V501.15M427.96 443.775H485.337M427.96 443.775V386.398M427.96 443.775V501.15M485.337 443.775H542.713M485.337 443.775V386.398M485.337 443.775V501.15M542.713 443.775H600.086M542.713 443.775V386.398M542.713 443.775V501.15M600.086 443.775H657.464M600.086 443.775V386.398M600.086 443.775V501.15M657.464 443.775H714.839M657.464 443.775V386.398M657.464 443.775V501.15M714.839 443.775H772.217M714.839 443.775V386.398M714.839 443.775V501.15M772.217 443.775H780.732M772.217 443.775V386.398M772.217 443.775V501.15M-294.167 730.653H-260.55M-260.55 730.653H-203.172M-203.172 730.653H-145.797M-145.797 730.653H-88.4207M-88.4207 730.653H-31.0455M-31.0455 730.653H26.3291M26.3291 730.653H83.7072M83.7072 730.653H141.081M141.081 730.653H198.458M198.458 730.653H255.833M255.833 730.653H313.207M313.207 730.653H370.585M370.585 730.653H427.96M427.96 730.653H485.337M485.337 730.653H542.713M542.713 730.653H600.086M600.086 730.653H657.464M657.464 730.653H714.839M714.839 730.653H772.217M772.217 730.653H780.732M-294.167 960.156H-260.55M-260.55 960.156H-203.172M-203.172 960.156H-145.797M-145.797 960.156H-88.4208M-88.4208 960.156H-31.0455M-31.0455 960.156H26.3291M26.3291 960.156H83.7071M83.7071 960.156H141.081M141.081 960.156H198.458M198.458 960.156H255.833M255.833 960.156H313.207M313.207 960.156H370.585M370.585 960.156H427.96M427.96 960.156H485.337M485.337 960.156H542.713M542.713 960.156H600.086M600.086 960.156H657.464M657.464 960.156H714.839M714.839 960.156H772.217M772.217 960.156H780.732M-294.167 501.15H-260.55M-260.55 501.15H-203.172M-203.172 501.15H-145.797M-145.797 501.15H-88.4207M-88.4207 501.15H-31.0454M-31.0454 501.15H26.3292M26.3292 501.15H83.7072M83.7072 501.15H141.081M141.081 501.15H198.458M198.458 501.15H255.833M255.833 501.15H313.207M313.207 501.15H370.585M370.585 501.15H427.96M427.96 501.15H485.337M485.337 501.15H542.713M542.713 501.15H600.086M600.086 501.15H657.464M657.464 501.15H714.839M714.839 501.15H772.217M772.217 501.15H780.732M-294.167 1074.91H-260.55M-260.55 1074.91H-203.172M-203.172 1074.91H-145.797M-145.797 1074.91H-88.4208M-88.4208 1074.91H-31.0455M-31.0455 1074.91H26.3291M26.3291 1074.91H83.7071M83.7071 1074.91H141.081M141.081 1074.91H198.458M198.458 1074.91H255.833M255.833 1074.91H313.207M313.207 1074.91H370.585M370.585 1074.91H427.96M427.96 1074.91H485.337M485.337 1074.91H542.713M542.713 1074.91H600.086M600.086 1074.91H657.464M657.464 1074.91H714.839M714.839 1074.91H772.217M772.217 1074.91H780.732M-294.167 615.901H-260.55M-260.55 615.901H-203.172M-203.172 615.901H-145.797M-145.797 615.901H-88.4207M-88.4207 615.901H-31.0454M-31.0454 615.901H26.3291M26.3291 615.901H83.7072M83.7072 615.901H141.081M141.081 615.901H198.458M198.458 615.901H255.833M255.833 615.901H313.207M313.207 615.901H370.585M370.585 615.901H427.96M427.96 615.901H485.337M485.337 615.901H542.713M542.713 615.901H600.086M600.086 615.901H657.464M657.464 615.901H714.839M714.839 615.901H772.217M772.217 615.901H780.732M-294.167 845.405H-260.55M-260.55 845.405H-203.172M-203.172 845.405H-145.797M-145.797 845.405H-88.4207M-88.4207 845.405H-31.0455M-31.0455 845.405H26.3291M26.3291 845.405H83.7072M83.7072 845.405H141.081M141.081 845.405H198.458M198.458 845.405H255.833M255.833 845.405H313.207M313.207 845.405H370.585M370.585 845.405H427.96M427.96 845.405H485.337M485.337 845.405H542.713M542.713 845.405H600.086M600.086 845.405H657.464M657.464 845.405H714.839M714.839 845.405H772.217M772.217 845.405H780.732M-294.167 386.398H-260.55M-260.55 386.398H-203.172M-203.172 386.398H-145.797M-145.797 386.398H-88.4207M-88.4207 386.398H-31.0454M-31.0454 386.398H26.3292M26.3292 386.398H83.7072M83.7072 386.398H141.081M141.081 386.398H198.458M198.458 386.398H255.833M255.833 386.398H313.207M313.207 386.398H370.585M370.585 386.398H427.96M427.96 386.398H485.337M485.337 386.398H542.713M542.713 386.398H600.086M600.086 386.398H657.464M657.464 386.398H714.839M714.839 386.398H772.217M772.217 386.398H780.732M738.731 788.03H772.349M772.349 788.03H829.727M772.349 788.03V730.654M772.349 788.03V845.406M829.727 788.03H887.102M829.727 788.03V730.654M829.727 788.03V845.406M887.102 788.03H944.478M887.102 788.03V730.654M887.102 788.03V845.406M944.478 788.03H1001.85M944.478 788.03V730.654M944.478 788.03V845.406M1001.85 788.03H1059.23M1001.85 788.03V730.654M1001.85 788.03V845.406M1059.23 788.03H1116.61M1059.23 788.03V730.654M1059.23 788.03V845.406M1116.61 788.03H1173.98M1116.61 788.03V730.654M1116.61 788.03V845.406M1173.98 788.03H1231.36M1173.98 788.03V730.654M1173.98 788.03V845.406M1231.36 788.03H1288.73M1231.36 788.03V730.654M1231.36 788.03V845.406M1288.73 788.03H1346.11M1288.73 788.03V730.654M1288.73 788.03V845.406M1346.11 788.03H1403.48M1346.11 788.03V730.654M1346.11 788.03V845.406M1403.48 788.03H1460.86M1403.48 788.03V730.654M1403.48 788.03V845.406M1460.86 788.03H1518.24M1460.86 788.03V730.654M1460.86 788.03V845.406M1518.24 788.03H1575.61M1518.24 788.03V730.654M1518.24 788.03V845.406M1575.61 788.03H1632.99M1575.61 788.03V730.654M1575.61 788.03V845.406M1632.99 788.03H1690.36M1632.99 788.03V730.654M1632.99 788.03V845.406M1690.36 788.03H1747.74M1690.36 788.03V730.654M1690.36 788.03V845.406M1747.74 788.03H1805.12M1747.74 788.03V730.654M1747.74 788.03V845.406M1805.12 788.03H1813.63M1805.12 788.03V730.654M1805.12 788.03V845.406M738.731 1017.53H772.349M772.349 1017.53H829.727M772.349 1017.53V960.157M772.349 1017.53V1074.91M829.727 1017.53H887.102M829.727 1017.53V960.157M829.727 1017.53V1074.91M887.102 1017.53H944.478M887.102 1017.53V960.157M887.102 1017.53V1074.91M944.478 1017.53H1001.85M944.478 1017.53V960.157M944.478 1017.53V1074.91M1001.85 1017.53H1059.23M1001.85 1017.53V960.157M1001.85 1017.53V1074.91M1059.23 1017.53H1116.61M1059.23 1017.53V960.157M1059.23 1017.53V1074.91M1116.61 1017.53H1173.98M1116.61 1017.53V960.157M1116.61 1017.53V1074.91M1173.98 1017.53H1231.36M1173.98 1017.53V960.157M1173.98 1017.53V1074.91M1231.36 1017.53H1288.73M1231.36 1017.53V960.157M1231.36 1017.53V1074.91M1288.73 1017.53H1346.11M1288.73 1017.53V960.157M1288.73 1017.53V1074.91M1346.11 1017.53H1403.48M1346.11 1017.53V960.157M1346.11 1017.53V1074.91M1403.48 1017.53H1460.86M1403.48 1017.53V960.157M1403.48 1017.53V1074.91M1460.86 1017.53H1518.24M1460.86 1017.53V960.157M1460.86 1017.53V1074.91M1518.24 1017.53H1575.61M1518.24 1017.53V960.157M1518.24 1017.53V1074.91M1575.61 1017.53H1632.99M1575.61 1017.53V960.157M1575.61 1017.53V1074.91M1632.99 1017.53H1690.36M1632.99 1017.53V960.157M1632.99 1017.53V1074.91M1690.36 1017.53H1747.74M1690.36 1017.53V960.157M1690.36 1017.53V1074.91M1747.74 1017.53H1805.12M1747.74 1017.53V960.157M1747.74 1017.53V1074.91M1805.12 1017.53H1813.63M1805.12 1017.53V960.157M1805.12 1017.53V1074.91M738.731 558.527H772.349M772.349 558.527H829.727M772.349 558.527V501.151M772.349 558.527V615.902M829.727 558.527H887.102M829.727 558.527V501.151M829.727 558.527V615.902M887.102 558.527H944.478M887.102 558.527V501.151M887.102 558.527V615.902M944.478 558.527H1001.85M944.478 558.527V501.151M944.478 558.527V615.902M1001.85 558.527H1059.23M1001.85 558.527V501.151M1001.85 558.527V615.902M1059.23 558.527H1116.61M1059.23 558.527V501.151M1059.23 558.527V615.902M1116.61 558.527H1173.98M1116.61 558.527V501.151M1116.61 558.527V615.902M1173.98 558.527H1231.36M1173.98 558.527L1173.98 501.151M1173.98 558.527V615.902M1231.36 558.527H1288.73M1231.36 558.527L1231.36 501.151M1231.36 558.527V615.902M1288.73 558.527H1346.11M1288.73 558.527V501.151M1288.73 558.527V615.902M1346.11 558.527H1403.48M1346.11 558.527V501.151M1346.11 558.527V615.902M1403.48 558.527H1460.86M1403.48 558.527V501.151M1403.48 558.527V615.902M1460.86 558.527H1518.24M1460.86 558.527V501.151M1460.86 558.527V615.902M1518.24 558.527H1575.61M1518.24 558.527V501.151M1518.24 558.527V615.902M1575.61 558.527H1632.99M1575.61 558.527V501.151M1575.61 558.527V615.902M1632.99 558.527H1690.36M1632.99 558.527V501.151M1632.99 558.527V615.902M1690.36 558.527H1747.74M1690.36 558.527V501.151M1690.36 558.527V615.902M1747.74 558.527H1805.12M1747.74 558.527V501.151M1747.74 558.527V615.902M1805.12 558.527H1813.63M1805.12 558.527V501.151M1805.12 558.527V615.902M738.731 329.023H772.349M772.349 329.023H829.727M772.349 329.023V308.854M772.349 329.023V386.399M829.727 329.023H887.102M829.727 329.023V308.854M829.727 329.023V386.399M887.102 329.023H944.478M887.102 329.023V308.854M887.102 329.023V386.399M944.478 329.023H1001.85M944.478 329.023V308.854M944.478 329.023V386.399M1001.85 329.023H1059.23M1001.85 329.023V308.854M1001.85 329.023V386.399M1059.23 329.023H1116.61M1059.23 329.023V308.854M1059.23 329.023V386.399M1116.61 329.023H1173.98M1116.61 329.023V308.854M1116.61 329.023V386.399M1173.98 329.023H1231.36M1173.98 329.023V308.854M1173.98 329.023V386.399M1231.36 329.023H1288.73M1231.36 329.023V308.854M1231.36 329.023V386.399M1288.73 329.023H1346.11M1288.73 329.023V308.854M1288.73 329.023V386.399M1346.11 329.023H1403.48M1346.11 329.023V308.854M1346.11 329.023V386.399M1403.48 329.023H1460.86M1403.48 329.023V308.854M1403.48 329.023V386.399M1460.86 329.023H1518.24M1460.86 329.023V308.854M1460.86 329.023V386.399M1518.24 329.023H1575.61M1518.24 329.023V308.854M1518.24 329.023V386.399M1575.61 329.023H1632.99M1575.61 329.023V308.854M1575.61 329.023V386.399M1632.99 329.023H1690.36M1632.99 329.023V308.854M1632.99 329.023V386.399M1690.36 329.023H1747.74M1690.36 329.023V308.854M1690.36 329.023V386.399M1747.74 329.023H1805.12M1747.74 329.023V308.854M1747.74 329.023V386.399M1805.12 329.023H1813.63M1805.12 329.023V308.854M1805.12 329.023V386.399M738.731 1132.28H772.349M772.349 1132.28H829.727M772.349 1132.28V1074.91M772.349 1132.28V1139.01M829.727 1132.28H887.102M829.727 1132.28V1074.91M829.727 1132.28V1139.01M887.102 1132.28H944.478M887.102 1132.28V1074.91M887.102 1132.28V1139.01M944.478 1132.28H1001.85M944.478 1132.28V1074.91M944.478 1132.28V1139.01M1001.85 1132.28H1059.23M1001.85 1132.28V1074.91M1001.85 1132.28V1139.01M1059.23 1132.28H1116.61M1059.23 1132.28V1074.91M1059.23 1132.28V1139.01M1116.61 1132.28H1173.98M1116.61 1132.28V1074.91M1116.61 1132.28V1139.01M1173.98 1132.28H1231.36M1173.98 1132.28V1074.91M1173.98 1132.28V1139.01M1231.36 1132.28H1288.73M1231.36 1132.28V1074.91M1231.36 1132.28V1139.01M1288.73 1132.28H1346.11M1288.73 1132.28V1074.91M1288.73 1132.28V1139.01M1346.11 1132.28H1403.48M1346.11 1132.28V1074.91M1346.11 1132.28V1139.01M1403.48 1132.28H1460.86M1403.48 1132.28V1074.91M1403.48 1132.28V1139.01M1460.86 1132.28H1518.24M1460.86 1132.28V1074.91M1460.86 1132.28V1139.01M1518.24 1132.28H1575.61M1518.24 1132.28V1074.91M1518.24 1132.28V1139.01M1575.61 1132.28H1632.99M1575.61 1132.28V1074.91M1575.61 1132.28V1139.01M1632.99 1132.28H1690.36M1632.99 1132.28V1074.91M1632.99 1132.28V1139.01M1690.36 1132.28H1747.74M1690.36 1132.28V1074.91M1690.36 1132.28V1139.01M1747.74 1132.28H1805.12M1747.74 1132.28V1074.91M1747.74 1132.28V1139.01M1805.12 1132.28H1813.63M1805.12 1132.28V1074.91M1805.12 1132.28V1139.01M738.731 673.277H772.349M772.349 673.277H829.727M772.349 673.277V615.902M772.349 673.277V730.654M829.727 673.277H887.102M829.727 673.277V615.902M829.727 673.277V730.654M887.102 673.277H944.478M887.102 673.277V615.902M887.102 673.277L887.102 730.654M944.478 673.277H1001.85M944.478 673.277V615.902M944.478 673.277V730.654M1001.85 673.277H1059.23M1001.85 673.277V615.902M1001.85 673.277V730.654M1059.23 673.277H1116.61M1059.23 673.277V615.902M1059.23 673.277V730.654M1116.61 673.277H1173.98M1116.61 673.277V615.902M1116.61 673.277V730.654M1173.98 673.277H1231.36M1173.98 673.277V615.902M1173.98 673.277V730.654M1231.36 673.277H1288.73M1231.36 673.277V615.902M1231.36 673.277V730.654M1288.73 673.277H1346.11M1288.73 673.277V615.902M1288.73 673.277V730.654M1346.11 673.277H1403.48M1346.11 673.277V615.902M1346.11 673.277V730.654M1403.48 673.277H1460.86M1403.48 673.277V615.902M1403.48 673.277V730.654M1460.86 673.277H1518.24M1460.86 673.277V615.902M1460.86 673.277V730.654M1518.24 673.277H1575.61M1518.24 673.277V615.902M1518.24 673.277V730.654M1575.61 673.277H1632.99M1575.61 673.277V615.902M1575.61 673.277V730.654M1632.99 673.277H1690.36M1632.99 673.277V615.902M1632.99 673.277V730.654M1690.36 673.277H1747.74M1690.36 673.277V615.902M1690.36 673.277V730.654M1747.74 673.277H1805.12M1747.74 673.277V615.902M1747.74 673.277V730.654M1805.12 673.277H1813.63M1805.12 673.277V615.902M1805.12 673.277V730.654M738.731 902.781H772.349M772.349 902.781H829.727M772.349 902.781V845.406M772.349 902.781V960.157M829.727 902.781H887.102M829.727 902.781V845.406M829.727 902.781V960.157M887.102 902.781H944.478M887.102 902.781V845.406M887.102 902.781V960.157M944.478 902.781H1001.85M944.478 902.781V845.406M944.478 902.781V960.157M1001.85 902.781H1059.23M1001.85 902.781V845.406M1001.85 902.781V960.157M1059.23 902.781H1116.61M1059.23 902.781V845.406M1059.23 902.781V960.157M1116.61 902.781H1173.98M1116.61 902.781V845.406M1116.61 902.781V960.157M1173.98 902.781H1231.36M1173.98 902.781V845.406M1173.98 902.781V960.157M1231.36 902.781H1288.73M1231.36 902.781V845.406M1231.36 902.781V960.157M1288.73 902.781H1346.11M1288.73 902.781V845.406M1288.73 902.781V960.157M1346.11 902.781H1403.48M1346.11 902.781V845.406M1346.11 902.781V960.157M1403.48 902.781H1460.86M1403.48 902.781V845.406M1403.48 902.781V960.157M1460.86 902.781H1518.24M1460.86 902.781V845.406M1460.86 902.781V960.157M1518.24 902.781H1575.61M1518.24 902.781V845.406M1518.24 902.781V960.157M1575.61 902.781H1632.99M1575.61 902.781V845.406M1575.61 902.781V960.157M1632.99 902.781H1690.36M1632.99 902.781V845.406M1632.99 902.781V960.157M1690.36 902.781H1747.74M1690.36 902.781V845.406M1690.36 902.781V960.157M1747.74 902.781H1805.12M1747.74 902.781V845.406M1747.74 902.781V960.157M1805.12 902.781H1813.63M1805.12 902.781V845.406M1805.12 902.781V960.157M738.731 443.776H772.349M772.349 443.776H829.727M772.349 443.776V386.399M772.349 443.776V501.151M829.727 443.776H887.102M829.727 443.776V386.399M829.727 443.776V501.151M887.102 443.776H944.478M887.102 443.776V386.399M887.102 443.776V501.151M944.478 443.776H1001.85M944.478 443.776V386.399M944.478 443.776V501.151M1001.85 443.776H1059.23M1001.85 443.776V386.399M1001.85 443.776V501.151M1059.23 443.776H1116.61M1059.23 443.776V386.399M1059.23 443.776V501.151M1116.61 443.776H1173.98M1116.61 443.776V386.399M1116.61 443.776V501.151M1173.98 443.776H1231.36M1173.98 443.776V386.399M1173.98 443.776V501.151M1231.36 443.776H1288.73M1231.36 443.776V386.399M1231.36 443.776V501.151M1288.73 443.776H1346.11M1288.73 443.776V386.399M1288.73 443.776V501.151M1346.11 443.776H1403.48M1346.11 443.776V386.399M1346.11 443.776V501.151M1403.48 443.776H1460.86M1403.48 443.776V386.399M1403.48 443.776V501.151M1460.86 443.776H1518.24M1460.86 443.776V386.399M1460.86 443.776V501.151M1518.24 443.776H1575.61M1518.24 443.776V386.399M1518.24 443.776V501.151M1575.61 443.776H1632.99M1575.61 443.776V386.399M1575.61 443.776V501.151M1632.99 443.776H1690.36M1632.99 443.776V386.399M1632.99 443.776V501.151M1690.36 443.776H1747.74M1690.36 443.776V386.399M1690.36 443.776V501.151M1747.74 443.776H1805.12M1747.74 443.776V386.399M1747.74 443.776V501.151M1805.12 443.776H1813.63M1805.12 443.776V386.399M1805.12 443.776V501.151M738.731 730.654H772.349M772.349 730.654H829.727M829.727 730.654H887.102M887.102 730.654H944.478M944.478 730.654H1001.85M1001.85 730.654H1059.23M1059.23 730.654H1116.61M1116.61 730.654H1173.98M1173.98 730.654H1231.36M1231.36 730.654H1288.73M1288.73 730.654H1346.11M1346.11 730.654H1403.48M1403.48 730.654H1460.86M1460.86 730.654H1518.24M1518.24 730.654H1575.61M1575.61 730.654H1632.99M1632.99 730.654H1690.36M1690.36 730.654H1747.74M1747.74 730.654H1805.12M1805.12 730.654H1813.63M738.731 960.157H772.349M772.349 960.157H829.727M829.727 960.157H887.102M887.102 960.157H944.478M944.478 960.157H1001.85M1001.85 960.157H1059.23M1059.23 960.157H1116.61M1116.61 960.157H1173.98M1173.98 960.157H1231.36M1231.36 960.157H1288.73M1288.73 960.157H1346.11M1346.11 960.157H1403.48M1403.48 960.157H1460.86M1460.86 960.157H1518.24M1518.24 960.157H1575.61M1575.61 960.157H1632.99M1632.99 960.157H1690.36M1690.36 960.157H1747.74M1747.74 960.157H1805.12M1805.12 960.157H1813.63M738.731 501.151H772.349M772.349 501.151H829.727M829.727 501.151H887.102M887.102 501.151H944.478M944.478 501.151H1001.85M1001.85 501.151H1059.23M1059.23 501.151H1116.61M1116.61 501.151H1173.98M1173.98 501.151H1231.36M1231.36 501.151H1288.73M1288.73 501.151H1346.11M1346.11 501.151H1403.48M1403.48 501.151H1460.86M1460.86 501.151H1518.24M1518.24 501.151H1575.61M1575.61 501.151H1632.99M1632.99 501.151H1690.36M1690.36 501.151H1747.74M1747.74 501.151H1805.12M1805.12 501.151H1813.63M738.731 1074.91H772.349M772.349 1074.91H829.727M829.727 1074.91H887.102M887.102 1074.91H944.478M944.478 1074.91H1001.85M1001.85 1074.91H1059.23M1059.23 1074.91H1116.61M1116.61 1074.91H1173.98M1173.98 1074.91H1231.36M1231.36 1074.91H1288.73M1288.73 1074.91H1346.11M1346.11 1074.91H1403.48M1403.48 1074.91H1460.86M1460.86 1074.91H1518.24M1518.24 1074.91H1575.61M1575.61 1074.91H1632.99M1632.99 1074.91H1690.36M1690.36 1074.91H1747.74M1747.74 1074.91H1805.12M1805.12 1074.91H1813.63M738.731 615.902H772.349M772.349 615.902H829.727M829.727 615.902H887.102M887.102 615.902H944.478M944.478 615.902H1001.85M1001.85 615.902H1059.23M1059.23 615.902H1116.61M1116.61 615.902H1173.98M1173.98 615.902H1231.36M1231.36 615.902H1288.73M1288.73 615.902H1346.11M1346.11 615.902H1403.48M1403.48 615.902H1460.86M1460.86 615.902H1518.24M1518.24 615.902H1575.61M1575.61 615.902H1632.99M1632.99 615.902H1690.36M1690.36 615.902H1747.74M1747.74 615.902H1805.12M1805.12 615.902H1813.63M738.731 845.406H772.349M772.349 845.406H829.727M829.727 845.406H887.102M887.102 845.406H944.478M944.478 845.406H1001.85M1001.85 845.406H1059.23M1059.23 845.406H1116.61M1116.61 845.406H1173.98M1173.98 845.406H1231.36M1231.36 845.406H1288.73M1288.73 845.406H1346.11M1346.11 845.406H1403.48M1403.48 845.406H1460.86M1460.86 845.406H1518.24M1518.24 845.406H1575.61M1575.61 845.406H1632.99M1632.99 845.406H1690.36M1690.36 845.406H1747.74M1747.74 845.406H1805.12M1805.12 845.406H1813.63M738.731 386.399H772.349M772.349 386.399H829.727M829.727 386.399H887.102M887.102 386.399H944.478M944.478 386.399H1001.85M1001.85 386.399H1059.23M1059.23 386.399H1116.61M1116.61 386.399H1173.98M1173.98 386.399H1231.36M1231.36 386.399H1288.73M1288.73 386.399H1346.11M1346.11 386.399H1403.48M1403.48 386.399H1460.86M1460.86 386.399H1518.24M1518.24 386.399H1575.61M1575.61 386.399H1632.99M1632.99 386.399H1690.36M1690.36 386.399H1747.74M1747.74 386.399H1805.12M1805.12 386.399H1813.63M-294.167 1591.18H-260.55M-260.55 1591.18H-203.172M-260.55 1591.18L-260.55 1533.81M-260.55 1591.18V1648.56M-203.172 1591.18H-145.797M-203.172 1591.18V1533.81M-203.172 1591.18L-203.172 1648.56M-145.797 1591.18H-88.421M-145.797 1591.18V1533.81M-145.797 1591.18V1648.56M-88.421 1591.18H-31.0457M-88.421 1591.18V1533.81M-88.421 1591.18V1648.56M-31.0457 1591.18H26.3289M-31.0457 1591.18V1533.81M-31.0457 1591.18V1648.56M26.3289 1591.18H83.7069M26.3289 1591.18V1533.81M26.3289 1591.18V1648.56M83.7069 1591.18H141.08M83.7069 1591.18V1533.81M83.7069 1591.18V1648.56M141.08 1591.18H198.458M141.08 1591.18V1533.81M141.08 1591.18V1648.56M198.458 1591.18H255.833M198.458 1591.18V1533.81M198.458 1591.18V1648.56M255.833 1591.18H313.207M255.833 1591.18V1533.81M255.833 1591.18V1648.56M313.207 1591.18H370.584M313.207 1591.18V1533.81M313.207 1591.18V1648.56M370.584 1591.18H427.96M370.584 1591.18V1533.81M370.584 1591.18V1648.56M427.96 1591.18H485.337M427.96 1591.18V1533.81M427.96 1591.18V1648.56M485.337 1591.18H542.712M485.337 1591.18V1533.81M485.337 1591.18V1648.56M542.712 1591.18H600.086M542.712 1591.18V1533.81M542.712 1591.18V1648.56M600.086 1591.18H657.464M600.086 1591.18V1533.81M600.086 1591.18V1648.56M657.464 1591.18H714.839M657.464 1591.18V1533.81M657.464 1591.18V1648.56M714.839 1591.18H772.217M714.839 1591.18V1533.81M714.839 1591.18V1648.56M772.217 1591.18H780.732M772.217 1591.18V1533.81M772.217 1591.18V1648.56M-294.167 1820.69H-260.55M-260.55 1820.69H-203.172M-260.55 1820.69L-260.55 1763.31M-260.55 1820.69V1878.06M-203.172 1820.69H-145.797M-203.172 1820.69V1763.31M-203.172 1820.69L-203.173 1878.06M-145.797 1820.69H-88.421M-145.797 1820.69L-145.797 1763.31M-145.797 1820.69V1878.06M-88.421 1820.69H-31.0457M-88.421 1820.69V1763.31M-88.421 1820.69V1878.06M-31.0457 1820.69H26.3289M-31.0457 1820.69V1763.31M-31.0457 1820.69V1878.06M26.3289 1820.69H83.7069M26.3289 1820.69V1763.31M26.3289 1820.69V1878.06M83.7069 1820.69H141.08M83.7069 1820.69V1763.31M83.7069 1820.69V1878.06M141.08 1820.69H198.458M141.08 1820.69V1763.31M141.08 1820.69V1878.06M198.458 1820.69H255.833M198.458 1820.69V1763.31M198.458 1820.69V1878.06M255.833 1820.69H313.207M255.833 1820.69V1763.31M255.833 1820.69V1878.06M313.207 1820.69H370.584M313.207 1820.69V1763.31M313.207 1820.69V1878.06M370.584 1820.69H427.96M370.584 1820.69V1763.31M370.584 1820.69V1878.06M427.96 1820.69H485.337M427.96 1820.69V1763.31M427.96 1820.69V1878.06M485.337 1820.69H542.712M485.337 1820.69V1763.31M485.337 1820.69V1878.06M542.712 1820.69H600.086M542.712 1820.69V1763.31M542.712 1820.69V1878.06M600.086 1820.69H657.464M600.086 1820.69V1763.31M600.086 1820.69V1878.06M657.464 1820.69H714.839M657.464 1820.69V1763.31M657.464 1820.69V1878.06M714.839 1820.69H772.217M714.839 1820.69V1763.31M714.839 1820.69V1878.06M772.217 1820.69H780.732M772.217 1820.69V1763.31M772.217 1820.69V1878.06M-294.167 1361.68H-260.55M-260.55 1361.68H-203.172M-260.55 1361.68L-260.55 1304.31M-260.55 1361.68L-260.55 1419.06M-203.172 1361.68H-145.797M-203.172 1361.68V1304.31M-203.172 1361.68V1419.06M-145.797 1361.68H-88.421M-145.797 1361.68V1304.31M-145.797 1361.68V1419.06M-88.421 1361.68H-31.0457M-88.421 1361.68L-88.421 1304.31M-88.421 1361.68V1419.06M-31.0457 1361.68H26.3289M-31.0457 1361.68V1304.31M-31.0457 1361.68V1419.06M26.3289 1361.68H83.7069M26.3289 1361.68L26.3289 1304.31M26.3289 1361.68V1419.06M83.7069 1361.68H141.08M83.7069 1361.68L83.7069 1304.31M83.7069 1361.68V1419.06M141.08 1361.68H198.458M141.08 1361.68L141.08 1304.31M141.08 1361.68V1419.06M198.458 1361.68H255.833M198.458 1361.68L198.458 1304.31M198.458 1361.68V1419.06M255.833 1361.68H313.207M255.833 1361.68V1304.31M255.833 1361.68V1419.06M313.207 1361.68H370.584M313.207 1361.68V1304.31M313.207 1361.68V1419.06M370.584 1361.68H427.96M370.584 1361.68V1304.31M370.584 1361.68V1419.06M427.96 1361.68H485.337M427.96 1361.68V1304.31M427.96 1361.68V1419.06M485.337 1361.68H542.712M485.337 1361.68V1304.31M485.337 1361.68V1419.06M542.712 1361.68H600.086M542.712 1361.68V1304.31M542.712 1361.68V1419.06M600.086 1361.68H657.464M600.086 1361.68V1304.31M600.086 1361.68V1419.06M657.464 1361.68H714.839M657.464 1361.68V1304.31M657.464 1361.68V1419.06M714.839 1361.68H772.217M714.839 1361.68V1304.31M714.839 1361.68V1419.06M772.217 1361.68H780.732M772.217 1361.68V1304.31M772.217 1361.68V1419.06M-294.167 1132.18H-260.55M-260.55 1132.18H-203.172M-260.55 1132.18V1112.01M-260.55 1132.18L-260.55 1189.55M-203.172 1132.18H-145.797M-203.172 1132.18V1112.01M-203.172 1132.18V1189.55M-145.797 1132.18H-88.421M-145.797 1132.18V1112.01M-145.797 1132.18V1189.55M-88.421 1132.18H-31.0457M-88.421 1132.18V1112.01M-88.421 1132.18V1189.55M-31.0457 1132.18H26.3289M-31.0457 1132.18V1112.01M-31.0457 1132.18V1189.55M26.3289 1132.18H83.7069M26.3289 1132.18V1112.01M26.3289 1132.18V1189.55M83.7069 1132.18H141.08M83.7069 1132.18V1112.01M83.7069 1132.18V1189.55M141.08 1132.18H198.458M141.08 1132.18V1112.01M141.08 1132.18V1189.55M198.458 1132.18H255.833M198.458 1132.18V1112.01M198.458 1132.18V1189.55M255.833 1132.18H313.207M255.833 1132.18V1112.01M255.833 1132.18V1189.55M313.207 1132.18H370.584M313.207 1132.18V1112.01M313.207 1132.18V1189.55M370.584 1132.18H427.96M370.584 1132.18V1112.01M370.584 1132.18V1189.55M427.96 1132.18H485.337M427.96 1132.18V1112.01M427.96 1132.18V1189.55M485.337 1132.18H542.712M485.337 1132.18V1112.01M485.337 1132.18V1189.55M542.712 1132.18H600.086M542.712 1132.18V1112.01M542.712 1132.18V1189.55M600.086 1132.18H657.464M600.086 1132.18V1112.01M600.086 1132.18V1189.55M657.464 1132.18H714.839M657.464 1132.18V1112.01M657.464 1132.18V1189.55M714.839 1132.18H772.217M714.839 1132.18V1112.01M714.839 1132.18V1189.55M772.217 1132.18H780.732M772.217 1132.18V1112.01M772.217 1132.18V1189.55M-294.167 1935.44H-260.55M-260.55 1935.44H-203.173M-260.55 1935.44L-260.55 1878.06M-260.55 1935.44V1942.17M-203.173 1935.44H-145.797M-203.173 1935.44V1878.06M-203.173 1935.44V1942.17M-145.797 1935.44H-88.421M-145.797 1935.44V1878.06M-145.797 1935.44V1942.17M-88.421 1935.44H-31.0457M-88.421 1935.44V1878.06M-88.421 1935.44V1942.17M-31.0457 1935.44H26.3289M-31.0457 1935.44V1878.06M-31.0457 1935.44V1942.17M26.3289 1935.44H83.7069M26.3289 1935.44V1878.06M26.3289 1935.44V1942.17M83.7069 1935.44H141.08M83.7069 1935.44V1878.06M83.7069 1935.44V1942.17M141.08 1935.44H198.458M141.08 1935.44V1878.06M141.08 1935.44V1942.17M198.458 1935.44H255.833M198.458 1935.44V1878.06M198.458 1935.44V1942.17M255.833 1935.44H313.207M255.833 1935.44V1878.06M255.833 1935.44V1942.17M313.207 1935.44H370.584M313.207 1935.44V1878.06M313.207 1935.44V1942.17M370.584 1935.44H427.96M370.584 1935.44V1878.06M370.584 1935.44V1942.17M427.96 1935.44H485.337M427.96 1935.44V1878.06M427.96 1935.44V1942.17M485.337 1935.44H542.712M485.337 1935.44V1878.06M485.337 1935.44V1942.17M542.712 1935.44H600.086M542.712 1935.44V1878.06M542.712 1935.44V1942.17M600.086 1935.44H657.464M600.086 1935.44V1878.06M600.086 1935.44V1942.17M657.464 1935.44H714.839M657.464 1935.44V1878.06M657.464 1935.44V1942.17M714.839 1935.44H772.217M714.839 1935.44V1878.06M714.839 1935.44V1942.17M772.217 1935.44H780.732M772.217 1935.44V1878.06M772.217 1935.44V1942.17M-294.167 1476.43H-260.55M-260.55 1476.43H-203.172M-260.55 1476.43V1419.06M-260.55 1476.43L-260.55 1533.81M-203.172 1476.43H-145.797M-203.172 1476.43L-203.172 1419.06M-203.172 1476.43V1533.81M-145.797 1476.43H-88.421M-145.797 1476.43V1419.06M-145.797 1476.43L-145.797 1533.81M-88.421 1476.43H-31.0457M-88.421 1476.43V1419.06M-88.421 1476.43V1533.81M-31.0457 1476.43H26.3289M-31.0457 1476.43V1419.06M-31.0457 1476.43L-31.0457 1533.81M26.3289 1476.43H83.7069M26.3289 1476.43V1419.06M26.3289 1476.43V1533.81M83.7069 1476.43H141.08M83.7069 1476.43V1419.06M83.7069 1476.43V1533.81M141.08 1476.43H198.458M141.08 1476.43V1419.06M141.08 1476.43V1533.81M198.458 1476.43H255.833M198.458 1476.43V1419.06M198.458 1476.43V1533.81M255.833 1476.43H313.207M255.833 1476.43V1419.06M255.833 1476.43V1533.81M313.207 1476.43H370.584M313.207 1476.43V1419.06M313.207 1476.43V1533.81M370.584 1476.43H427.96M370.584 1476.43V1419.06M370.584 1476.43V1533.81M427.96 1476.43H485.337M427.96 1476.43V1419.06M427.96 1476.43V1533.81M485.337 1476.43H542.712M485.337 1476.43V1419.06M485.337 1476.43V1533.81M542.712 1476.43H600.086M542.712 1476.43V1419.06M542.712 1476.43V1533.81M600.086 1476.43H657.464M600.086 1476.43V1419.06M600.086 1476.43V1533.81M657.464 1476.43H714.839M657.464 1476.43V1419.06M657.464 1476.43V1533.81M714.839 1476.43H772.217M714.839 1476.43V1419.06M714.839 1476.43V1533.81M772.217 1476.43H780.732M772.217 1476.43V1419.06M772.217 1476.43L772.217 1533.81M-294.167 1705.94H-260.55M-260.55 1705.94H-203.172M-260.55 1705.94L-260.55 1648.56M-260.55 1705.94L-260.55 1763.31M-203.172 1705.94H-145.797M-203.172 1705.94V1648.56M-203.172 1705.94V1763.31M-145.797 1705.94H-88.421M-145.797 1705.94V1648.56M-145.797 1705.94V1763.31M-88.421 1705.94H-31.0457M-88.421 1705.94V1648.56M-88.421 1705.94L-88.421 1763.31M-31.0457 1705.94H26.3289M-31.0457 1705.94V1648.56M-31.0457 1705.94V1763.31M26.3289 1705.94H83.7069M26.3289 1705.94V1648.56M26.3289 1705.94L26.3289 1763.31M83.7069 1705.94H141.08M83.7069 1705.94V1648.56M83.7069 1705.94L83.7069 1763.31M141.08 1705.94H198.458M141.08 1705.94V1648.56M141.08 1705.94L141.08 1763.31M198.458 1705.94H255.833M198.458 1705.94V1648.56M198.458 1705.94L198.458 1763.31M255.833 1705.94H313.207M255.833 1705.94V1648.56M255.833 1705.94V1763.31M313.207 1705.94H370.584M313.207 1705.94V1648.56M313.207 1705.94V1763.31M370.584 1705.94H427.96M370.584 1705.94V1648.56M370.584 1705.94V1763.31M427.96 1705.94H485.337M427.96 1705.94V1648.56M427.96 1705.94V1763.31M485.337 1705.94H542.712M485.337 1705.94V1648.56M485.337 1705.94V1763.31M542.712 1705.94H600.086M542.712 1705.94V1648.56M542.712 1705.94V1763.31M600.086 1705.94H657.464M600.086 1705.94V1648.56M600.086 1705.94V1763.31M657.464 1705.94H714.839M657.464 1705.94V1648.56M657.464 1705.94V1763.31M714.839 1705.94H772.217M714.839 1705.94V1648.56M714.839 1705.94V1763.31M772.217 1705.94H780.732M772.217 1705.94V1648.56M772.217 1705.94V1763.31M-294.167 1246.93H-260.55M-260.55 1246.93H-203.172M-260.55 1246.93L-260.55 1189.55M-260.55 1246.93V1304.31M-203.172 1246.93H-145.797M-203.172 1246.93L-203.172 1189.55M-203.172 1246.93V1304.31M-145.797 1246.93H-88.421M-145.797 1246.93V1189.55M-145.797 1246.93L-145.797 1304.31M-88.421 1246.93H-31.0457M-88.421 1246.93V1189.55M-88.421 1246.93V1304.31M-31.0457 1246.93H26.3289M-31.0457 1246.93V1189.55M-31.0457 1246.93V1304.31M26.3289 1246.93H83.7069M26.3289 1246.93V1189.55M26.3289 1246.93V1304.31M83.7069 1246.93H141.08M83.7069 1246.93V1189.55M83.7069 1246.93V1304.31M141.08 1246.93H198.458M141.08 1246.93V1189.55M141.08 1246.93V1304.31M198.458 1246.93H255.833M198.458 1246.93V1189.55M198.458 1246.93V1304.31M255.833 1246.93H313.207M255.833 1246.93V1189.55M255.833 1246.93V1304.31M313.207 1246.93H370.584M313.207 1246.93V1189.55M313.207 1246.93V1304.31M370.584 1246.93H427.96M370.584 1246.93V1189.55M370.584 1246.93V1304.31M427.96 1246.93H485.337M427.96 1246.93V1189.55M427.96 1246.93V1304.31M485.337 1246.93H542.712M485.337 1246.93V1189.55M485.337 1246.93V1304.31M542.712 1246.93H600.086M542.712 1246.93V1189.55M542.712 1246.93V1304.31M600.086 1246.93H657.464M600.086 1246.93V1189.55M600.086 1246.93V1304.31M657.464 1246.93H714.839M657.464 1246.93V1189.55M657.464 1246.93V1304.31M714.839 1246.93H772.217M714.839 1246.93V1189.55M714.839 1246.93V1304.31M772.217 1246.93H780.732M772.217 1246.93V1189.55M772.217 1246.93V1304.31M-294.167 1533.81H-260.55M-260.55 1533.81H-203.172M-203.172 1533.81H-145.797M-145.797 1533.81H-88.421M-88.421 1533.81H-31.0457M-31.0457 1533.81H26.3289M26.3289 1533.81H83.7069M83.7069 1533.81H141.08M141.08 1533.81H198.458M198.458 1533.81H255.833M255.833 1533.81H313.207M313.207 1533.81H370.584M370.584 1533.81H427.96M427.96 1533.81H485.337M485.337 1533.81H542.712M542.712 1533.81H600.086M600.086 1533.81H657.464M657.464 1533.81H714.839M714.839 1533.81H772.217M772.217 1533.81H780.732M-294.167 1763.31H-260.55M-260.55 1763.31H-203.172M-203.172 1763.31H-145.797M-145.797 1763.31H-88.421M-88.421 1763.31H-31.0457M-31.0457 1763.31H26.3289M26.3289 1763.31H83.7069M83.7069 1763.31H141.08M141.08 1763.31H198.458M198.458 1763.31H255.833M255.833 1763.31H313.207M313.207 1763.31H370.584M370.584 1763.31H427.96M427.96 1763.31H485.337M485.337 1763.31H542.712M542.712 1763.31H600.086M600.086 1763.31H657.464M657.464 1763.31H714.839M714.839 1763.31H772.217M772.217 1763.31H780.732M-294.167 1304.31H-260.55M-260.55 1304.31H-203.172M-203.172 1304.31H-145.797M-145.797 1304.31H-88.421M-88.421 1304.31H-31.0457M-31.0457 1304.31H26.3289M26.3289 1304.31H83.7069M83.7069 1304.31H141.08M141.08 1304.31H198.458M198.458 1304.31H255.833M255.833 1304.31H313.207M313.207 1304.31H370.584M370.584 1304.31H427.96M427.96 1304.31H485.337M485.337 1304.31H542.712M542.712 1304.31H600.086M600.086 1304.31H657.464M657.464 1304.31H714.839M714.839 1304.31H772.217M772.217 1304.31H780.732M-294.167 1878.06H-260.55M-260.55 1878.06H-203.173M-203.173 1878.06H-145.797M-145.797 1878.06H-88.421M-88.421 1878.06H-31.0457M-31.0457 1878.06H26.3289M26.3289 1878.06H83.7069M83.7069 1878.06H141.08M141.08 1878.06H198.458M198.458 1878.06H255.833M255.833 1878.06H313.207M313.207 1878.06H370.584M370.584 1878.06H427.96M427.96 1878.06H485.337M485.337 1878.06H542.712M542.712 1878.06H600.086M600.086 1878.06H657.464M657.464 1878.06H714.839M714.839 1878.06H772.217M772.217 1878.06H780.732M-294.167 1419.06H-260.55M-260.55 1419.06H-203.172M-203.172 1419.06H-145.797M-145.797 1419.06H-88.421M-88.421 1419.06H-31.0457M-31.0457 1419.06H26.3289M26.3289 1419.06H83.7069M83.7069 1419.06H141.08M141.08 1419.06H198.458M198.458 1419.06H255.833M255.833 1419.06H313.207M313.207 1419.06H370.584M370.584 1419.06H427.96M427.96 1419.06H485.337M485.337 1419.06H542.712M542.712 1419.06H600.086M600.086 1419.06H657.464M657.464 1419.06H714.839M714.839 1419.06H772.217M772.217 1419.06H780.732M-294.167 1648.56H-260.55M-260.55 1648.56H-203.172M-203.172 1648.56H-145.797M-145.797 1648.56H-88.421M-88.421 1648.56H-31.0457M-31.0457 1648.56H26.3289M26.3289 1648.56H83.7069M83.7069 1648.56H141.08M141.08 1648.56H198.458M198.458 1648.56H255.833M255.833 1648.56H313.207M313.207 1648.56H370.584M370.584 1648.56H427.96M427.96 1648.56H485.337M485.337 1648.56H542.712M542.712 1648.56H600.086M600.086 1648.56H657.464M657.464 1648.56H714.839M714.839 1648.56H772.217M772.217 1648.56H780.732M-294.167 1189.55H-260.55M-260.55 1189.55H-203.172M-203.172 1189.55H-145.797M-145.797 1189.55H-88.421M-88.421 1189.55H-31.0457M-31.0457 1189.55H26.3289M26.3289 1189.55H83.7069M83.7069 1189.55H141.08M141.08 1189.55H198.458M198.458 1189.55H255.833M255.833 1189.55H313.207M313.207 1189.55H370.584M370.584 1189.55H427.96M427.96 1189.55H485.337M485.337 1189.55H542.712M542.712 1189.55H600.086M600.086 1189.55H657.464M657.464 1189.55H714.839M714.839 1189.55H772.217M772.217 1189.55H780.732M738.731 1591.18H772.349M772.349 1591.18H829.727M772.349 1591.18V1533.81M772.349 1591.18V1648.56M829.727 1591.18H887.102M829.727 1591.18V1533.81M829.727 1591.18V1648.56M887.102 1591.18H944.478M887.102 1591.18V1533.81M887.102 1591.18V1648.56M944.478 1591.18H1001.85M944.478 1591.18V1533.81M944.478 1591.18V1648.56M1001.85 1591.18H1059.23M1001.85 1591.18V1533.81M1001.85 1591.18V1648.56M1059.23 1591.18H1116.61M1059.23 1591.18V1533.81M1059.23 1591.18V1648.56M1116.61 1591.18H1173.98M1116.61 1591.18V1533.81M1116.61 1591.18V1648.56M1173.98 1591.18H1231.36M1173.98 1591.18V1533.81M1173.98 1591.18V1648.56M1231.36 1591.18H1288.73M1231.36 1591.18V1533.81M1231.36 1591.18V1648.56M1288.73 1591.18H1346.11M1288.73 1591.18V1533.81M1288.73 1591.18V1648.56M1346.11 1591.18H1403.48M1346.11 1591.18V1533.81M1346.11 1591.18V1648.56M1403.48 1591.18H1460.86M1403.48 1591.18V1533.81M1403.48 1591.18V1648.56M1460.86 1591.18H1518.24M1460.86 1591.18V1533.81M1460.86 1591.18V1648.56M1518.24 1591.18H1575.61M1518.24 1591.18V1533.81M1518.24 1591.18V1648.56M1575.61 1591.18H1632.99M1575.61 1591.18V1533.81M1575.61 1591.18V1648.56M1632.99 1591.18H1690.36M1632.99 1591.18V1533.81M1632.99 1591.18V1648.56M1690.36 1591.18H1747.74M1690.36 1591.18V1533.81M1690.36 1591.18V1648.56M1747.74 1591.18H1805.12M1747.74 1591.18V1533.81M1747.74 1591.18V1648.56M1805.12 1591.18H1813.63M1805.12 1591.18V1533.81M1805.12 1591.18V1648.56M738.731 1820.69H772.349M772.349 1820.69H829.727M772.349 1820.69V1763.31M772.349 1820.69V1878.06M829.727 1820.69H887.102M829.727 1820.69V1763.31M829.727 1820.69V1878.06M887.102 1820.69H944.478M887.102 1820.69V1763.31M887.102 1820.69V1878.06M944.478 1820.69H1001.85M944.478 1820.69V1763.31M944.478 1820.69V1878.06M1001.85 1820.69H1059.23M1001.85 1820.69V1763.31M1001.85 1820.69V1878.06M1059.23 1820.69H1116.61M1059.23 1820.69V1763.31M1059.23 1820.69V1878.06M1116.61 1820.69H1173.98M1116.61 1820.69V1763.31M1116.61 1820.69V1878.06M1173.98 1820.69H1231.36M1173.98 1820.69V1763.31M1173.98 1820.69V1878.06M1231.36 1820.69H1288.73M1231.36 1820.69V1763.31M1231.36 1820.69V1878.06M1288.73 1820.69H1346.11M1288.73 1820.69V1763.31M1288.73 1820.69V1878.06M1346.11 1820.69H1403.48M1346.11 1820.69V1763.31M1346.11 1820.69V1878.06M1403.48 1820.69H1460.86M1403.48 1820.69V1763.31M1403.48 1820.69V1878.06M1460.86 1820.69H1518.24M1460.86 1820.69V1763.31M1460.86 1820.69V1878.06M1518.24 1820.69H1575.61M1518.24 1820.69V1763.31M1518.24 1820.69V1878.06M1575.61 1820.69H1632.99M1575.61 1820.69V1763.31M1575.61 1820.69V1878.06M1632.99 1820.69H1690.36M1632.99 1820.69V1763.31M1632.99 1820.69V1878.06M1690.36 1820.69H1747.74M1690.36 1820.69V1763.31M1690.36 1820.69V1878.06M1747.74 1820.69H1805.12M1747.74 1820.69V1763.31M1747.74 1820.69V1878.06M1805.12 1820.69H1813.63M1805.12 1820.69V1763.31M1805.12 1820.69V1878.06M738.731 1361.68H772.349M772.349 1361.68H829.727M772.349 1361.68V1304.31M772.349 1361.68V1419.06M829.727 1361.68H887.102M829.727 1361.68V1304.31M829.727 1361.68V1419.06M887.102 1361.68H944.478M887.102 1361.68V1304.31M887.102 1361.68V1419.06M944.478 1361.68H1001.85M944.478 1361.68V1304.31M944.478 1361.68V1419.06M1001.85 1361.68H1059.23M1001.85 1361.68V1304.31M1001.85 1361.68V1419.06M1059.23 1361.68H1116.61M1059.23 1361.68V1304.31M1059.23 1361.68V1419.06M1116.61 1361.68H1173.98M1116.61 1361.68V1304.31M1116.61 1361.68V1419.06M1173.98 1361.68H1231.36M1173.98 1361.68L1173.98 1304.31M1173.98 1361.68V1419.06M1231.36 1361.68H1288.73M1231.36 1361.68L1231.36 1304.31M1231.36 1361.68V1419.06M1288.73 1361.68H1346.11M1288.73 1361.68V1304.31M1288.73 1361.68V1419.06M1346.11 1361.68H1403.48M1346.11 1361.68V1304.31M1346.11 1361.68V1419.06M1403.48 1361.68H1460.86M1403.48 1361.68V1304.31M1403.48 1361.68V1419.06M1460.86 1361.68H1518.24M1460.86 1361.68V1304.31M1460.86 1361.68V1419.06M1518.24 1361.68H1575.61M1518.24 1361.68V1304.31M1518.24 1361.68V1419.06M1575.61 1361.68H1632.99M1575.61 1361.68V1304.31M1575.61 1361.68V1419.06M1632.99 1361.68H1690.36M1632.99 1361.68V1304.31M1632.99 1361.68V1419.06M1690.36 1361.68H1747.74M1690.36 1361.68V1304.31M1690.36 1361.68V1419.06M1747.74 1361.68H1805.12M1747.74 1361.68V1304.31M1747.74 1361.68V1419.06M1805.12 1361.68H1813.63M1805.12 1361.68V1304.31M1805.12 1361.68V1419.06M738.731 1132.18H772.349M772.349 1132.18H829.727M772.349 1132.18V1112.01M772.349 1132.18V1189.55M829.727 1132.18H887.102M829.727 1132.18V1112.01M829.727 1132.18V1189.55M887.102 1132.18H944.478M887.102 1132.18V1112.01M887.102 1132.18V1189.55M944.478 1132.18H1001.85M944.478 1132.18V1112.01M944.478 1132.18V1189.55M1001.85 1132.18H1059.23M1001.85 1132.18V1112.01M1001.85 1132.18V1189.55M1059.23 1132.18H1116.61M1059.23 1132.18V1112.01M1059.23 1132.18V1189.55M1116.61 1132.18H1173.98M1116.61 1132.18V1112.01M1116.61 1132.18V1189.55M1173.98 1132.18H1231.36M1173.98 1132.18V1112.01M1173.98 1132.18V1189.55M1231.36 1132.18H1288.73M1231.36 1132.18V1112.01M1231.36 1132.18V1189.55M1288.73 1132.18H1346.11M1288.73 1132.18V1112.01M1288.73 1132.18V1189.55M1346.11 1132.18H1403.48M1346.11 1132.18V1112.01M1346.11 1132.18V1189.55M1403.48 1132.18H1460.86M1403.48 1132.18V1112.01M1403.48 1132.18V1189.55M1460.86 1132.18H1518.24M1460.86 1132.18V1112.01M1460.86 1132.18V1189.55M1518.24 1132.18H1575.61M1518.24 1132.18V1112.01M1518.24 1132.18V1189.55M1575.61 1132.18H1632.99M1575.61 1132.18V1112.01M1575.61 1132.18V1189.55M1632.99 1132.18H1690.36M1632.99 1132.18V1112.01M1632.99 1132.18V1189.55M1690.36 1132.18H1747.74M1690.36 1132.18V1112.01M1690.36 1132.18V1189.55M1747.74 1132.18H1805.12M1747.74 1132.18V1112.01M1747.74 1132.18V1189.55M1805.12 1132.18H1813.63M1805.12 1132.18V1112.01M1805.12 1132.18V1189.55M738.731 1935.44H772.349M772.349 1935.44H829.727M772.349 1935.44V1878.06M772.349 1935.44V1942.17M829.727 1935.44H887.102M829.727 1935.44V1878.06M829.727 1935.44V1942.17M887.102 1935.44H944.478M887.102 1935.44V1878.06M887.102 1935.44V1942.17M944.478 1935.44H1001.85M944.478 1935.44V1878.06M944.478 1935.44V1942.17M1001.85 1935.44H1059.23M1001.85 1935.44V1878.06M1001.85 1935.44V1942.17M1059.23 1935.44H1116.61M1059.23 1935.44V1878.06M1059.23 1935.44V1942.17M1116.61 1935.44H1173.98M1116.61 1935.44V1878.06M1116.61 1935.44V1942.17M1173.98 1935.44H1231.36M1173.98 1935.44V1878.06M1173.98 1935.44V1942.17M1231.36 1935.44H1288.73M1231.36 1935.44V1878.06M1231.36 1935.44V1942.17M1288.73 1935.44H1346.11M1288.73 1935.44V1878.06M1288.73 1935.44V1942.17M1346.11 1935.44H1403.48M1346.11 1935.44V1878.06M1346.11 1935.44V1942.17M1403.48 1935.44H1460.86M1403.48 1935.44V1878.06M1403.48 1935.44V1942.17M1460.86 1935.44H1518.24M1460.86 1935.44V1878.06M1460.86 1935.44V1942.17M1518.24 1935.44H1575.61M1518.24 1935.44V1878.06M1518.24 1935.44V1942.17M1575.61 1935.44H1632.99M1575.61 1935.44V1878.06M1575.61 1935.44V1942.17M1632.99 1935.44H1690.36M1632.99 1935.44V1878.06M1632.99 1935.44V1942.17M1690.36 1935.44H1747.74M1690.36 1935.44V1878.06M1690.36 1935.44V1942.17M1747.74 1935.44H1805.12M1747.74 1935.44V1878.06M1747.74 1935.44V1942.17M1805.12 1935.44H1813.63M1805.12 1935.44V1878.06M1805.12 1935.44V1942.17M738.731 1476.43H772.349M772.349 1476.43H829.727M772.349 1476.43V1419.06M772.349 1476.43V1533.81M829.727 1476.43H887.102M829.727 1476.43V1419.06M829.727 1476.43V1533.81M887.102 1476.43H944.478M887.102 1476.43V1419.06M887.102 1476.43L887.102 1533.81M944.478 1476.43H1001.85M944.478 1476.43V1419.06M944.478 1476.43V1533.81M1001.85 1476.43H1059.23M1001.85 1476.43V1419.06M1001.85 1476.43V1533.81M1059.23 1476.43H1116.61M1059.23 1476.43V1419.06M1059.23 1476.43V1533.81M1116.61 1476.43H1173.98M1116.61 1476.43V1419.06M1116.61 1476.43V1533.81M1173.98 1476.43H1231.36M1173.98 1476.43V1419.06M1173.98 1476.43V1533.81M1231.36 1476.43H1288.73M1231.36 1476.43V1419.06M1231.36 1476.43V1533.81M1288.73 1476.43H1346.11M1288.73 1476.43V1419.06M1288.73 1476.43V1533.81M1346.11 1476.43H1403.48M1346.11 1476.43V1419.06M1346.11 1476.43V1533.81M1403.48 1476.43H1460.86M1403.48 1476.43V1419.06M1403.48 1476.43V1533.81M1460.86 1476.43H1518.24M1460.86 1476.43V1419.06M1460.86 1476.43V1533.81M1518.24 1476.43H1575.61M1518.24 1476.43V1419.06M1518.24 1476.43V1533.81M1575.61 1476.43H1632.99M1575.61 1476.43V1419.06M1575.61 1476.43V1533.81M1632.99 1476.43H1690.36M1632.99 1476.43V1419.06M1632.99 1476.43V1533.81M1690.36 1476.43H1747.74M1690.36 1476.43V1419.06M1690.36 1476.43V1533.81M1747.74 1476.43H1805.12M1747.74 1476.43V1419.06M1747.74 1476.43V1533.81M1805.12 1476.43H1813.63M1805.12 1476.43V1419.06M1805.12 1476.43V1533.81M738.731 1705.93H772.349M772.349 1705.93H829.727M772.349 1705.93V1648.56M772.349 1705.93V1763.31M829.727 1705.93H887.102M829.727 1705.93V1648.56M829.727 1705.93V1763.31M887.102 1705.93H944.478M887.102 1705.93V1648.56M887.102 1705.93V1763.31M944.478 1705.93H1001.85M944.478 1705.93V1648.56M944.478 1705.93V1763.31M1001.85 1705.93H1059.23M1001.85 1705.93V1648.56M1001.85 1705.93V1763.31M1059.23 1705.93H1116.61M1059.23 1705.93V1648.56M1059.23 1705.93V1763.31M1116.61 1705.93H1173.98M1116.61 1705.93V1648.56M1116.61 1705.93V1763.31M1173.98 1705.93H1231.36M1173.98 1705.93V1648.56M1173.98 1705.93V1763.31M1231.36 1705.93H1288.73M1231.36 1705.93V1648.56M1231.36 1705.93V1763.31M1288.73 1705.93H1346.11M1288.73 1705.93V1648.56M1288.73 1705.93V1763.31M1346.11 1705.93H1403.48M1346.11 1705.93V1648.56M1346.11 1705.93V1763.31M1403.48 1705.93H1460.86M1403.48 1705.93V1648.56M1403.48 1705.93V1763.31M1460.86 1705.93H1518.24M1460.86 1705.93V1648.56M1460.86 1705.93V1763.31M1518.24 1705.93H1575.61M1518.24 1705.93V1648.56M1518.24 1705.93V1763.31M1575.61 1705.93H1632.99M1575.61 1705.93V1648.56M1575.61 1705.93V1763.31M1632.99 1705.93H1690.36M1632.99 1705.93V1648.56M1632.99 1705.93V1763.31M1690.36 1705.93H1747.74M1690.36 1705.93V1648.56M1690.36 1705.93V1763.31M1747.74 1705.93H1805.12M1747.74 1705.93V1648.56M1747.74 1705.93V1763.31M1805.12 1705.93H1813.63M1805.12 1705.93V1648.56M1805.12 1705.93V1763.31M738.731 1246.93H772.349M772.349 1246.93H829.727M772.349 1246.93V1189.55M772.349 1246.93V1304.31M829.727 1246.93H887.102M829.727 1246.93V1189.55M829.727 1246.93V1304.31M887.102 1246.93H944.478M887.102 1246.93V1189.55M887.102 1246.93V1304.31M944.478 1246.93H1001.85M944.478 1246.93V1189.55M944.478 1246.93V1304.31M1001.85 1246.93H1059.23M1001.85 1246.93V1189.55M1001.85 1246.93V1304.31M1059.23 1246.93H1116.61M1059.23 1246.93V1189.55M1059.23 1246.93V1304.31M1116.61 1246.93H1173.98M1116.61 1246.93V1189.55M1116.61 1246.93V1304.31M1173.98 1246.93H1231.36M1173.98 1246.93V1189.55M1173.98 1246.93V1304.31M1231.36 1246.93H1288.73M1231.36 1246.93V1189.55M1231.36 1246.93V1304.31M1288.73 1246.93H1346.11M1288.73 1246.93V1189.55M1288.73 1246.93V1304.31M1346.11 1246.93H1403.48M1346.11 1246.93V1189.55M1346.11 1246.93V1304.31M1403.48 1246.93H1460.86M1403.48 1246.93V1189.55M1403.48 1246.93V1304.31M1460.86 1246.93H1518.24M1460.86 1246.93V1189.55M1460.86 1246.93V1304.31M1518.24 1246.93H1575.61M1518.24 1246.93V1189.55M1518.24 1246.93V1304.31M1575.61 1246.93H1632.99M1575.61 1246.93V1189.55M1575.61 1246.93V1304.31M1632.99 1246.93H1690.36M1632.99 1246.93V1189.55M1632.99 1246.93V1304.31M1690.36 1246.93H1747.74M1690.36 1246.93V1189.55M1690.36 1246.93V1304.31M1747.74 1246.93H1805.12M1747.74 1246.93V1189.55M1747.74 1246.93V1304.31M1805.12 1246.93H1813.63M1805.12 1246.93V1189.55M1805.12 1246.93V1304.31M738.731 1533.81H772.349M772.349 1533.81H829.727M829.727 1533.81H887.102M887.102 1533.81H944.478M944.478 1533.81H1001.85M1001.85 1533.81H1059.23M1059.23 1533.81H1116.61M1116.61 1533.81H1173.98M1173.98 1533.81H1231.36M1231.36 1533.81H1288.73M1288.73 1533.81H1346.11M1346.11 1533.81H1403.48M1403.48 1533.81H1460.86M1460.86 1533.81H1518.24M1518.24 1533.81H1575.61M1575.61 1533.81H1632.99M1632.99 1533.81H1690.36M1690.36 1533.81H1747.74M1747.74 1533.81H1805.12M1805.12 1533.81H1813.63M738.731 1763.31H772.349M772.349 1763.31H829.727M829.727 1763.31H887.102M887.102 1763.31H944.478M944.478 1763.31H1001.85M1001.85 1763.31H1059.23M1059.23 1763.31H1116.61M1116.61 1763.31H1173.98M1173.98 1763.31H1231.36M1231.36 1763.31H1288.73M1288.73 1763.31H1346.11M1346.11 1763.31H1403.48M1403.48 1763.31H1460.86M1460.86 1763.31H1518.24M1518.24 1763.31H1575.61M1575.61 1763.31H1632.99M1632.99 1763.31H1690.36M1690.36 1763.31H1747.74M1747.74 1763.31H1805.12M1805.12 1763.31H1813.63M738.731 1304.31H772.349M772.349 1304.31H829.727M829.727 1304.31H887.102M887.102 1304.31H944.478M944.478 1304.31H1001.85M1001.85 1304.31H1059.23M1059.23 1304.31H1116.61M1116.61 1304.31H1173.98M1173.98 1304.31H1231.36M1231.36 1304.31H1288.73M1288.73 1304.31H1346.11M1346.11 1304.31H1403.48M1403.48 1304.31H1460.86M1460.86 1304.31H1518.24M1518.24 1304.31H1575.61M1575.61 1304.31H1632.99M1632.99 1304.31H1690.36M1690.36 1304.31H1747.74M1747.74 1304.31H1805.12M1805.12 1304.31H1813.63M738.731 1878.06H772.349M772.349 1878.06H829.727M829.727 1878.06H887.102M887.102 1878.06H944.478M944.478 1878.06H1001.85M1001.85 1878.06H1059.23M1059.23 1878.06H1116.61M1116.61 1878.06H1173.98M1173.98 1878.06H1231.36M1231.36 1878.06H1288.73M1288.73 1878.06H1346.11M1346.11 1878.06H1403.48M1403.48 1878.06H1460.86M1460.86 1878.06H1518.24M1518.24 1878.06H1575.61M1575.61 1878.06H1632.99M1632.99 1878.06H1690.36M1690.36 1878.06H1747.74M1747.74 1878.06H1805.12M1805.12 1878.06H1813.63M738.731 1419.06H772.349M772.349 1419.06H829.727M829.727 1419.06H887.102M887.102 1419.06H944.478M944.478 1419.06H1001.85M1001.85 1419.06H1059.23M1059.23 1419.06H1116.61M1116.61 1419.06H1173.98M1173.98 1419.06H1231.36M1231.36 1419.06H1288.73M1288.73 1419.06H1346.11M1346.11 1419.06H1403.48M1403.48 1419.06H1460.86M1460.86 1419.06H1518.24M1518.24 1419.06H1575.61M1575.61 1419.06H1632.99M1632.99 1419.06H1690.36M1690.36 1419.06H1747.74M1747.74 1419.06H1805.12M1805.12 1419.06H1813.63M738.731 1648.56H772.349M772.349 1648.56H829.727M829.727 1648.56H887.102M887.102 1648.56H944.478M944.478 1648.56H1001.85M1001.85 1648.56H1059.23M1059.23 1648.56H1116.61M1116.61 1648.56H1173.98M1173.98 1648.56H1231.36M1231.36 1648.56H1288.73M1288.73 1648.56H1346.11M1346.11 1648.56H1403.48M1403.48 1648.56H1460.86M1460.86 1648.56H1518.24M1518.24 1648.56H1575.61M1575.61 1648.56H1632.99M1632.99 1648.56H1690.36M1690.36 1648.56H1747.74M1747.74 1648.56H1805.12M1805.12 1648.56H1813.63M738.731 1189.55H772.349M772.349 1189.55H829.727M829.727 1189.55H887.102M887.102 1189.55H944.478M944.478 1189.55H1001.85M1001.85 1189.55H1059.23M1059.23 1189.55H1116.61M1116.61 1189.55H1173.98M1173.98 1189.55H1231.36M1231.36 1189.55H1288.73M1288.73 1189.55H1346.11M1346.11 1189.55H1403.48M1403.48 1189.55H1460.86M1460.86 1189.55H1518.24M1518.24 1189.55H1575.61M1575.61 1189.55H1632.99M1632.99 1189.55H1690.36M1690.36 1189.55H1747.74M1747.74 1189.55H1805.12M1805.12 1189.55H1813.63" stroke="white" stroke-width="0.896496"/>
<defs>
<filter id="filter0_f_2034_1331" x="-495.896" y="865.6" width="852.248" height="813.077" filterUnits="userSpaceOnUse" color-interpolation-filters="sRGB">
<feFlood flood-opacity="0" result="BackgroundImageFix"/>
<feBlend mode="normal" in="SourceGraphic" in2="BackgroundImageFix" result="shape"/>
<feGaussianBlur stdDeviation="82" result="effect1_foregroundBlur_2034_1331"/>
</filter>
<filter id="filter1_f_2034_1331" x="1226.78" y="283.881" width="826.092" height="822.651" filterUnits="userSpaceOnUse" color-interpolation-filters="sRGB">
<feFlood flood-opacity="0" result="BackgroundImageFix"/>
<feBlend mode="normal" in="SourceGraphic" in2="BackgroundImageFix" result="shape"/>
<feGaussianBlur stdDeviation="82" result="effect1_foregroundBlur_2034_1331"/>
</filter>
<linearGradient id="paint0_linear_2034_1331" x1="-49.5541" y1="1510.44" x2="-54.0139" y2="1002.99" gradientUnits="userSpaceOnUse">
<stop stop-color="#FFD700"/>
<stop offset="0.33" stop-color="#66CCFF"/>
<stop offset="1" stop-color="#003366"/>
</linearGradient>
<linearGradient id="paint1_linear_2034_1331" x1="1434.14" y1="844.616" x2="1865.65" y2="577.53" gradientUnits="userSpaceOnUse">
<stop stop-color="#FFD700"/>
<stop offset="0.33" stop-color="#66CCFF"/>
<stop offset="1" stop-color="#003366"/>
</linearGradient>
</defs>
</svg>
