<svg preserveAspectRatio="none" width="100%" height="100%" overflow="visible" style="display: block;" viewBox="0 0 566 400" fill="none" xmlns="http://www.w3.org/2000/svg">
<path id="Vector" d="M565.983 183.113V216.887C465.096 216.887 383.038 299.029 383.038 400H349.293C349.293 353.547 331.812 311.193 303.227 278.885C312.101 271.787 321.757 265.639 332.062 260.607C346.029 277.219 357.583 295.93 366.14 316.208C388.099 263.923 429.969 222.002 482.194 199.992C430.002 177.998 388.149 136.11 366.174 83.8755C333.344 161.936 256.147 216.887 166.347 216.887V183.113C267.234 183.113 349.309 100.971 349.309 0H383.055C383.055 100.971 465.13 183.113 566 183.113H565.983ZM399.636 183.113C309.837 183.113 232.64 238.064 199.81 316.124C177.834 263.873 135.981 222.002 83.7896 200.008C136.014 177.998 177.884 136.077 199.86 83.7922C208.417 104.07 219.954 122.781 233.938 139.393C244.243 134.361 253.899 128.213 262.773 121.115C234.188 88.8074 216.708 46.4531 216.708 0H182.962C182.962 100.971 100.887 183.113 0 183.113V216.887C100.887 216.887 182.962 299.029 182.962 400H216.708C216.708 299.029 298.782 216.887 399.653 216.887V183.113H399.636Z" fill="url(#paint0_linear_0_23)"/>
<defs>
<linearGradient id="paint0_linear_0_23" x1="-0.016648" y1="199.992" x2="565.983" y2="199.992" gradientUnits="userSpaceOnUse">
<stop stop-color="#73C8F0"/>
<stop offset="0.3" stop-color="#9ECCA4"/>
<stop offset="0.79" stop-color="#E1D42F"/>
<stop offset="1" stop-color="#FDD700"/>
</linearGradient>
</defs>
</svg>
