<svg width="1440" height="1159" viewBox="0 0 1440 1159" fill="none" xmlns="http://www.w3.org/2000/svg">
<rect width="1440" height="536" transform="translate(0 74)" fill="white"/>
<g filter="url(#filter0_f_2_704)">
<path d="M1482.41 225.683C1608.3 194.118 1810.24 286.833 1841.8 412.122C1873.36 537.412 1816.07 652.546 1690.18 684.111C1564.29 715.676 1395.35 679.526 1363.79 554.236C1332.24 428.947 1356.52 257.248 1482.41 225.683Z" fill="url(#paint0_linear_2_704)"/>
</g>
<g clip-path="url(#clip0_2_704)">
<path d="M-42.8989 336.974H-9.28148M-9.28148 336.974H48.0963M-9.28148 336.974L-9.28148 279.598M-9.28148 336.974V394.35M48.0963 336.974H105.471M48.0963 336.974V279.598M48.0963 336.974L48.0963 394.35M105.471 336.974H162.848M105.471 336.974V279.598M105.471 336.974V394.35M162.848 336.974H220.223M162.848 336.974V279.598M162.848 336.974V394.35M220.223 336.974H277.598M220.223 336.974V279.598M220.223 336.974V394.35M277.598 336.974H334.976M277.598 336.974V279.598M277.598 336.974V394.35M334.976 336.974H392.349M334.976 336.974V279.598M334.976 336.974V394.35M392.349 336.974H449.727M392.349 336.974V279.598M392.349 336.974V394.35M449.727 336.974H507.102M449.727 336.974V279.598M449.727 336.974V394.35M507.102 336.974H564.476M507.102 336.974V279.598M507.102 336.974V394.35M564.476 336.974H621.853M564.476 336.974V279.598M564.476 336.974V394.35M621.853 336.974H679.228M621.853 336.974V279.598M621.853 336.974V394.35M679.228 336.974H736.606M679.228 336.974V279.598M679.228 336.974V394.35M736.606 336.974H793.981M736.606 336.974V279.598M736.606 336.974V394.35M793.981 336.974H851.355M793.981 336.974V279.598M793.981 336.974V394.35M851.355 336.974H908.733M851.355 336.974V279.598M851.355 336.974V394.35M908.733 336.974H966.108M908.733 336.974V279.598M908.733 336.974V394.35M966.108 336.974H1023.49M966.108 336.974V279.598M966.108 336.974V394.35M1023.49 336.974H1032M1023.49 336.974V279.598M1023.49 336.974V394.35M-42.8989 566.478H-9.28149M-9.28149 566.478H48.0963M-9.28149 566.478L-9.28149 509.101M-9.28149 566.478V623.853M48.0963 566.478H105.471M48.0963 566.478V509.101M48.0963 566.478L48.0963 623.853M105.471 566.478H162.848M105.471 566.478L105.471 509.101M105.471 566.478V623.853M162.848 566.478H220.223M162.848 566.478V509.101M162.848 566.478V623.853M220.223 566.478H277.598M220.223 566.478V509.101M220.223 566.478V623.853M277.598 566.478H334.976M277.598 566.478V509.101M277.598 566.478V623.853M334.976 566.478H392.349M334.976 566.478V509.101M334.976 566.478V623.853M392.349 566.478H449.727M392.349 566.478V509.101M392.349 566.478V623.853M449.727 566.478H507.102M449.727 566.478V509.101M449.727 566.478V623.853M507.102 566.478H564.476M507.102 566.478V509.101M507.102 566.478V623.853M564.476 566.478H621.853M564.476 566.478V509.101M564.476 566.478V623.853M621.853 566.478H679.228M621.853 566.478V509.101M621.853 566.478V623.853M679.228 566.478H736.606M679.228 566.478V509.101M679.228 566.478V623.853M736.606 566.478H793.981M736.606 566.478V509.101M736.606 566.478V623.853M793.981 566.478H851.355M793.981 566.478V509.101M793.981 566.478V623.853M851.355 566.478H908.733M851.355 566.478V509.101M851.355 566.478V623.853M908.733 566.478H966.108M908.733 566.478V509.101M908.733 566.478V623.853M966.108 566.478H1023.49M966.108 566.478V509.101M966.108 566.478V623.853M1023.49 566.478H1032M1023.49 566.478V509.101M1023.49 566.478V623.853M-42.8989 107.471H-9.28147M-9.28147 107.471H48.0963M-9.28147 107.471L-9.28146 50.0947M-9.28147 107.471L-9.28147 164.846M48.0963 107.471H105.471M48.0963 107.471V50.0947M48.0963 107.471V164.846M105.471 107.471H162.848M105.471 107.471V50.0947M105.471 107.471V164.846M162.848 107.471H220.223M162.848 107.471L162.848 50.0947M162.848 107.471V164.846M220.223 107.471H277.598M220.223 107.471V50.0947M220.223 107.471V164.846M277.598 107.471H334.976M277.598 107.471L277.598 50.0947M277.598 107.471V164.846M334.976 107.471H392.349M334.976 107.471L334.976 50.0947M334.976 107.471V164.846M392.349 107.471H449.727M392.349 107.471L392.349 50.0947M392.349 107.471V164.846M449.727 107.471H507.102M449.727 107.471L449.727 50.0947M449.727 107.471V164.846M507.102 107.471H564.476M507.102 107.471V50.0947M507.102 107.471V164.846M564.476 107.471H621.853M564.476 107.471V50.0947M564.476 107.471V164.846M621.853 107.471H679.228M621.853 107.471V50.0947M621.853 107.471V164.846M679.228 107.471H736.606M679.228 107.471V50.0947M679.228 107.471V164.846M736.606 107.471H793.981M736.606 107.471V50.0947M736.606 107.471V164.846M793.981 107.471H851.355M793.981 107.471V50.0947M793.981 107.471V164.846M851.355 107.471H908.733M851.355 107.471V50.0947M851.355 107.471V164.846M908.733 107.471H966.108M908.733 107.471V50.0947M908.733 107.471V164.846M966.108 107.471H1023.49M966.108 107.471V50.0947M966.108 107.471V164.846M1023.49 107.471H1032M1023.49 107.471V50.0947M1023.49 107.471V164.846M-42.8989 -122.033H-9.28146M-9.28146 -122.033H48.0963M-9.28146 -122.033V-142.201M-9.28146 -122.033L-9.28146 -64.6572M48.0963 -122.033H105.471M48.0963 -122.033V-142.201M48.0963 -122.033V-64.6572M105.471 -122.033H162.848M105.471 -122.033V-142.201M105.471 -122.033V-64.6572M162.848 -122.033H220.223M162.848 -122.033V-142.201M162.848 -122.033V-64.6572M220.223 -122.033H277.598M220.223 -122.033V-142.201M220.223 -122.033V-64.6572M277.598 -122.033H334.976M277.598 -122.033V-142.201M277.598 -122.033V-64.6572M334.976 -122.033H392.349M334.976 -122.033V-142.201M334.976 -122.033V-64.6572M392.349 -122.033H449.727M392.349 -122.033V-142.201M392.349 -122.033V-64.6572M449.727 -122.033H507.102M449.727 -122.033V-142.201M449.727 -122.033V-64.6572M507.102 -122.033H564.476M507.102 -122.033V-142.201M507.102 -122.033V-64.6572M564.476 -122.033H621.853M564.476 -122.033V-142.201M564.476 -122.033V-64.6572M621.853 -122.033H679.228M621.853 -122.033V-142.201M621.853 -122.033V-64.6572M679.228 -122.033H736.606M679.228 -122.033V-142.201M679.228 -122.033V-64.6572M736.606 -122.033H793.981M736.606 -122.033V-142.201M736.606 -122.033V-64.6572M793.981 -122.033H851.355M793.981 -122.033V-142.201M793.981 -122.033V-64.6572M851.355 -122.033H908.733M851.355 -122.033V-142.201M851.355 -122.033V-64.6572M908.733 -122.033H966.108M908.733 -122.033V-142.201M908.733 -122.033V-64.6572M966.108 -122.033H1023.49M966.108 -122.033V-142.201M966.108 -122.033V-64.6572M1023.49 -122.033H1032M1023.49 -122.033V-142.201M1023.49 -122.033V-64.6572M-42.8989 681.228H-9.28149M-9.28149 681.228H48.0963M-9.28149 681.228L-9.28149 623.853M-9.28149 681.228V687.954M48.0963 681.228H105.471M48.0963 681.228V623.853M48.0963 681.228V687.954M105.471 681.228H162.848M105.471 681.228V623.853M105.471 681.228V687.954M162.848 681.228H220.223M162.848 681.228V623.853M162.848 681.228V687.954M220.223 681.228H277.598M220.223 681.228V623.853M220.223 681.228V687.954M277.598 681.228H334.976M277.598 681.228V623.853M277.598 681.228V687.954M334.976 681.228H392.349M334.976 681.228V623.853M334.976 681.228V687.954M392.349 681.228H449.727M392.349 681.228V623.853M392.349 681.228V687.954M449.727 681.228H507.102M449.727 681.228V623.853M449.727 681.228V687.954M507.102 681.228H564.476M507.102 681.228V623.853M507.102 681.228V687.954M564.476 681.228H621.853M564.476 681.228V623.853M564.476 681.228V687.954M621.853 681.228H679.228M621.853 681.228V623.853M621.853 681.228V687.954M679.228 681.228H736.606M679.228 681.228V623.853M679.228 681.228V687.954M736.606 681.228H793.981M736.606 681.228V623.853M736.606 681.228V687.954M793.981 681.228H851.355M793.981 681.228V623.853M793.981 681.228V687.954M851.355 681.228H908.733M851.355 681.228V623.853M851.355 681.228V687.954M908.733 681.228H966.108M908.733 681.228V623.853M908.733 681.228V687.954M966.108 681.228H1023.49M966.108 681.228V623.853M966.108 681.228V687.954M1023.49 681.228H1032M1023.49 681.228V623.853M1023.49 681.228V687.954M-42.8989 222.221H-9.28147M-9.28147 222.221H48.0963M-9.28147 222.221V164.846M-9.28147 222.221L-9.28148 279.598M48.0963 222.221H105.471M48.0963 222.221L48.0963 164.846M48.0963 222.221V279.598M105.471 222.221H162.848M105.471 222.221V164.846M105.471 222.221L105.471 279.598M162.848 222.221H220.223M162.848 222.221V164.846M162.848 222.221V279.598M220.223 222.221H277.598M220.223 222.221V164.846M220.223 222.221L220.223 279.598M277.598 222.221H334.976M277.598 222.221V164.846M277.598 222.221V279.598M334.976 222.221H392.349M334.976 222.221V164.846M334.976 222.221V279.598M392.349 222.221H449.727M392.349 222.221V164.846M392.349 222.221V279.598M449.727 222.221H507.102M449.727 222.221V164.846M449.727 222.221V279.598M507.102 222.221H564.476M507.102 222.221V164.846M507.102 222.221V279.598M564.476 222.221H621.853M564.476 222.221V164.846M564.476 222.221V279.598M621.853 222.221H679.228M621.853 222.221V164.846M621.853 222.221V279.598M679.228 222.221H736.606M679.228 222.221V164.846M679.228 222.221V279.598M736.606 222.221H793.981M736.606 222.221V164.846M736.606 222.221V279.598M793.981 222.221H851.355M793.981 222.221V164.846M793.981 222.221V279.598M851.355 222.221H908.733M851.355 222.221V164.846M851.355 222.221V279.598M908.733 222.221H966.108M908.733 222.221V164.846M908.733 222.221V279.598M966.108 222.221H1023.49M966.108 222.221V164.846M966.108 222.221V279.598M1023.49 222.221H1032M1023.49 222.221V164.846M1023.49 222.221L1023.49 279.598M-42.8989 451.724H-9.28148M-9.28148 451.724H48.0963M-9.28148 451.724L-9.28148 394.35M-9.28148 451.724L-9.28149 509.101M48.0963 451.724H105.471M48.0963 451.724V394.35M48.0963 451.724V509.101M105.471 451.724H162.848M105.471 451.724V394.35M105.471 451.724V509.101M162.848 451.724H220.223M162.848 451.724V394.35M162.848 451.724L162.848 509.101M220.223 451.724H277.598M220.223 451.724V394.35M220.223 451.724V509.101M277.598 451.724H334.976M277.598 451.724V394.35M277.598 451.724L277.598 509.101M334.976 451.724H392.349M334.976 451.724V394.35M334.976 451.724L334.976 509.101M392.349 451.724H449.727M392.349 451.724V394.35M392.349 451.724L392.349 509.101M449.727 451.724H507.102M449.727 451.724V394.35M449.727 451.724L449.727 509.101M507.102 451.724H564.476M507.102 451.724V394.35M507.102 451.724V509.101M564.476 451.724H621.853M564.476 451.724V394.35M564.476 451.724V509.101M621.853 451.724H679.228M621.853 451.724V394.35M621.853 451.724V509.101M679.228 451.724H736.606M679.228 451.724V394.35M679.228 451.724V509.101M736.606 451.724H793.981M736.606 451.724V394.35M736.606 451.724V509.101M793.981 451.724H851.355M793.981 451.724V394.35M793.981 451.724V509.101M851.355 451.724H908.733M851.355 451.724V394.35M851.355 451.724V509.101M908.733 451.724H966.108M908.733 451.724V394.35M908.733 451.724V509.101M966.108 451.724H1023.49M966.108 451.724V394.35M966.108 451.724V509.101M1023.49 451.724H1032M1023.49 451.724V394.35M1023.49 451.724V509.101M-42.8989 -7.28027H-9.28146M-9.28146 -7.28027H48.0963M-9.28146 -7.28027L-9.28146 -64.6572M-9.28146 -7.28027V50.0947M48.0963 -7.28027H105.471M48.0963 -7.28027L48.0963 -64.6572M48.0963 -7.28027V50.0947M105.471 -7.28027H162.848M105.471 -7.28027V-64.6572M105.471 -7.28027L105.471 50.0947M162.848 -7.28027H220.223M162.848 -7.28027V-64.6572M162.848 -7.28027V50.0947M220.223 -7.28027H277.598M220.223 -7.28027V-64.6572M220.223 -7.28027V50.0947M277.598 -7.28027H334.976M277.598 -7.28027V-64.6572M277.598 -7.28027V50.0947M334.976 -7.28027H392.349M334.976 -7.28027V-64.6572M334.976 -7.28027V50.0947M392.349 -7.28027H449.727M392.349 -7.28027V-64.6572M392.349 -7.28027V50.0947M449.727 -7.28027H507.102M449.727 -7.28027V-64.6572M449.727 -7.28027V50.0947M507.102 -7.28027H564.476M507.102 -7.28027V-64.6572M507.102 -7.28027V50.0947M564.476 -7.28027H621.853M564.476 -7.28027V-64.6572M564.476 -7.28027V50.0947M621.853 -7.28027H679.228M621.853 -7.28027V-64.6572M621.853 -7.28027V50.0947M679.228 -7.28027H736.606M679.228 -7.28027V-64.6572M679.228 -7.28027V50.0947M736.606 -7.28027H793.981M736.606 -7.28027V-64.6572M736.606 -7.28027V50.0947M793.981 -7.28027H851.355M793.981 -7.28027V-64.6572M793.981 -7.28027V50.0947M851.355 -7.28027H908.733M851.355 -7.28027V-64.6572M851.355 -7.28027V50.0947M908.733 -7.28027H966.108M908.733 -7.28027V-64.6572M908.733 -7.28027V50.0947M966.108 -7.28027H1023.49M966.108 -7.28027V-64.6572M966.108 -7.28027V50.0947M1023.49 -7.28027H1032M1023.49 -7.28027V-64.6572M1023.49 -7.28027V50.0947M-42.8989 279.598H-9.28148M-9.28148 279.598H48.0963M48.0963 279.598H105.471M105.471 279.598H162.848M162.848 279.598H220.223M220.223 279.598H277.598M277.598 279.598H334.976M334.976 279.598H392.349M392.349 279.598H449.727M449.727 279.598H507.102M507.102 279.598H564.476M564.476 279.598H621.853M621.853 279.598H679.228M679.228 279.598H736.606M736.606 279.598H793.981M793.981 279.598H851.355M851.355 279.598H908.733M908.733 279.598H966.108M966.108 279.598H1023.49M1023.49 279.598H1032M-42.8989 509.101H-9.28149M-9.28149 509.101H48.0963M48.0963 509.101H105.471M105.471 509.101H162.848M162.848 509.101H220.223M220.223 509.101H277.598M277.598 509.101H334.976M334.976 509.101H392.349M392.349 509.101H449.727M449.727 509.101H507.102M507.102 509.101H564.476M564.476 509.101H621.853M621.853 509.101H679.228M679.228 509.101H736.606M736.606 509.101H793.981M793.981 509.101H851.355M851.355 509.101H908.733M908.733 509.101H966.108M966.108 509.101H1023.49M1023.49 509.101H1032M-42.8989 50.0947H-9.28146M-9.28146 50.0947H48.0963M48.0963 50.0947H105.471M105.471 50.0947H162.848M162.848 50.0947H220.223M220.223 50.0947H277.598M277.598 50.0947H334.976M334.976 50.0947H392.349M392.349 50.0947H449.727M449.727 50.0947H507.102M507.102 50.0947H564.476M564.476 50.0947H621.853M621.853 50.0947H679.228M679.228 50.0947H736.606M736.606 50.0947H793.981M793.981 50.0947H851.355M851.355 50.0947H908.733M908.733 50.0947H966.108M966.108 50.0947H1023.49M1023.49 50.0947H1032M-42.8989 623.853H-9.28149M-9.28149 623.853H48.0963M48.0963 623.853H105.471M105.471 623.853H162.848M162.848 623.853H220.223M220.223 623.853H277.598M277.598 623.853H334.976M334.976 623.853H392.349M392.349 623.853H449.727M449.727 623.853H507.102M507.102 623.853H564.476M564.476 623.853H621.853M621.853 623.853H679.228M679.228 623.853H736.606M736.606 623.853H793.981M793.981 623.853H851.355M851.355 623.853H908.733M908.733 623.853H966.108M966.108 623.853H1023.49M1023.49 623.853H1032M-42.8989 164.846H-9.28147M-9.28147 164.846H48.0963M48.0963 164.846H105.471M105.471 164.846H162.848M162.848 164.846H220.223M220.223 164.846H277.598M277.598 164.846H334.976M334.976 164.846H392.349M392.349 164.846H449.727M449.727 164.846H507.102M507.102 164.846H564.476M564.476 164.846H621.853M621.853 164.846H679.228M679.228 164.846H736.606M736.606 164.846H793.981M793.981 164.846H851.355M851.355 164.846H908.733M908.733 164.846H966.108M966.108 164.846H1023.49M1023.49 164.846H1032M-42.8989 394.35H-9.28148M-9.28148 394.35H48.0963M48.0963 394.35H105.471M105.471 394.35H162.848M162.848 394.35H220.223M220.223 394.35H277.598M277.598 394.35H334.976M334.976 394.35H392.349M392.349 394.35H449.727M449.727 394.35H507.102M507.102 394.35H564.476M564.476 394.35H621.853M621.853 394.35H679.228M679.228 394.35H736.606M736.606 394.35H793.981M793.981 394.35H851.355M851.355 394.35H908.733M908.733 394.35H966.108M966.108 394.35H1023.49M1023.49 394.35H1032M-42.8989 -64.6572H-9.28146M-9.28146 -64.6572H48.0963M48.0963 -64.6572H105.471M105.471 -64.6572H162.848M162.848 -64.6572H220.223M220.223 -64.6572H277.598M277.598 -64.6572H334.976M334.976 -64.6572H392.349M392.349 -64.6572H449.727M449.727 -64.6572H507.102M507.102 -64.6572H564.476M564.476 -64.6572H621.853M621.853 -64.6572H679.228M679.228 -64.6572H736.606M736.606 -64.6572H793.981M793.981 -64.6572H851.355M851.355 -64.6572H908.733M908.733 -64.6572H966.108M966.108 -64.6572H1023.49M1023.49 -64.6572H1032M990 336.974H1023.62M1023.62 336.974H1081M1023.62 336.974V279.598M1023.62 336.974V394.35M1081 336.974H1138.37M1081 336.974V279.598M1081 336.974V394.35M1138.37 336.974H1195.75M1138.37 336.974V279.598M1138.37 336.974V394.35M1195.75 336.974H1253.12M1195.75 336.974V279.598M1195.75 336.974V394.35M1253.12 336.974H1310.5M1253.12 336.974V279.598M1253.12 336.974V394.35M1310.5 336.974H1367.87M1310.5 336.974V279.598M1310.5 336.974V394.35M1367.87 336.974H1425.25M1367.87 336.974V279.598M1367.87 336.974V394.35M1425.25 336.974H1482.63M1425.25 336.974V279.598M1425.25 336.974V394.35M1482.63 336.974H1540M1482.63 336.974V279.598M1482.63 336.974V394.35M1540 336.974H1597.37M1540 336.974V279.598M1540 336.974V394.35M1597.37 336.974H1654.75M1597.37 336.974V279.598M1597.37 336.974V394.35M1654.75 336.974H1712.13M1654.75 336.974V279.598M1654.75 336.974V394.35M1712.13 336.974H1769.5M1712.13 336.974V279.598M1712.13 336.974V394.35M1769.5 336.974H1826.88M1769.5 336.974V279.598M1769.5 336.974V394.35M1826.88 336.974H1884.25M1826.88 336.974V279.598M1826.88 336.974V394.35M1884.25 336.974H1941.63M1884.25 336.974V279.598M1884.25 336.974V394.35M1941.63 336.974H1999.01M1941.63 336.974V279.598M1941.63 336.974V394.35M1999.01 336.974H2056.38M1999.01 336.974V279.598M1999.01 336.974V394.35M2056.38 336.974H2064.9M2056.38 336.974V279.598M2056.38 336.974V394.35M990 566.478H1023.62M1023.62 566.478H1081M1023.62 566.478V509.101M1023.62 566.478V623.853M1081 566.478H1138.37M1081 566.478V509.101M1081 566.478V623.853M1138.37 566.478H1195.75M1138.37 566.478V509.101M1138.37 566.478V623.853M1195.75 566.478H1253.12M1195.75 566.478V509.101M1195.75 566.478V623.853M1253.12 566.478H1310.5M1253.12 566.478V509.101M1253.12 566.478V623.853M1310.5 566.478H1367.87M1310.5 566.478V509.101M1310.5 566.478V623.853M1367.87 566.478H1425.25M1367.87 566.478V509.101M1367.87 566.478V623.853M1425.25 566.478H1482.63M1425.25 566.478V509.101M1425.25 566.478V623.853M1482.63 566.478H1540M1482.63 566.478V509.101M1482.63 566.478V623.853M1540 566.478H1597.37M1540 566.478V509.101M1540 566.478V623.853M1597.37 566.478H1654.75M1597.37 566.478V509.101M1597.37 566.478V623.853M1654.75 566.478H1712.13M1654.75 566.478V509.101M1654.75 566.478V623.853M1712.13 566.478H1769.5M1712.13 566.478V509.101M1712.13 566.478V623.853M1769.5 566.478H1826.88M1769.5 566.478V509.101M1769.5 566.478V623.853M1826.88 566.478H1884.25M1826.88 566.478V509.101M1826.88 566.478V623.853M1884.25 566.478H1941.63M1884.25 566.478V509.101M1884.25 566.478V623.853M1941.63 566.478H1999.01M1941.63 566.478V509.101M1941.63 566.478V623.853M1999.01 566.478H2056.38M1999.01 566.478V509.101M1999.01 566.478V623.853M2056.38 566.478H2064.9M2056.38 566.478V509.101M2056.38 566.478V623.853M990 107.471H1023.62M1023.62 107.471H1081M1023.62 107.471V50.0952M1023.62 107.471V164.846M1081 107.471H1138.37M1081 107.471V50.0952M1081 107.471V164.846M1138.37 107.471H1195.75M1138.37 107.471V50.0952M1138.37 107.471V164.846M1195.75 107.471H1253.12M1195.75 107.471V50.0952M1195.75 107.471V164.846M1253.12 107.471H1310.5M1253.12 107.471V50.0952M1253.12 107.471V164.846M1310.5 107.471H1367.87M1310.5 107.471V50.0952M1310.5 107.471V164.846M1367.87 107.471H1425.25M1367.87 107.471V50.0952M1367.87 107.471V164.846M1425.25 107.471H1482.63M1425.25 107.471L1425.25 50.0952M1425.25 107.471V164.846M1482.63 107.471H1540M1482.63 107.471L1482.63 50.0952M1482.63 107.471V164.846M1540 107.471H1597.37M1540 107.471V50.0952M1540 107.471V164.846M1597.37 107.471H1654.75M1597.37 107.471V50.0952M1597.37 107.471V164.846M1654.75 107.471H1712.13M1654.75 107.471V50.0952M1654.75 107.471V164.846M1712.13 107.471H1769.5M1712.13 107.471V50.0952M1712.13 107.471V164.846M1769.5 107.471H1826.88M1769.5 107.471V50.0952M1769.5 107.471V164.846M1826.88 107.471H1884.25M1826.88 107.471V50.0952M1826.88 107.471V164.846M1884.25 107.471H1941.63M1884.25 107.471V50.0952M1884.25 107.471V164.846M1941.63 107.471H1999.01M1941.63 107.471V50.0952M1941.63 107.471V164.846M1999.01 107.471H2056.38M1999.01 107.471V50.0952M1999.01 107.471V164.846M2056.38 107.471H2064.9M2056.38 107.471V50.0952M2056.38 107.471V164.846M990 -122.033H1023.62M1023.62 -122.033H1081M1023.62 -122.033V-142.201M1023.62 -122.033V-64.6567M1081 -122.033H1138.37M1081 -122.033V-142.201M1081 -122.033V-64.6567M1138.37 -122.033H1195.75M1138.37 -122.033V-142.201M1138.37 -122.033V-64.6567M1195.75 -122.033H1253.12M1195.75 -122.033V-142.201M1195.75 -122.033V-64.6567M1253.12 -122.033H1310.5M1253.12 -122.033V-142.201M1253.12 -122.033V-64.6567M1310.5 -122.033H1367.87M1310.5 -122.033V-142.201M1310.5 -122.033V-64.6567M1367.87 -122.033H1425.25M1367.87 -122.033V-142.201M1367.87 -122.033V-64.6567M1425.25 -122.033H1482.63M1425.25 -122.033V-142.201M1425.25 -122.033V-64.6567M1482.63 -122.033H1540M1482.63 -122.033V-142.201M1482.63 -122.033V-64.6567M1540 -122.033H1597.37M1540 -122.033V-142.201M1540 -122.033V-64.6567M1597.37 -122.033H1654.75M1597.37 -122.033V-142.201M1597.37 -122.033V-64.6567M1654.75 -122.033H1712.13M1654.75 -122.033V-142.201M1654.75 -122.033V-64.6567M1712.13 -122.033H1769.5M1712.13 -122.033V-142.201M1712.13 -122.033V-64.6567M1769.5 -122.033H1826.88M1769.5 -122.033V-142.201M1769.5 -122.033V-64.6567M1826.88 -122.033H1884.25M1826.88 -122.033V-142.201M1826.88 -122.033V-64.6567M1884.25 -122.033H1941.63M1884.25 -122.033V-142.201M1884.25 -122.033V-64.6567M1941.63 -122.033H1999.01M1941.63 -122.033V-142.201M1941.63 -122.033V-64.6567M1999.01 -122.033H2056.38M1999.01 -122.033V-142.201M1999.01 -122.033V-64.6567M2056.38 -122.033H2064.9M2056.38 -122.033V-142.201M2056.38 -122.033V-64.6567M990 681.229H1023.62M1023.62 681.229H1081M1023.62 681.229V623.853M1023.62 681.229V687.954M1081 681.229H1138.37M1081 681.229V623.853M1081 681.229V687.954M1138.37 681.229H1195.75M1138.37 681.229V623.853M1138.37 681.229V687.954M1195.75 681.229H1253.12M1195.75 681.229V623.853M1195.75 681.229V687.954M1253.12 681.229H1310.5M1253.12 681.229V623.853M1253.12 681.229V687.954M1310.5 681.229H1367.87M1310.5 681.229V623.853M1310.5 681.229V687.954M1367.87 681.229H1425.25M1367.87 681.229V623.853M1367.87 681.229V687.954M1425.25 681.229H1482.63M1425.25 681.229V623.853M1425.25 681.229V687.954M1482.63 681.229H1540M1482.63 681.229V623.853M1482.63 681.229V687.954M1540 681.229H1597.37M1540 681.229V623.853M1540 681.229V687.954M1597.37 681.229H1654.75M1597.37 681.229V623.853M1597.37 681.229V687.954M1654.75 681.229H1712.13M1654.75 681.229V623.853M1654.75 681.229V687.954M1712.13 681.229H1769.5M1712.13 681.229V623.853M1712.13 681.229V687.954M1769.5 681.229H1826.88M1769.5 681.229V623.853M1769.5 681.229V687.954M1826.88 681.229H1884.25M1826.88 681.229V623.853M1826.88 681.229V687.954M1884.25 681.229H1941.63M1884.25 681.229V623.853M1884.25 681.229V687.954M1941.63 681.229H1999.01M1941.63 681.229V623.853M1941.63 681.229V687.954M1999.01 681.229H2056.38M1999.01 681.229V623.853M1999.01 681.229V687.954M2056.38 681.229H2064.9M2056.38 681.229V623.853M2056.38 681.229V687.954M990 222.221H1023.62M1023.62 222.221H1081M1023.62 222.221V164.846M1023.62 222.221V279.598M1081 222.221H1138.37M1081 222.221V164.846M1081 222.221V279.598M1138.37 222.221H1195.75M1138.37 222.221V164.846M1138.37 222.221L1138.37 279.598M1195.75 222.221H1253.12M1195.75 222.221V164.846M1195.75 222.221V279.598M1253.12 222.221H1310.5M1253.12 222.221V164.846M1253.12 222.221V279.598M1310.5 222.221H1367.87M1310.5 222.221V164.846M1310.5 222.221V279.598M1367.87 222.221H1425.25M1367.87 222.221V164.846M1367.87 222.221V279.598M1425.25 222.221H1482.63M1425.25 222.221V164.846M1425.25 222.221V279.598M1482.63 222.221H1540M1482.63 222.221V164.846M1482.63 222.221V279.598M1540 222.221H1597.37M1540 222.221V164.846M1540 222.221V279.598M1597.37 222.221H1654.75M1597.37 222.221V164.846M1597.37 222.221V279.598M1654.75 222.221H1712.13M1654.75 222.221V164.846M1654.75 222.221V279.598M1712.13 222.221H1769.5M1712.13 222.221V164.846M1712.13 222.221V279.598M1769.5 222.221H1826.88M1769.5 222.221V164.846M1769.5 222.221V279.598M1826.88 222.221H1884.25M1826.88 222.221V164.846M1826.88 222.221V279.598M1884.25 222.221H1941.63M1884.25 222.221V164.846M1884.25 222.221V279.598M1941.63 222.221H1999.01M1941.63 222.221V164.846M1941.63 222.221V279.598M1999.01 222.221H2056.38M1999.01 222.221V164.846M1999.01 222.221V279.598M2056.38 222.221H2064.9M2056.38 222.221V164.846M2056.38 222.221V279.598M990 451.725H1023.62M1023.62 451.725H1081M1023.62 451.725V394.35M1023.62 451.725V509.101M1081 451.725H1138.37M1081 451.725V394.35M1081 451.725V509.101M1138.37 451.725H1195.75M1138.37 451.725V394.35M1138.37 451.725V509.101M1195.75 451.725H1253.12M1195.75 451.725V394.35M1195.75 451.725V509.101M1253.12 451.725H1310.5M1253.12 451.725V394.35M1253.12 451.725V509.101M1310.5 451.725H1367.87M1310.5 451.725V394.35M1310.5 451.725V509.101M1367.87 451.725H1425.25M1367.87 451.725V394.35M1367.87 451.725V509.101M1425.25 451.725H1482.63M1425.25 451.725V394.35M1425.25 451.725V509.101M1482.63 451.725H1540M1482.63 451.725V394.35M1482.63 451.725V509.101M1540 451.725H1597.37M1540 451.725V394.35M1540 451.725V509.101M1597.37 451.725H1654.75M1597.37 451.725V394.35M1597.37 451.725V509.101M1654.75 451.725H1712.13M1654.75 451.725V394.35M1654.75 451.725V509.101M1712.13 451.725H1769.5M1712.13 451.725V394.35M1712.13 451.725V509.101M1769.5 451.725H1826.88M1769.5 451.725V394.35M1769.5 451.725V509.101M1826.88 451.725H1884.25M1826.88 451.725V394.35M1826.88 451.725V509.101M1884.25 451.725H1941.63M1884.25 451.725V394.35M1884.25 451.725V509.101M1941.63 451.725H1999.01M1941.63 451.725V394.35M1941.63 451.725V509.101M1999.01 451.725H2056.38M1999.01 451.725V394.35M1999.01 451.725V509.101M2056.38 451.725H2064.9M2056.38 451.725V394.35M2056.38 451.725V509.101M990 -7.27979H1023.62M1023.62 -7.27979H1081M1023.62 -7.27979V-64.6567M1023.62 -7.27979V50.0952M1081 -7.27979H1138.37M1081 -7.27979V-64.6567M1081 -7.27979V50.0952M1138.37 -7.27979H1195.75M1138.37 -7.27979V-64.6567M1138.37 -7.27979V50.0952M1195.75 -7.27979H1253.12M1195.75 -7.27979V-64.6567M1195.75 -7.27979V50.0952M1253.12 -7.27979H1310.5M1253.12 -7.27979V-64.6567M1253.12 -7.27979V50.0952M1310.5 -7.27979H1367.87M1310.5 -7.27979V-64.6567M1310.5 -7.27979V50.0952M1367.87 -7.27979H1425.25M1367.87 -7.27979V-64.6567M1367.87 -7.27979V50.0952M1425.25 -7.27979H1482.63M1425.25 -7.27979V-64.6567M1425.25 -7.27979V50.0952M1482.63 -7.27979H1540M1482.63 -7.27979V-64.6567M1482.63 -7.27979V50.0952M1540 -7.27979H1597.37M1540 -7.27979V-64.6567M1540 -7.27979V50.0952M1597.37 -7.27979H1654.75M1597.37 -7.27979V-64.6567M1597.37 -7.27979V50.0952M1654.75 -7.27979H1712.13M1654.75 -7.27979V-64.6567M1654.75 -7.27979V50.0952M1712.13 -7.27979H1769.5M1712.13 -7.27979V-64.6567M1712.13 -7.27979V50.0952M1769.5 -7.27979H1826.88M1769.5 -7.27979V-64.6567M1769.5 -7.27979V50.0952M1826.88 -7.27979H1884.25M1826.88 -7.27979V-64.6567M1826.88 -7.27979V50.0952M1884.25 -7.27979H1941.63M1884.25 -7.27979V-64.6567M1884.25 -7.27979V50.0952M1941.63 -7.27979H1999.01M1941.63 -7.27979V-64.6567M1941.63 -7.27979V50.0952M1999.01 -7.27979H2056.38M1999.01 -7.27979V-64.6567M1999.01 -7.27979V50.0952M2056.38 -7.27979H2064.9M2056.38 -7.27979V-64.6567M2056.38 -7.27979V50.0952M990 279.598H1023.62M1023.62 279.598H1081M1081 279.598H1138.37M1138.37 279.598H1195.75M1195.75 279.598H1253.12M1253.12 279.598H1310.5M1310.5 279.598H1367.87M1367.87 279.598H1425.25M1425.25 279.598H1482.63M1482.63 279.598H1540M1540 279.598H1597.37M1597.37 279.598H1654.75M1654.75 279.598H1712.13M1712.13 279.598H1769.5M1769.5 279.598H1826.88M1826.88 279.598H1884.25M1884.25 279.598H1941.63M1941.63 279.598H1999.01M1999.01 279.598H2056.38M2056.38 279.598H2064.9M990 509.101H1023.62M1023.62 509.101H1081M1081 509.101H1138.37M1138.37 509.101H1195.75M1195.75 509.101H1253.12M1253.12 509.101H1310.5M1310.5 509.101H1367.87M1367.87 509.101H1425.25M1425.25 509.101H1482.63M1482.63 509.101H1540M1540 509.101H1597.37M1597.37 509.101H1654.75M1654.75 509.101H1712.13M1712.13 509.101H1769.5M1769.5 509.101H1826.88M1826.88 509.101H1884.25M1884.25 509.101H1941.63M1941.63 509.101H1999.01M1999.01 509.101H2056.38M2056.38 509.101H2064.9M990 50.0952H1023.62M1023.62 50.0952H1081M1081 50.0952H1138.37M1138.37 50.0952H1195.75M1195.75 50.0952H1253.12M1253.12 50.0952H1310.5M1310.5 50.0952H1367.87M1367.87 50.0952H1425.25M1425.25 50.0952H1482.63M1482.63 50.0952H1540M1540 50.0952H1597.37M1597.37 50.0952H1654.75M1654.75 50.0952H1712.13M1712.13 50.0952H1769.5M1769.5 50.0952H1826.88M1826.88 50.0952H1884.25M1884.25 50.0952H1941.63M1941.63 50.0952H1999.01M1999.01 50.0952H2056.38M2056.38 50.0952H2064.9M990 623.853H1023.62M1023.62 623.853H1081M1081 623.853H1138.37M1138.37 623.853H1195.75M1195.75 623.853H1253.12M1253.12 623.853H1310.5M1310.5 623.853H1367.87M1367.87 623.853H1425.25M1425.25 623.853H1482.63M1482.63 623.853H1540M1540 623.853H1597.37M1597.37 623.853H1654.75M1654.75 623.853H1712.13M1712.13 623.853H1769.5M1769.5 623.853H1826.88M1826.88 623.853H1884.25M1884.25 623.853H1941.63M1941.63 623.853H1999.01M1999.01 623.853H2056.38M2056.38 623.853H2064.9M990 164.846H1023.62M1023.62 164.846H1081M1081 164.846H1138.37M1138.37 164.846H1195.75M1195.75 164.846H1253.12M1253.12 164.846H1310.5M1310.5 164.846H1367.87M1367.87 164.846H1425.25M1425.25 164.846H1482.63M1482.63 164.846H1540M1540 164.846H1597.37M1597.37 164.846H1654.75M1654.75 164.846H1712.13M1712.13 164.846H1769.5M1769.5 164.846H1826.88M1826.88 164.846H1884.25M1884.25 164.846H1941.63M1941.63 164.846H1999.01M1999.01 164.846H2056.38M2056.38 164.846H2064.9M990 394.35H1023.62M1023.62 394.35H1081M1081 394.35H1138.37M1138.37 394.35H1195.75M1195.75 394.35H1253.12M1253.12 394.35H1310.5M1310.5 394.35H1367.87M1367.87 394.35H1425.25M1425.25 394.35H1482.63M1482.63 394.35H1540M1540 394.35H1597.37M1597.37 394.35H1654.75M1654.75 394.35H1712.13M1712.13 394.35H1769.5M1769.5 394.35H1826.88M1826.88 394.35H1884.25M1884.25 394.35H1941.63M1941.63 394.35H1999.01M1999.01 394.35H2056.38M2056.38 394.35H2064.9M990 -64.6567H1023.62M1023.62 -64.6567H1081M1081 -64.6567H1138.37M1138.37 -64.6567H1195.75M1195.75 -64.6567H1253.12M1253.12 -64.6567H1310.5M1310.5 -64.6567H1367.87M1367.87 -64.6567H1425.25M1425.25 -64.6567H1482.63M1482.63 -64.6567H1540M1540 -64.6567H1597.37M1597.37 -64.6567H1654.75M1654.75 -64.6567H1712.13M1712.13 -64.6567H1769.5M1769.5 -64.6567H1826.88M1826.88 -64.6567H1884.25M1884.25 -64.6567H1941.63M1941.63 -64.6567H1999.01M1999.01 -64.6567H2056.38M2056.38 -64.6567H2064.9M-42.8989 1140.13H-9.28172M-9.28172 1140.13H48.0961M-9.28172 1140.13L-9.28172 1082.75M-9.28172 1140.13V1197.5M48.0961 1140.13H105.471M48.0961 1140.13V1082.75M48.0961 1140.13L48.0961 1197.5M105.471 1140.13H162.848M105.471 1140.13V1082.75M105.471 1140.13V1197.5M162.848 1140.13H220.223M162.848 1140.13V1082.75M162.848 1140.13V1197.5M220.223 1140.13H277.597M220.223 1140.13V1082.75M220.223 1140.13V1197.5M277.597 1140.13H334.975M277.597 1140.13V1082.75M277.597 1140.13V1197.5M334.975 1140.13H392.349M334.975 1140.13V1082.75M334.975 1140.13V1197.5M392.349 1140.13H449.727M392.349 1140.13V1082.75M392.349 1140.13V1197.5M449.727 1140.13H507.102M449.727 1140.13V1082.75M449.727 1140.13V1197.5M507.102 1140.13H564.475M507.102 1140.13V1082.75M507.102 1140.13V1197.5M564.475 1140.13H621.853M564.475 1140.13V1082.75M564.475 1140.13V1197.5M621.853 1140.13H679.228M621.853 1140.13V1082.75M621.853 1140.13V1197.5M679.228 1140.13H736.605M679.228 1140.13V1082.75M679.228 1140.13V1197.5M736.605 1140.13H793.981M736.605 1140.13V1082.75M736.605 1140.13V1197.5M793.981 1140.13H851.355M793.981 1140.13V1082.75M793.981 1140.13V1197.5M851.355 1140.13H908.733M851.355 1140.13V1082.75M851.355 1140.13V1197.5M908.733 1140.13H966.107M908.733 1140.13V1082.75M908.733 1140.13V1197.5M966.107 1140.13H1023.49M966.107 1140.13V1082.75M966.107 1140.13V1197.5M1023.49 1140.13H1032M1023.49 1140.13V1082.75M1023.49 1140.13V1197.5M-42.8989 1369.63H-9.28173M-9.28173 1369.63H48.0961M-9.28173 1369.63L-9.28173 1312.26M-9.28173 1369.63V1427.01M48.0961 1369.63H105.471M48.0961 1369.63V1312.26M48.0961 1369.63L48.0961 1427.01M105.471 1369.63H162.848M105.471 1369.63L105.471 1312.26M105.471 1369.63V1427.01M162.848 1369.63H220.223M162.848 1369.63V1312.26M162.848 1369.63V1427.01M220.223 1369.63H277.597M220.223 1369.63V1312.26M220.223 1369.63V1427.01M277.597 1369.63H334.975M277.597 1369.63V1312.26M277.597 1369.63V1427.01M334.975 1369.63H392.349M334.975 1369.63V1312.26M334.975 1369.63V1427.01M392.349 1369.63H449.727M392.349 1369.63V1312.26M392.349 1369.63V1427.01M449.727 1369.63H507.102M449.727 1369.63V1312.26M449.727 1369.63V1427.01M507.102 1369.63H564.475M507.102 1369.63V1312.26M507.102 1369.63V1427.01M564.475 1369.63H621.853M564.475 1369.63V1312.26M564.475 1369.63V1427.01M621.853 1369.63H679.228M621.853 1369.63V1312.26M621.853 1369.63V1427.01M679.228 1369.63H736.605M679.228 1369.63V1312.26M679.228 1369.63V1427.01M736.605 1369.63H793.981M736.605 1369.63V1312.26M736.605 1369.63V1427.01M793.981 1369.63H851.355M793.981 1369.63V1312.26M793.981 1369.63V1427.01M851.355 1369.63H908.733M851.355 1369.63V1312.26M851.355 1369.63V1427.01M908.733 1369.63H966.107M908.733 1369.63V1312.26M908.733 1369.63V1427.01M966.107 1369.63H1023.49M966.107 1369.63V1312.26M966.107 1369.63V1427.01M1023.49 1369.63H1032M1023.49 1369.63V1312.26M1023.49 1369.63V1427.01M-42.8989 910.626H-9.28171M-9.28171 910.626H48.0961M-9.28171 910.626L-9.28171 853.25M-9.28171 910.626L-9.28172 968.001M48.0961 910.626H105.471M48.0961 910.626V853.25M48.0961 910.626V968.001M105.471 910.626H162.848M105.471 910.626V853.25M105.471 910.626V968.001M162.848 910.626H220.223M162.848 910.626L162.848 853.25M162.848 910.626V968.001M220.223 910.626H277.597M220.223 910.626V853.25M220.223 910.626V968.001M277.597 910.626H334.975M277.597 910.626L277.597 853.25M277.597 910.626V968.001M334.975 910.626H392.349M334.975 910.626L334.975 853.25M334.975 910.626V968.001M392.349 910.626H449.727M392.349 910.626L392.349 853.25M392.349 910.626V968.001M449.727 910.626H507.102M449.727 910.626L449.727 853.25M449.727 910.626V968.001M507.102 910.626H564.475M507.102 910.626V853.25M507.102 910.626V968.001M564.475 910.626H621.853M564.475 910.626V853.25M564.475 910.626V968.001M621.853 910.626H679.228M621.853 910.626V853.25M621.853 910.626V968.001M679.228 910.626H736.605M679.228 910.626V853.25M679.228 910.626V968.001M736.605 910.626H793.981M736.605 910.626V853.25M736.605 910.626V968.001M793.981 910.626H851.355M793.981 910.626V853.25M793.981 910.626V968.001M851.355 910.626H908.733M851.355 910.626V853.25M851.355 910.626V968.001M908.733 910.626H966.107M908.733 910.626V853.25M908.733 910.626V968.001M966.107 910.626H1023.49M966.107 910.626V853.25M966.107 910.626V968.001M1023.49 910.626H1032M1023.49 910.626V853.25M1023.49 910.626V968.001M-42.8989 681.122H-9.2817M-9.2817 681.122H48.0961M-9.2817 681.122V660.954M-9.2817 681.122L-9.2817 738.498M48.0961 681.122H105.471M48.0961 681.122V660.954M48.0961 681.122V738.498M105.471 681.122H162.848M105.471 681.122V660.954M105.471 681.122V738.498M162.848 681.122H220.223M162.848 681.122V660.954M162.848 681.122V738.498M220.223 681.122H277.597M220.223 681.122V660.954M220.223 681.122V738.498M277.597 681.122H334.975M277.597 681.122V660.954M277.597 681.122V738.498M334.975 681.122H392.349M334.975 681.122V660.954M334.975 681.122V738.498M392.349 681.122H449.727M392.349 681.122V660.954M392.349 681.122V738.498M449.727 681.122H507.102M449.727 681.122V660.954M449.727 681.122V738.498M507.102 681.122H564.475M507.102 681.122V660.954M507.102 681.122V738.498M564.475 681.122H621.853M564.475 681.122V660.954M564.475 681.122V738.498M621.853 681.122H679.228M621.853 681.122V660.954M621.853 681.122V738.498M679.228 681.122H736.605M679.228 681.122V660.954M679.228 681.122V738.498M736.605 681.122H793.981M736.605 681.122V660.954M736.605 681.122V738.498M793.981 681.122H851.355M793.981 681.122V660.954M793.981 681.122V738.498M851.355 681.122H908.733M851.355 681.122V660.954M851.355 681.122V738.498M908.733 681.122H966.107M908.733 681.122V660.954M908.733 681.122V738.498M966.107 681.122H1023.49M966.107 681.122V660.954M966.107 681.122V738.498M1023.49 681.122H1032M1023.49 681.122V660.954M1023.49 681.122V738.498M-42.8989 1484.38H-9.28174M-9.28174 1484.38H48.0961M-9.28174 1484.38L-9.28173 1427.01M-9.28174 1484.38V1491.11M48.0961 1484.38H105.471M48.0961 1484.38V1427.01M48.0961 1484.38V1491.11M105.471 1484.38H162.848M105.471 1484.38V1427.01M105.471 1484.38V1491.11M162.848 1484.38H220.223M162.848 1484.38V1427.01M162.848 1484.38V1491.11M220.223 1484.38H277.597M220.223 1484.38V1427.01M220.223 1484.38V1491.11M277.597 1484.38H334.975M277.597 1484.38V1427.01M277.597 1484.38V1491.11M334.975 1484.38H392.349M334.975 1484.38V1427.01M334.975 1484.38V1491.11M392.349 1484.38H449.727M392.349 1484.38V1427.01M392.349 1484.38V1491.11M449.727 1484.38H507.102M449.727 1484.38V1427.01M449.727 1484.38V1491.11M507.102 1484.38H564.475M507.102 1484.38V1427.01M507.102 1484.38V1491.11M564.475 1484.38H621.853M564.475 1484.38V1427.01M564.475 1484.38V1491.11M621.853 1484.38H679.228M621.853 1484.38V1427.01M621.853 1484.38V1491.11M679.228 1484.38H736.605M679.228 1484.38V1427.01M679.228 1484.38V1491.11M736.605 1484.38H793.981M736.605 1484.38V1427.01M736.605 1484.38V1491.11M793.981 1484.38H851.355M793.981 1484.38V1427.01M793.981 1484.38V1491.11M851.355 1484.38H908.733M851.355 1484.38V1427.01M851.355 1484.38V1491.11M908.733 1484.38H966.107M908.733 1484.38V1427.01M908.733 1484.38V1491.11M966.107 1484.38H1023.49M966.107 1484.38V1427.01M966.107 1484.38V1491.11M1023.49 1484.38H1032M1023.49 1484.38V1427.01M1023.49 1484.38V1491.11M-42.8989 1025.38H-9.28172M-9.28172 1025.38H48.0961M-9.28172 1025.38V968.001M-9.28172 1025.38L-9.28172 1082.75M48.0961 1025.38H105.471M48.0961 1025.38L48.0961 968.001M48.0961 1025.38V1082.75M105.471 1025.38H162.848M105.471 1025.38V968.001M105.471 1025.38L105.471 1082.75M162.848 1025.38H220.223M162.848 1025.38V968.001M162.848 1025.38V1082.75M220.223 1025.38H277.597M220.223 1025.38V968.001M220.223 1025.38L220.223 1082.75M277.597 1025.38H334.975M277.597 1025.38V968.001M277.597 1025.38V1082.75M334.975 1025.38H392.349M334.975 1025.38V968.001M334.975 1025.38V1082.75M392.349 1025.38H449.727M392.349 1025.38V968.001M392.349 1025.38V1082.75M449.727 1025.38H507.102M449.727 1025.38V968.001M449.727 1025.38V1082.75M507.102 1025.38H564.475M507.102 1025.38V968.001M507.102 1025.38V1082.75M564.475 1025.38H621.853M564.475 1025.38V968.001M564.475 1025.38V1082.75M621.853 1025.38H679.228M621.853 1025.38V968.001M621.853 1025.38V1082.75M679.228 1025.38H736.605M679.228 1025.38V968.001M679.228 1025.38V1082.75M736.605 1025.38H793.981M736.605 1025.38V968.001M736.605 1025.38V1082.75M793.981 1025.38H851.355M793.981 1025.38V968.001M793.981 1025.38V1082.75M851.355 1025.38H908.733M851.355 1025.38V968.001M851.355 1025.38V1082.75M908.733 1025.38H966.107M908.733 1025.38V968.001M908.733 1025.38V1082.75M966.107 1025.38H1023.49M966.107 1025.38V968.001M966.107 1025.38V1082.75M1023.49 1025.38H1032M1023.49 1025.38V968.001M1023.49 1025.38L1023.49 1082.75M-42.8989 1254.88H-9.28173M-9.28173 1254.88H48.0961M-9.28173 1254.88L-9.28172 1197.5M-9.28173 1254.88L-9.28173 1312.26M48.0961 1254.88H105.471M48.0961 1254.88V1197.5M48.0961 1254.88V1312.26M105.471 1254.88H162.848M105.471 1254.88V1197.5M105.471 1254.88V1312.26M162.848 1254.88H220.223M162.848 1254.88V1197.5M162.848 1254.88L162.848 1312.26M220.223 1254.88H277.597M220.223 1254.88V1197.5M220.223 1254.88V1312.26M277.597 1254.88H334.975M277.597 1254.88V1197.5M277.597 1254.88L277.597 1312.26M334.975 1254.88H392.349M334.975 1254.88V1197.5M334.975 1254.88L334.975 1312.26M392.349 1254.88H449.727M392.349 1254.88V1197.5M392.349 1254.88L392.349 1312.26M449.727 1254.88H507.102M449.727 1254.88V1197.5M449.727 1254.88L449.727 1312.26M507.102 1254.88H564.475M507.102 1254.88V1197.5M507.102 1254.88V1312.26M564.475 1254.88H621.853M564.475 1254.88V1197.5M564.475 1254.88V1312.26M621.853 1254.88H679.228M621.853 1254.88V1197.5M621.853 1254.88V1312.26M679.228 1254.88H736.605M679.228 1254.88V1197.5M679.228 1254.88V1312.26M736.605 1254.88H793.981M736.605 1254.88V1197.5M736.605 1254.88V1312.26M793.981 1254.88H851.355M793.981 1254.88V1197.5M793.981 1254.88V1312.26M851.355 1254.88H908.733M851.355 1254.88V1197.5M851.355 1254.88V1312.26M908.733 1254.88H966.107M908.733 1254.88V1197.5M908.733 1254.88V1312.26M966.107 1254.88H1023.49M966.107 1254.88V1197.5M966.107 1254.88V1312.26M1023.49 1254.88H1032M1023.49 1254.88V1197.5M1023.49 1254.88V1312.26M-42.8989 795.875H-9.28171M-9.28171 795.875H48.0961M-9.28171 795.875L-9.2817 738.498M-9.28171 795.875V853.25M48.0961 795.875H105.471M48.0961 795.875L48.0961 738.498M48.0961 795.875V853.25M105.471 795.875H162.848M105.471 795.875V738.498M105.471 795.875L105.471 853.25M162.848 795.875H220.223M162.848 795.875V738.498M162.848 795.875V853.25M220.223 795.875H277.597M220.223 795.875V738.498M220.223 795.875V853.25M277.597 795.875H334.975M277.597 795.875V738.498M277.597 795.875V853.25M334.975 795.875H392.349M334.975 795.875V738.498M334.975 795.875V853.25M392.349 795.875H449.727M392.349 795.875V738.498M392.349 795.875V853.25M449.727 795.875H507.102M449.727 795.875V738.498M449.727 795.875V853.25M507.102 795.875H564.475M507.102 795.875V738.498M507.102 795.875V853.25M564.475 795.875H621.853M564.475 795.875V738.498M564.475 795.875V853.25M621.853 795.875H679.228M621.853 795.875V738.498M621.853 795.875V853.25M679.228 795.875H736.605M679.228 795.875V738.498M679.228 795.875V853.25M736.605 795.875H793.981M736.605 795.875V738.498M736.605 795.875V853.25M793.981 795.875H851.355M793.981 795.875V738.498M793.981 795.875V853.25M851.355 795.875H908.733M851.355 795.875V738.498M851.355 795.875V853.25M908.733 795.875H966.107M908.733 795.875V738.498M908.733 795.875V853.25M966.107 795.875H1023.49M966.107 795.875V738.498M966.107 795.875V853.25M1023.49 795.875H1032M1023.49 795.875V738.498M1023.49 795.875V853.25M-42.8989 1082.75H-9.28172M-9.28172 1082.75H48.0961M48.0961 1082.75H105.471M105.471 1082.75H162.848M162.848 1082.75H220.223M220.223 1082.75H277.597M277.597 1082.75H334.975M334.975 1082.75H392.349M392.349 1082.75H449.727M449.727 1082.75H507.102M507.102 1082.75H564.475M564.475 1082.75H621.853M621.853 1082.75H679.228M679.228 1082.75H736.605M736.605 1082.75H793.981M793.981 1082.75H851.355M851.355 1082.75H908.733M908.733 1082.75H966.107M966.107 1082.75H1023.49M1023.49 1082.75H1032M-42.8989 1312.26H-9.28173M-9.28173 1312.26H48.0961M48.0961 1312.26H105.471M105.471 1312.26H162.848M162.848 1312.26H220.223M220.223 1312.26H277.597M277.597 1312.26H334.975M334.975 1312.26H392.349M392.349 1312.26H449.727M449.727 1312.26H507.102M507.102 1312.26H564.475M564.475 1312.26H621.853M621.853 1312.26H679.228M679.228 1312.26H736.605M736.605 1312.26H793.981M793.981 1312.26H851.355M851.355 1312.26H908.733M908.733 1312.26H966.107M966.107 1312.26H1023.49M1023.49 1312.26H1032M-42.8989 853.25H-9.28171M-9.28171 853.25H48.0961M48.0961 853.25H105.471M105.471 853.25H162.848M162.848 853.25H220.223M220.223 853.25H277.597M277.597 853.25H334.975M334.975 853.25H392.349M392.349 853.25H449.727M449.727 853.25H507.102M507.102 853.25H564.475M564.475 853.25H621.853M621.853 853.25H679.228M679.228 853.25H736.605M736.605 853.25H793.981M793.981 853.25H851.355M851.355 853.25H908.733M908.733 853.25H966.107M966.107 853.25H1023.49M1023.49 853.25H1032M-42.8989 1427.01H-9.28173M-9.28173 1427.01H48.0961M48.0961 1427.01H105.471M105.471 1427.01H162.848M162.848 1427.01H220.223M220.223 1427.01H277.597M277.597 1427.01H334.975M334.975 1427.01H392.349M392.349 1427.01H449.727M449.727 1427.01H507.102M507.102 1427.01H564.475M564.475 1427.01H621.853M621.853 1427.01H679.228M679.228 1427.01H736.605M736.605 1427.01H793.981M793.981 1427.01H851.355M851.355 1427.01H908.733M908.733 1427.01H966.107M966.107 1427.01H1023.49M1023.49 1427.01H1032M-42.8989 968.001H-9.28172M-9.28172 968.001H48.0961M48.0961 968.001H105.471M105.471 968.001H162.848M162.848 968.001H220.223M220.223 968.001H277.597M277.597 968.001H334.975M334.975 968.001H392.349M392.349 968.001H449.727M449.727 968.001H507.102M507.102 968.001H564.475M564.475 968.001H621.853M621.853 968.001H679.228M679.228 968.001H736.605M736.605 968.001H793.981M793.981 968.001H851.355M851.355 968.001H908.733M908.733 968.001H966.107M966.107 968.001H1023.49M1023.49 968.001H1032M-42.8989 1197.5H-9.28172M-9.28172 1197.5H48.0961M48.0961 1197.5H105.471M105.471 1197.5H162.848M162.848 1197.5H220.223M220.223 1197.5H277.597M277.597 1197.5H334.975M334.975 1197.5H392.349M392.349 1197.5H449.727M449.727 1197.5H507.102M507.102 1197.5H564.475M564.475 1197.5H621.853M621.853 1197.5H679.228M679.228 1197.5H736.605M736.605 1197.5H793.981M793.981 1197.5H851.355M851.355 1197.5H908.733M908.733 1197.5H966.107M966.107 1197.5H1023.49M1023.49 1197.5H1032M-42.8989 738.498H-9.2817M-9.2817 738.498H48.0961M48.0961 738.498H105.471M105.471 738.498H162.848M162.848 738.498H220.223M220.223 738.498H277.597M277.597 738.498H334.975M334.975 738.498H392.349M392.349 738.498H449.727M449.727 738.498H507.102M507.102 738.498H564.475M564.475 738.498H621.853M621.853 738.498H679.228M679.228 738.498H736.605M736.605 738.498H793.981M793.981 738.498H851.355M851.355 738.498H908.733M908.733 738.498H966.107M966.107 738.498H1023.49M1023.49 738.498H1032M990 1140.13H1023.62M1023.62 1140.13H1081M1023.62 1140.13V1082.75M1023.62 1140.13V1197.5M1081 1140.13H1138.37M1081 1140.13V1082.75M1081 1140.13V1197.5M1138.37 1140.13H1195.75M1138.37 1140.13V1082.75M1138.37 1140.13V1197.5M1195.75 1140.13H1253.12M1195.75 1140.13V1082.75M1195.75 1140.13V1197.5M1253.12 1140.13H1310.5M1253.12 1140.13V1082.75M1253.12 1140.13V1197.5M1310.5 1140.13H1367.87M1310.5 1140.13V1082.75M1310.5 1140.13V1197.5M1367.87 1140.13H1425.25M1367.87 1140.13V1082.75M1367.87 1140.13V1197.5M1425.25 1140.13H1482.63M1425.25 1140.13V1082.75M1425.25 1140.13V1197.5M1482.63 1140.13H1540M1482.63 1140.13V1082.75M1482.63 1140.13V1197.5M1540 1140.13H1597.37M1540 1140.13V1082.75M1540 1140.13V1197.5M1597.37 1140.13H1654.75M1597.37 1140.13V1082.75M1597.37 1140.13V1197.5M1654.75 1140.13H1712.13M1654.75 1140.13V1082.75M1654.75 1140.13V1197.5M1712.13 1140.13H1769.5M1712.13 1140.13V1082.75M1712.13 1140.13V1197.5M1769.5 1140.13H1826.88M1769.5 1140.13V1082.75M1769.5 1140.13V1197.5M1826.88 1140.13H1884.25M1826.88 1140.13V1082.75M1826.88 1140.13V1197.5M1884.25 1140.13H1941.63M1884.25 1140.13V1082.75M1884.25 1140.13V1197.5M1941.63 1140.13H1999.01M1941.63 1140.13V1082.75M1941.63 1140.13V1197.5M1999.01 1140.13H2056.38M1999.01 1140.13V1082.75M1999.01 1140.13V1197.5M2056.38 1140.13H2064.9M2056.38 1140.13V1082.75M2056.38 1140.13V1197.5M990 1369.63H1023.62M1023.62 1369.63H1081M1023.62 1369.63V1312.26M1023.62 1369.63V1427.01M1081 1369.63H1138.37M1081 1369.63V1312.26M1081 1369.63V1427.01M1138.37 1369.63H1195.75M1138.37 1369.63V1312.26M1138.37 1369.63V1427.01M1195.75 1369.63H1253.12M1195.75 1369.63V1312.26M1195.75 1369.63V1427.01M1253.12 1369.63H1310.5M1253.12 1369.63V1312.26M1253.12 1369.63V1427.01M1310.5 1369.63H1367.87M1310.5 1369.63V1312.26M1310.5 1369.63V1427.01M1367.87 1369.63H1425.25M1367.87 1369.63V1312.26M1367.87 1369.63V1427.01M1425.25 1369.63H1482.63M1425.25 1369.63V1312.26M1425.25 1369.63V1427.01M1482.63 1369.63H1540M1482.63 1369.63V1312.26M1482.63 1369.63V1427.01M1540 1369.63H1597.37M1540 1369.63V1312.26M1540 1369.63V1427.01M1597.37 1369.63H1654.75M1597.37 1369.63V1312.26M1597.37 1369.63V1427.01M1654.75 1369.63H1712.13M1654.75 1369.63V1312.26M1654.75 1369.63V1427.01M1712.13 1369.63H1769.5M1712.13 1369.63V1312.26M1712.13 1369.63V1427.01M1769.5 1369.63H1826.88M1769.5 1369.63V1312.26M1769.5 1369.63V1427.01M1826.88 1369.63H1884.25M1826.88 1369.63V1312.26M1826.88 1369.63V1427.01M1884.25 1369.63H1941.63M1884.25 1369.63V1312.26M1884.25 1369.63V1427.01M1941.63 1369.63H1999.01M1941.63 1369.63V1312.26M1941.63 1369.63V1427.01M1999.01 1369.63H2056.38M1999.01 1369.63V1312.26M1999.01 1369.63V1427.01M2056.38 1369.63H2064.9M2056.38 1369.63V1312.26M2056.38 1369.63V1427.01M990 910.625H1023.62M1023.62 910.625H1081M1023.62 910.625V853.25M1023.62 910.625V968M1081 910.625H1138.37M1081 910.625V853.25M1081 910.625V968M1138.37 910.625H1195.75M1138.37 910.625V853.25M1138.37 910.625V968M1195.75 910.625H1253.12M1195.75 910.625V853.25M1195.75 910.625V968M1253.12 910.625H1310.5M1253.12 910.625V853.25M1253.12 910.625V968M1310.5 910.625H1367.87M1310.5 910.625V853.25M1310.5 910.625V968M1367.87 910.625H1425.25M1367.87 910.625V853.25M1367.87 910.625V968M1425.25 910.625H1482.63M1425.25 910.625L1425.25 853.25M1425.25 910.625V968M1482.63 910.625H1540M1482.63 910.625L1482.63 853.25M1482.63 910.625V968M1540 910.625H1597.37M1540 910.625V853.25M1540 910.625V968M1597.37 910.625H1654.75M1597.37 910.625V853.25M1597.37 910.625V968M1654.75 910.625H1712.13M1654.75 910.625V853.25M1654.75 910.625V968M1712.13 910.625H1769.5M1712.13 910.625V853.25M1712.13 910.625V968M1769.5 910.625H1826.88M1769.5 910.625V853.25M1769.5 910.625V968M1826.88 910.625H1884.25M1826.88 910.625V853.25M1826.88 910.625V968M1884.25 910.625H1941.63M1884.25 910.625V853.25M1884.25 910.625V968M1941.63 910.625H1999.01M1941.63 910.625V853.25M1941.63 910.625V968M1999.01 910.625H2056.38M1999.01 910.625V853.25M1999.01 910.625V968M2056.38 910.625H2064.9M2056.38 910.625V853.25M2056.38 910.625V968M990 681.122H1023.62M1023.62 681.122H1081M1023.62 681.122V660.954M1023.62 681.122V738.498M1081 681.122H1138.37M1081 681.122V660.954M1081 681.122V738.498M1138.37 681.122H1195.75M1138.37 681.122V660.954M1138.37 681.122V738.498M1195.75 681.122H1253.12M1195.75 681.122V660.954M1195.75 681.122V738.498M1253.12 681.122H1310.5M1253.12 681.122V660.954M1253.12 681.122V738.498M1310.5 681.122H1367.87M1310.5 681.122V660.954M1310.5 681.122V738.498M1367.87 681.122H1425.25M1367.87 681.122V660.954M1367.87 681.122V738.498M1425.25 681.122H1482.63M1425.25 681.122V660.954M1425.25 681.122V738.498M1482.63 681.122H1540M1482.63 681.122V660.954M1482.63 681.122V738.498M1540 681.122H1597.37M1540 681.122V660.954M1540 681.122V738.498M1597.37 681.122H1654.75M1597.37 681.122V660.954M1597.37 681.122V738.498M1654.75 681.122H1712.13M1654.75 681.122V660.954M1654.75 681.122V738.498M1712.13 681.122H1769.5M1712.13 681.122V660.954M1712.13 681.122V738.498M1769.5 681.122H1826.88M1769.5 681.122V660.954M1769.5 681.122V738.498M1826.88 681.122H1884.25M1826.88 681.122V660.954M1826.88 681.122V738.498M1884.25 681.122H1941.63M1884.25 681.122V660.954M1884.25 681.122V738.498M1941.63 681.122H1999.01M1941.63 681.122V660.954M1941.63 681.122V738.498M1999.01 681.122H2056.38M1999.01 681.122V660.954M1999.01 681.122V738.498M2056.38 681.122H2064.9M2056.38 681.122V660.954M2056.38 681.122V738.498M990 1484.38H1023.62M1023.62 1484.38H1081M1023.62 1484.38V1427.01M1023.62 1484.38V1491.11M1081 1484.38H1138.37M1081 1484.38V1427.01M1081 1484.38V1491.11M1138.37 1484.38H1195.75M1138.37 1484.38V1427.01M1138.37 1484.38V1491.11M1195.75 1484.38H1253.12M1195.75 1484.38V1427.01M1195.75 1484.38V1491.11M1253.12 1484.38H1310.5M1253.12 1484.38V1427.01M1253.12 1484.38V1491.11M1310.5 1484.38H1367.87M1310.5 1484.38V1427.01M1310.5 1484.38V1491.11M1367.87 1484.38H1425.25M1367.87 1484.38V1427.01M1367.87 1484.38V1491.11M1425.25 1484.38H1482.63M1425.25 1484.38V1427.01M1425.25 1484.38V1491.11M1482.63 1484.38H1540M1482.63 1484.38V1427.01M1482.63 1484.38V1491.11M1540 1484.38H1597.37M1540 1484.38V1427.01M1540 1484.38V1491.11M1597.37 1484.38H1654.75M1597.37 1484.38V1427.01M1597.37 1484.38V1491.11M1654.75 1484.38H1712.13M1654.75 1484.38V1427.01M1654.75 1484.38V1491.11M1712.13 1484.38H1769.5M1712.13 1484.38V1427.01M1712.13 1484.38V1491.11M1769.5 1484.38H1826.88M1769.5 1484.38V1427.01M1769.5 1484.38V1491.11M1826.88 1484.38H1884.25M1826.88 1484.38V1427.01M1826.88 1484.38V1491.11M1884.25 1484.38H1941.63M1884.25 1484.38V1427.01M1884.25 1484.38V1491.11M1941.63 1484.38H1999.01M1941.63 1484.38V1427.01M1941.63 1484.38V1491.11M1999.01 1484.38H2056.38M1999.01 1484.38V1427.01M1999.01 1484.38V1491.11M2056.38 1484.38H2064.9M2056.38 1484.38V1427.01M2056.38 1484.38V1491.11M990 1025.38H1023.62M1023.62 1025.38H1081M1023.62 1025.38V968M1023.62 1025.38V1082.75M1081 1025.38H1138.37M1081 1025.38V968M1081 1025.38V1082.75M1138.37 1025.38H1195.75M1138.37 1025.38V968M1138.37 1025.38L1138.37 1082.75M1195.75 1025.38H1253.12M1195.75 1025.38V968M1195.75 1025.38V1082.75M1253.12 1025.38H1310.5M1253.12 1025.38V968M1253.12 1025.38V1082.75M1310.5 1025.38H1367.87M1310.5 1025.38V968M1310.5 1025.38V1082.75M1367.87 1025.38H1425.25M1367.87 1025.38V968M1367.87 1025.38V1082.75M1425.25 1025.38H1482.63M1425.25 1025.38V968M1425.25 1025.38V1082.75M1482.63 1025.38H1540M1482.63 1025.38V968M1482.63 1025.38V1082.75M1540 1025.38H1597.37M1540 1025.38V968M1540 1025.38V1082.75M1597.37 1025.38H1654.75M1597.37 1025.38V968M1597.37 1025.38V1082.75M1654.75 1025.38H1712.13M1654.75 1025.38V968M1654.75 1025.38V1082.75M1712.13 1025.38H1769.5M1712.13 1025.38V968M1712.13 1025.38V1082.75M1769.5 1025.38H1826.88M1769.5 1025.38V968M1769.5 1025.38V1082.75M1826.88 1025.38H1884.25M1826.88 1025.38V968M1826.88 1025.38V1082.75M1884.25 1025.38H1941.63M1884.25 1025.38V968M1884.25 1025.38V1082.75M1941.63 1025.38H1999.01M1941.63 1025.38V968M1941.63 1025.38V1082.75M1999.01 1025.38H2056.38M1999.01 1025.38V968M1999.01 1025.38V1082.75M2056.38 1025.38H2064.9M2056.38 1025.38V968M2056.38 1025.38V1082.75M990 1254.88H1023.62M1023.62 1254.88H1081M1023.62 1254.88V1197.5M1023.62 1254.88V1312.26M1081 1254.88H1138.37M1081 1254.88V1197.5M1081 1254.88V1312.26M1138.37 1254.88H1195.75M1138.37 1254.88V1197.5M1138.37 1254.88V1312.26M1195.75 1254.88H1253.12M1195.75 1254.88V1197.5M1195.75 1254.88V1312.26M1253.12 1254.88H1310.5M1253.12 1254.88V1197.5M1253.12 1254.88V1312.26M1310.5 1254.88H1367.87M1310.5 1254.88V1197.5M1310.5 1254.88V1312.26M1367.87 1254.88H1425.25M1367.87 1254.88V1197.5M1367.87 1254.88V1312.26M1425.25 1254.88H1482.63M1425.25 1254.88V1197.5M1425.25 1254.88V1312.26M1482.63 1254.88H1540M1482.63 1254.88V1197.5M1482.63 1254.88V1312.26M1540 1254.88H1597.37M1540 1254.88V1197.5M1540 1254.88V1312.26M1597.37 1254.88H1654.75M1597.37 1254.88V1197.5M1597.37 1254.88V1312.26M1654.75 1254.88H1712.13M1654.75 1254.88V1197.5M1654.75 1254.88V1312.26M1712.13 1254.88H1769.5M1712.13 1254.88V1197.5M1712.13 1254.88V1312.26M1769.5 1254.88H1826.88M1769.5 1254.88V1197.5M1769.5 1254.88V1312.26M1826.88 1254.88H1884.25M1826.88 1254.88V1197.5M1826.88 1254.88V1312.26M1884.25 1254.88H1941.63M1884.25 1254.88V1197.5M1884.25 1254.88V1312.26M1941.63 1254.88H1999.01M1941.63 1254.88V1197.5M1941.63 1254.88V1312.26M1999.01 1254.88H2056.38M1999.01 1254.88V1197.5M1999.01 1254.88V1312.26M2056.38 1254.88H2064.9M2056.38 1254.88V1197.5M2056.38 1254.88V1312.26M990 795.875H1023.62M1023.62 795.875H1081M1023.62 795.875V738.498M1023.62 795.875V853.25M1081 795.875H1138.37M1081 795.875V738.498M1081 795.875V853.25M1138.37 795.875H1195.75M1138.37 795.875V738.498M1138.37 795.875V853.25M1195.75 795.875H1253.12M1195.75 795.875V738.498M1195.75 795.875V853.25M1253.12 795.875H1310.5M1253.12 795.875V738.498M1253.12 795.875V853.25M1310.5 795.875H1367.87M1310.5 795.875V738.498M1310.5 795.875V853.25M1367.87 795.875H1425.25M1367.87 795.875V738.498M1367.87 795.875V853.25M1425.25 795.875H1482.63M1425.25 795.875V738.498M1425.25 795.875V853.25M1482.63 795.875H1540M1482.63 795.875V738.498M1482.63 795.875V853.25M1540 795.875H1597.37M1540 795.875V738.498M1540 795.875V853.25M1597.37 795.875H1654.75M1597.37 795.875V738.498M1597.37 795.875V853.25M1654.75 795.875H1712.13M1654.75 795.875V738.498M1654.75 795.875V853.25M1712.13 795.875H1769.5M1712.13 795.875V738.498M1712.13 795.875V853.25M1769.5 795.875H1826.88M1769.5 795.875V738.498M1769.5 795.875V853.25M1826.88 795.875H1884.25M1826.88 795.875V738.498M1826.88 795.875V853.25M1884.25 795.875H1941.63M1884.25 795.875V738.498M1884.25 795.875V853.25M1941.63 795.875H1999.01M1941.63 795.875V738.498M1941.63 795.875V853.25M1999.01 795.875H2056.38M1999.01 795.875V738.498M1999.01 795.875V853.25M2056.38 795.875H2064.9M2056.38 795.875V738.498M2056.38 795.875V853.25M990 1082.75H1023.62M1023.62 1082.75H1081M1081 1082.75H1138.37M1138.37 1082.75H1195.75M1195.75 1082.75H1253.12M1253.12 1082.75H1310.5M1310.5 1082.75H1367.87M1367.87 1082.75H1425.25M1425.25 1082.75H1482.63M1482.63 1082.75H1540M1540 1082.75H1597.37M1597.37 1082.75H1654.75M1654.75 1082.75H1712.13M1712.13 1082.75H1769.5M1769.5 1082.75H1826.88M1826.88 1082.75H1884.25M1884.25 1082.75H1941.63M1941.63 1082.75H1999.01M1999.01 1082.75H2056.38M2056.38 1082.75H2064.9M990 1312.26H1023.62M1023.62 1312.26H1081M1081 1312.26H1138.37M1138.37 1312.26H1195.75M1195.75 1312.26H1253.12M1253.12 1312.26H1310.5M1310.5 1312.26H1367.87M1367.87 1312.26H1425.25M1425.25 1312.26H1482.63M1482.63 1312.26H1540M1540 1312.26H1597.37M1597.37 1312.26H1654.75M1654.75 1312.26H1712.13M1712.13 1312.26H1769.5M1769.5 1312.26H1826.88M1826.88 1312.26H1884.25M1884.25 1312.26H1941.63M1941.63 1312.26H1999.01M1999.01 1312.26H2056.38M2056.38 1312.26H2064.9M990 853.25H1023.62M1023.62 853.25H1081M1081 853.25H1138.37M1138.37 853.25H1195.75M1195.75 853.25H1253.12M1253.12 853.25H1310.5M1310.5 853.25H1367.87M1367.87 853.25H1425.25M1425.25 853.25H1482.63M1482.63 853.25H1540M1540 853.25H1597.37M1597.37 853.25H1654.75M1654.75 853.25H1712.13M1712.13 853.25H1769.5M1769.5 853.25H1826.88M1826.88 853.25H1884.25M1884.25 853.25H1941.63M1941.63 853.25H1999.01M1999.01 853.25H2056.38M2056.38 853.25H2064.9M990 1427.01H1023.62M1023.62 1427.01H1081M1081 1427.01H1138.37M1138.37 1427.01H1195.75M1195.75 1427.01H1253.12M1253.12 1427.01H1310.5M1310.5 1427.01H1367.87M1367.87 1427.01H1425.25M1425.25 1427.01H1482.63M1482.63 1427.01H1540M1540 1427.01H1597.37M1597.37 1427.01H1654.75M1654.75 1427.01H1712.13M1712.13 1427.01H1769.5M1769.5 1427.01H1826.88M1826.88 1427.01H1884.25M1884.25 1427.01H1941.63M1941.63 1427.01H1999.01M1999.01 1427.01H2056.38M2056.38 1427.01H2064.9M990 968H1023.62M1023.62 968H1081M1081 968H1138.37M1138.37 968H1195.75M1195.75 968H1253.12M1253.12 968H1310.5M1310.5 968H1367.87M1367.87 968H1425.25M1425.25 968H1482.63M1482.63 968H1540M1540 968H1597.37M1597.37 968H1654.75M1654.75 968H1712.13M1712.13 968H1769.5M1769.5 968H1826.88M1826.88 968H1884.25M1884.25 968H1941.63M1941.63 968H1999.01M1999.01 968H2056.38M2056.38 968H2064.9M990 1197.5H1023.62M1023.62 1197.5H1081M1081 1197.5H1138.37M1138.37 1197.5H1195.75M1195.75 1197.5H1253.12M1253.12 1197.5H1310.5M1310.5 1197.5H1367.87M1367.87 1197.5H1425.25M1425.25 1197.5H1482.63M1482.63 1197.5H1540M1540 1197.5H1597.37M1597.37 1197.5H1654.75M1654.75 1197.5H1712.13M1712.13 1197.5H1769.5M1769.5 1197.5H1826.88M1826.88 1197.5H1884.25M1884.25 1197.5H1941.63M1941.63 1197.5H1999.01M1999.01 1197.5H2056.38M2056.38 1197.5H2064.9M990 738.498H1023.62M1023.62 738.498H1081M1081 738.498H1138.37M1138.37 738.498H1195.75M1195.75 738.498H1253.12M1253.12 738.498H1310.5M1310.5 738.498H1367.87M1367.87 738.498H1425.25M1425.25 738.498H1482.63M1482.63 738.498H1540M1540 738.498H1597.37M1597.37 738.498H1654.75M1654.75 738.498H1712.13M1712.13 738.498H1769.5M1769.5 738.498H1826.88M1826.88 738.498H1884.25M1884.25 738.498H1941.63M1941.63 738.498H1999.01M1999.01 738.498H2056.38M2056.38 738.498H2064.9" stroke="white" stroke-width="0.896496"/>
</g>
<defs>
<filter id="filter0_f_2_704" x="1187.3" y="55.4679" width="827.017" height="803.421" filterUnits="userSpaceOnUse" color-interpolation-filters="sRGB">
<feFlood flood-opacity="0" result="BackgroundImageFix"/>
<feBlend mode="normal" in="SourceGraphic" in2="BackgroundImageFix" result="shape"/>
<feGaussianBlur stdDeviation="82" result="effect1_foregroundBlur_2_704"/>
</filter>
<linearGradient id="paint0_linear_2_704" x1="1431" y1="646.647" x2="1786.78" y2="284.775" gradientUnits="userSpaceOnUse">
<stop stop-color="#FFD700"/>
<stop offset="0.33" stop-color="#66CCFF"/>
<stop offset="1" stop-color="#003366"/>
</linearGradient>
<clipPath id="clip0_2_704">
<rect width="1466" height="1159" fill="white" transform="translate(-13)"/>
</clipPath>
</defs>
</svg>
