<svg width="1440" height="1072" viewBox="0 0 1440 1072" fill="none" xmlns="http://www.w3.org/2000/svg">
<rect width="1440" height="926" fill="white"/>
<g opacity="0.5" filter="url(#filter0_f_2_228)">
<path d="M899.559 213.595C1040.35 178.294 1266.18 281.981 1301.48 422.098C1336.77 562.215 1272.7 690.974 1131.91 726.275C991.126 761.576 802.198 721.147 766.905 581.03C731.612 440.913 758.771 248.896 899.559 213.595Z" fill="url(#paint0_linear_2_228)"/>
</g>
<g filter="url(#filter1_f_2_228)">
<path d="M-340.486 438.38C-214.597 406.815 -12.6582 499.53 18.9003 624.819C50.4588 750.109 -6.82951 865.243 -132.719 896.808C-258.609 928.374 -427.544 892.223 -459.103 766.933C-490.661 641.644 -466.376 469.946 -340.486 438.38Z" fill="url(#paint1_linear_2_228)"/>
</g>
<g clip-path="url(#clip0_2_228)">
<path d="M-42.8989 220.474H-9.28148M-9.28148 220.474H48.0963M-9.28148 220.474L-9.28148 163.098M-9.28148 220.474V277.85M48.0963 220.474H105.471M48.0963 220.474V163.098M48.0963 220.474L48.0963 277.85M105.471 220.474H162.848M105.471 220.474V163.098M105.471 220.474V277.85M162.848 220.474H220.223M162.848 220.474V163.098M162.848 220.474V277.85M220.223 220.474H277.598M220.223 220.474V163.098M220.223 220.474V277.85M277.598 220.474H334.976M277.598 220.474V163.098M277.598 220.474V277.85M334.976 220.474H392.349M334.976 220.474V163.098M334.976 220.474V277.85M392.349 220.474H449.727M392.349 220.474V163.098M392.349 220.474V277.85M449.727 220.474H507.102M449.727 220.474V163.098M449.727 220.474V277.85M507.102 220.474H564.476M507.102 220.474V163.098M507.102 220.474V277.85M564.476 220.474H621.853M564.476 220.474V163.098M564.476 220.474V277.85M621.853 220.474H679.228M621.853 220.474V163.098M621.853 220.474V277.85M679.228 220.474H736.606M679.228 220.474V163.098M679.228 220.474V277.85M736.606 220.474H793.981M736.606 220.474V163.098M736.606 220.474V277.85M793.981 220.474H851.355M793.981 220.474V163.098M793.981 220.474V277.85M851.355 220.474H908.733M851.355 220.474V163.098M851.355 220.474V277.85M908.733 220.474H966.108M908.733 220.474V163.098M908.733 220.474V277.85M966.108 220.474H1023.49M966.108 220.474V163.098M966.108 220.474V277.85M1023.49 220.474H1032M1023.49 220.474V163.098M1023.49 220.474V277.85M-42.8989 449.978H-9.28149M-9.28149 449.978H48.0963M-9.28149 449.978L-9.28149 392.601M-9.28149 449.978V507.353M48.0963 449.978H105.471M48.0963 449.978V392.601M48.0963 449.978L48.0963 507.353M105.471 449.978H162.848M105.471 449.978L105.471 392.601M105.471 449.978V507.353M162.848 449.978H220.223M162.848 449.978V392.601M162.848 449.978V507.353M220.223 449.978H277.598M220.223 449.978V392.601M220.223 449.978V507.353M277.598 449.978H334.976M277.598 449.978V392.601M277.598 449.978V507.353M334.976 449.978H392.349M334.976 449.978V392.601M334.976 449.978V507.353M392.349 449.978H449.727M392.349 449.978V392.601M392.349 449.978V507.353M449.727 449.978H507.102M449.727 449.978V392.601M449.727 449.978V507.353M507.102 449.978H564.476M507.102 449.978V392.601M507.102 449.978V507.353M564.476 449.978H621.853M564.476 449.978V392.601M564.476 449.978V507.353M621.853 449.978H679.228M621.853 449.978V392.601M621.853 449.978V507.353M679.228 449.978H736.606M679.228 449.978V392.601M679.228 449.978V507.353M736.606 449.978H793.981M736.606 449.978V392.601M736.606 449.978V507.353M793.981 449.978H851.355M793.981 449.978V392.601M793.981 449.978V507.353M851.355 449.978H908.733M851.355 449.978V392.601M851.355 449.978V507.353M908.733 449.978H966.108M908.733 449.978V392.601M908.733 449.978V507.353M966.108 449.978H1023.49M966.108 449.978V392.601M966.108 449.978V507.353M1023.49 449.978H1032M1023.49 449.978V392.601M1023.49 449.978V507.353M-42.8989 -9.0293H-9.28147M-9.28147 -9.0293H48.0963M-9.28147 -9.0293L-9.28146 -66.4053M-9.28147 -9.0293L-9.28147 48.3457M48.0963 -9.0293H105.471M48.0963 -9.0293V-66.4053M48.0963 -9.0293V48.3457M105.471 -9.0293H162.848M105.471 -9.0293V-66.4053M105.471 -9.0293V48.3457M162.848 -9.0293H220.223M162.848 -9.0293L162.848 -66.4053M162.848 -9.0293V48.3457M220.223 -9.0293H277.598M220.223 -9.0293V-66.4053M220.223 -9.0293V48.3457M277.598 -9.0293H334.976M277.598 -9.0293L277.598 -66.4053M277.598 -9.0293V48.3457M334.976 -9.0293H392.349M334.976 -9.0293L334.976 -66.4053M334.976 -9.0293V48.3457M392.349 -9.0293H449.727M392.349 -9.0293L392.349 -66.4053M392.349 -9.0293V48.3457M449.727 -9.0293H507.102M449.727 -9.0293L449.727 -66.4053M449.727 -9.0293V48.3457M507.102 -9.0293H564.476M507.102 -9.0293V-66.4053M507.102 -9.0293V48.3457M564.476 -9.0293H621.853M564.476 -9.0293V-66.4053M564.476 -9.0293V48.3457M621.853 -9.0293H679.228M621.853 -9.0293V-66.4053M621.853 -9.0293V48.3457M679.228 -9.0293H736.606M679.228 -9.0293V-66.4053M679.228 -9.0293V48.3457M736.606 -9.0293H793.981M736.606 -9.0293V-66.4053M736.606 -9.0293V48.3457M793.981 -9.0293H851.355M793.981 -9.0293V-66.4053M793.981 -9.0293V48.3457M851.355 -9.0293H908.733M851.355 -9.0293V-66.4053M851.355 -9.0293V48.3457M908.733 -9.0293H966.108M908.733 -9.0293V-66.4053M908.733 -9.0293V48.3457M966.108 -9.0293H1023.49M966.108 -9.0293V-66.4053M966.108 -9.0293V48.3457M1023.49 -9.0293H1032M1023.49 -9.0293V-66.4053M1023.49 -9.0293V48.3457M-42.8989 -238.533H-9.28146M-9.28146 -238.533H48.0963M-9.28146 -238.533V-258.701M-9.28146 -238.533L-9.28146 -181.157M48.0963 -238.533H105.471M48.0963 -238.533V-258.701M48.0963 -238.533V-181.157M105.471 -238.533H162.848M105.471 -238.533V-258.701M105.471 -238.533V-181.157M162.848 -238.533H220.223M162.848 -238.533V-258.701M162.848 -238.533V-181.157M220.223 -238.533H277.598M220.223 -238.533V-258.701M220.223 -238.533V-181.157M277.598 -238.533H334.976M277.598 -238.533V-258.701M277.598 -238.533V-181.157M334.976 -238.533H392.349M334.976 -238.533V-258.701M334.976 -238.533V-181.157M392.349 -238.533H449.727M392.349 -238.533V-258.701M392.349 -238.533V-181.157M449.727 -238.533H507.102M449.727 -238.533V-258.701M449.727 -238.533V-181.157M507.102 -238.533H564.476M507.102 -238.533V-258.701M507.102 -238.533V-181.157M564.476 -238.533H621.853M564.476 -238.533V-258.701M564.476 -238.533V-181.157M621.853 -238.533H679.228M621.853 -238.533V-258.701M621.853 -238.533V-181.157M679.228 -238.533H736.606M679.228 -238.533V-258.701M679.228 -238.533V-181.157M736.606 -238.533H793.981M736.606 -238.533V-258.701M736.606 -238.533V-181.157M793.981 -238.533H851.355M793.981 -238.533V-258.701M793.981 -238.533V-181.157M851.355 -238.533H908.733M851.355 -238.533V-258.701M851.355 -238.533V-181.157M908.733 -238.533H966.108M908.733 -238.533V-258.701M908.733 -238.533V-181.157M966.108 -238.533H1023.49M966.108 -238.533V-258.701M966.108 -238.533V-181.157M1023.49 -238.533H1032M1023.49 -238.533V-258.701M1023.49 -238.533V-181.157M-42.8989 564.728H-9.28149M-9.28149 564.728H48.0963M-9.28149 564.728L-9.28149 507.353M-9.28149 564.728V571.454M48.0963 564.728H105.471M48.0963 564.728V507.353M48.0963 564.728V571.454M105.471 564.728H162.848M105.471 564.728V507.353M105.471 564.728V571.454M162.848 564.728H220.223M162.848 564.728V507.353M162.848 564.728V571.454M220.223 564.728H277.598M220.223 564.728V507.353M220.223 564.728V571.454M277.598 564.728H334.976M277.598 564.728V507.353M277.598 564.728V571.454M334.976 564.728H392.349M334.976 564.728V507.353M334.976 564.728V571.454M392.349 564.728H449.727M392.349 564.728V507.353M392.349 564.728V571.454M449.727 564.728H507.102M449.727 564.728V507.353M449.727 564.728V571.454M507.102 564.728H564.476M507.102 564.728V507.353M507.102 564.728V571.454M564.476 564.728H621.853M564.476 564.728V507.353M564.476 564.728V571.454M621.853 564.728H679.228M621.853 564.728V507.353M621.853 564.728V571.454M679.228 564.728H736.606M679.228 564.728V507.353M679.228 564.728V571.454M736.606 564.728H793.981M736.606 564.728V507.353M736.606 564.728V571.454M793.981 564.728H851.355M793.981 564.728V507.353M793.981 564.728V571.454M851.355 564.728H908.733M851.355 564.728V507.353M851.355 564.728V571.454M908.733 564.728H966.108M908.733 564.728V507.353M908.733 564.728V571.454M966.108 564.728H1023.49M966.108 564.728V507.353M966.108 564.728V571.454M1023.49 564.728H1032M1023.49 564.728V507.353M1023.49 564.728V571.454M-42.8989 105.721H-9.28147M-9.28147 105.721H48.0963M-9.28147 105.721V48.3457M-9.28147 105.721L-9.28148 163.098M48.0963 105.721H105.471M48.0963 105.721L48.0963 48.3457M48.0963 105.721V163.098M105.471 105.721H162.848M105.471 105.721V48.3457M105.471 105.721L105.471 163.098M162.848 105.721H220.223M162.848 105.721V48.3457M162.848 105.721V163.098M220.223 105.721H277.598M220.223 105.721V48.3457M220.223 105.721L220.223 163.098M277.598 105.721H334.976M277.598 105.721V48.3457M277.598 105.721V163.098M334.976 105.721H392.349M334.976 105.721V48.3457M334.976 105.721V163.098M392.349 105.721H449.727M392.349 105.721V48.3457M392.349 105.721V163.098M449.727 105.721H507.102M449.727 105.721V48.3457M449.727 105.721V163.098M507.102 105.721H564.476M507.102 105.721V48.3457M507.102 105.721V163.098M564.476 105.721H621.853M564.476 105.721V48.3457M564.476 105.721V163.098M621.853 105.721H679.228M621.853 105.721V48.3457M621.853 105.721V163.098M679.228 105.721H736.606M679.228 105.721V48.3457M679.228 105.721V163.098M736.606 105.721H793.981M736.606 105.721V48.3457M736.606 105.721V163.098M793.981 105.721H851.355M793.981 105.721V48.3457M793.981 105.721V163.098M851.355 105.721H908.733M851.355 105.721V48.3457M851.355 105.721V163.098M908.733 105.721H966.108M908.733 105.721V48.3457M908.733 105.721V163.098M966.108 105.721H1023.49M966.108 105.721V48.3457M966.108 105.721V163.098M1023.49 105.721H1032M1023.49 105.721V48.3457M1023.49 105.721L1023.49 163.098M-42.8989 335.224H-9.28148M-9.28148 335.224H48.0963M-9.28148 335.224L-9.28148 277.85M-9.28148 335.224L-9.28149 392.601M48.0963 335.224H105.471M48.0963 335.224V277.85M48.0963 335.224V392.601M105.471 335.224H162.848M105.471 335.224V277.85M105.471 335.224V392.601M162.848 335.224H220.223M162.848 335.224V277.85M162.848 335.224L162.848 392.601M220.223 335.224H277.598M220.223 335.224V277.85M220.223 335.224V392.601M277.598 335.224H334.976M277.598 335.224V277.85M277.598 335.224L277.598 392.601M334.976 335.224H392.349M334.976 335.224V277.85M334.976 335.224L334.976 392.601M392.349 335.224H449.727M392.349 335.224V277.85M392.349 335.224L392.349 392.601M449.727 335.224H507.102M449.727 335.224V277.85M449.727 335.224L449.727 392.601M507.102 335.224H564.476M507.102 335.224V277.85M507.102 335.224V392.601M564.476 335.224H621.853M564.476 335.224V277.85M564.476 335.224V392.601M621.853 335.224H679.228M621.853 335.224V277.85M621.853 335.224V392.601M679.228 335.224H736.606M679.228 335.224V277.85M679.228 335.224V392.601M736.606 335.224H793.981M736.606 335.224V277.85M736.606 335.224V392.601M793.981 335.224H851.355M793.981 335.224V277.85M793.981 335.224V392.601M851.355 335.224H908.733M851.355 335.224V277.85M851.355 335.224V392.601M908.733 335.224H966.108M908.733 335.224V277.85M908.733 335.224V392.601M966.108 335.224H1023.49M966.108 335.224V277.85M966.108 335.224V392.601M1023.49 335.224H1032M1023.49 335.224V277.85M1023.49 335.224V392.601M-42.8989 -123.78H-9.28146M-9.28146 -123.78H48.0963M-9.28146 -123.78L-9.28146 -181.157M-9.28146 -123.78V-66.4053M48.0963 -123.78H105.471M48.0963 -123.78L48.0963 -181.157M48.0963 -123.78V-66.4053M105.471 -123.78H162.848M105.471 -123.78V-181.157M105.471 -123.78L105.471 -66.4053M162.848 -123.78H220.223M162.848 -123.78V-181.157M162.848 -123.78V-66.4053M220.223 -123.78H277.598M220.223 -123.78V-181.157M220.223 -123.78V-66.4053M277.598 -123.78H334.976M277.598 -123.78V-181.157M277.598 -123.78V-66.4053M334.976 -123.78H392.349M334.976 -123.78V-181.157M334.976 -123.78V-66.4053M392.349 -123.78H449.727M392.349 -123.78V-181.157M392.349 -123.78V-66.4053M449.727 -123.78H507.102M449.727 -123.78V-181.157M449.727 -123.78V-66.4053M507.102 -123.78H564.476M507.102 -123.78V-181.157M507.102 -123.78V-66.4053M564.476 -123.78H621.853M564.476 -123.78V-181.157M564.476 -123.78V-66.4053M621.853 -123.78H679.228M621.853 -123.78V-181.157M621.853 -123.78V-66.4053M679.228 -123.78H736.606M679.228 -123.78V-181.157M679.228 -123.78V-66.4053M736.606 -123.78H793.981M736.606 -123.78V-181.157M736.606 -123.78V-66.4053M793.981 -123.78H851.355M793.981 -123.78V-181.157M793.981 -123.78V-66.4053M851.355 -123.78H908.733M851.355 -123.78V-181.157M851.355 -123.78V-66.4053M908.733 -123.78H966.108M908.733 -123.78V-181.157M908.733 -123.78V-66.4053M966.108 -123.78H1023.49M966.108 -123.78V-181.157M966.108 -123.78V-66.4053M1023.49 -123.78H1032M1023.49 -123.78V-181.157M1023.49 -123.78V-66.4053M-42.8989 163.098H-9.28148M-9.28148 163.098H48.0963M48.0963 163.098H105.471M105.471 163.098H162.848M162.848 163.098H220.223M220.223 163.098H277.598M277.598 163.098H334.976M334.976 163.098H392.349M392.349 163.098H449.727M449.727 163.098H507.102M507.102 163.098H564.476M564.476 163.098H621.853M621.853 163.098H679.228M679.228 163.098H736.606M736.606 163.098H793.981M793.981 163.098H851.355M851.355 163.098H908.733M908.733 163.098H966.108M966.108 163.098H1023.49M1023.49 163.098H1032M-42.8989 392.601H-9.28149M-9.28149 392.601H48.0963M48.0963 392.601H105.471M105.471 392.601H162.848M162.848 392.601H220.223M220.223 392.601H277.598M277.598 392.601H334.976M334.976 392.601H392.349M392.349 392.601H449.727M449.727 392.601H507.102M507.102 392.601H564.476M564.476 392.601H621.853M621.853 392.601H679.228M679.228 392.601H736.606M736.606 392.601H793.981M793.981 392.601H851.355M851.355 392.601H908.733M908.733 392.601H966.108M966.108 392.601H1023.49M1023.49 392.601H1032M-42.8989 -66.4053H-9.28146M-9.28146 -66.4053H48.0963M48.0963 -66.4053H105.471M105.471 -66.4053H162.848M162.848 -66.4053H220.223M220.223 -66.4053H277.598M277.598 -66.4053H334.976M334.976 -66.4053H392.349M392.349 -66.4053H449.727M449.727 -66.4053H507.102M507.102 -66.4053H564.476M564.476 -66.4053H621.853M621.853 -66.4053H679.228M679.228 -66.4053H736.606M736.606 -66.4053H793.981M793.981 -66.4053H851.355M851.355 -66.4053H908.733M908.733 -66.4053H966.108M966.108 -66.4053H1023.49M1023.49 -66.4053H1032M-42.8989 507.353H-9.28149M-9.28149 507.353H48.0963M48.0963 507.353H105.471M105.471 507.353H162.848M162.848 507.353H220.223M220.223 507.353H277.598M277.598 507.353H334.976M334.976 507.353H392.349M392.349 507.353H449.727M449.727 507.353H507.102M507.102 507.353H564.476M564.476 507.353H621.853M621.853 507.353H679.228M679.228 507.353H736.606M736.606 507.353H793.981M793.981 507.353H851.355M851.355 507.353H908.733M908.733 507.353H966.108M966.108 507.353H1023.49M1023.49 507.353H1032M-42.8989 48.3457H-9.28147M-9.28147 48.3457H48.0963M48.0963 48.3457H105.471M105.471 48.3457H162.848M162.848 48.3457H220.223M220.223 48.3457H277.598M277.598 48.3457H334.976M334.976 48.3457H392.349M392.349 48.3457H449.727M449.727 48.3457H507.102M507.102 48.3457H564.476M564.476 48.3457H621.853M621.853 48.3457H679.228M679.228 48.3457H736.606M736.606 48.3457H793.981M793.981 48.3457H851.355M851.355 48.3457H908.733M908.733 48.3457H966.108M966.108 48.3457H1023.49M1023.49 48.3457H1032M-42.8989 277.85H-9.28148M-9.28148 277.85H48.0963M48.0963 277.85H105.471M105.471 277.85H162.848M162.848 277.85H220.223M220.223 277.85H277.598M277.598 277.85H334.976M334.976 277.85H392.349M392.349 277.85H449.727M449.727 277.85H507.102M507.102 277.85H564.476M564.476 277.85H621.853M621.853 277.85H679.228M679.228 277.85H736.606M736.606 277.85H793.981M793.981 277.85H851.355M851.355 277.85H908.733M908.733 277.85H966.108M966.108 277.85H1023.49M1023.49 277.85H1032M-42.8989 -181.157H-9.28146M-9.28146 -181.157H48.0963M48.0963 -181.157H105.471M105.471 -181.157H162.848M162.848 -181.157H220.223M220.223 -181.157H277.598M277.598 -181.157H334.976M334.976 -181.157H392.349M392.349 -181.157H449.727M449.727 -181.157H507.102M507.102 -181.157H564.476M564.476 -181.157H621.853M621.853 -181.157H679.228M679.228 -181.157H736.606M736.606 -181.157H793.981M793.981 -181.157H851.355M851.355 -181.157H908.733M908.733 -181.157H966.108M966.108 -181.157H1023.49M1023.49 -181.157H1032M990 220.474H1023.62M1023.62 220.474H1081M1023.62 220.474V163.098M1023.62 220.474V277.85M1081 220.474H1138.37M1081 220.474V163.098M1081 220.474V277.85M1138.37 220.474H1195.75M1138.37 220.474V163.098M1138.37 220.474V277.85M1195.75 220.474H1253.12M1195.75 220.474V163.098M1195.75 220.474V277.85M1253.12 220.474H1310.5M1253.12 220.474V163.098M1253.12 220.474V277.85M1310.5 220.474H1367.87M1310.5 220.474V163.098M1310.5 220.474V277.85M1367.87 220.474H1425.25M1367.87 220.474V163.098M1367.87 220.474V277.85M1425.25 220.474H1482.63M1425.25 220.474V163.098M1425.25 220.474V277.85M1482.63 220.474H1540M1482.63 220.474V163.098M1482.63 220.474V277.85M1540 220.474H1597.37M1540 220.474V163.098M1540 220.474V277.85M1597.37 220.474H1654.75M1597.37 220.474V163.098M1597.37 220.474V277.85M1654.75 220.474H1712.13M1654.75 220.474V163.098M1654.75 220.474V277.85M1712.13 220.474H1769.5M1712.13 220.474V163.098M1712.13 220.474V277.85M1769.5 220.474H1826.88M1769.5 220.474V163.098M1769.5 220.474V277.85M1826.88 220.474H1884.25M1826.88 220.474V163.098M1826.88 220.474V277.85M1884.25 220.474H1941.63M1884.25 220.474V163.098M1884.25 220.474V277.85M1941.63 220.474H1999.01M1941.63 220.474V163.098M1941.63 220.474V277.85M1999.01 220.474H2056.38M1999.01 220.474V163.098M1999.01 220.474V277.85M2056.38 220.474H2064.9M2056.38 220.474V163.098M2056.38 220.474V277.85M990 449.978H1023.62M1023.62 449.978H1081M1023.62 449.978V392.601M1023.62 449.978V507.353M1081 449.978H1138.37M1081 449.978V392.601M1081 449.978V507.353M1138.37 449.978H1195.75M1138.37 449.978V392.601M1138.37 449.978V507.353M1195.75 449.978H1253.12M1195.75 449.978V392.601M1195.75 449.978V507.353M1253.12 449.978H1310.5M1253.12 449.978V392.601M1253.12 449.978V507.353M1310.5 449.978H1367.87M1310.5 449.978V392.601M1310.5 449.978V507.353M1367.87 449.978H1425.25M1367.87 449.978V392.601M1367.87 449.978V507.353M1425.25 449.978H1482.63M1425.25 449.978V392.601M1425.25 449.978V507.353M1482.63 449.978H1540M1482.63 449.978V392.601M1482.63 449.978V507.353M1540 449.978H1597.37M1540 449.978V392.601M1540 449.978V507.353M1597.37 449.978H1654.75M1597.37 449.978V392.601M1597.37 449.978V507.353M1654.75 449.978H1712.13M1654.75 449.978V392.601M1654.75 449.978V507.353M1712.13 449.978H1769.5M1712.13 449.978V392.601M1712.13 449.978V507.353M1769.5 449.978H1826.88M1769.5 449.978V392.601M1769.5 449.978V507.353M1826.88 449.978H1884.25M1826.88 449.978V392.601M1826.88 449.978V507.353M1884.25 449.978H1941.63M1884.25 449.978V392.601M1884.25 449.978V507.353M1941.63 449.978H1999.01M1941.63 449.978V392.601M1941.63 449.978V507.353M1999.01 449.978H2056.38M1999.01 449.978V392.601M1999.01 449.978V507.353M2056.38 449.978H2064.9M2056.38 449.978V392.601M2056.38 449.978V507.353M990 -9.02881H1023.62M1023.62 -9.02881H1081M1023.62 -9.02881V-66.4048M1023.62 -9.02881V48.3462M1081 -9.02881H1138.37M1081 -9.02881V-66.4048M1081 -9.02881V48.3462M1138.37 -9.02881H1195.75M1138.37 -9.02881V-66.4048M1138.37 -9.02881V48.3462M1195.75 -9.02881H1253.12M1195.75 -9.02881V-66.4048M1195.75 -9.02881V48.3462M1253.12 -9.02881H1310.5M1253.12 -9.02881V-66.4048M1253.12 -9.02881V48.3462M1310.5 -9.02881H1367.87M1310.5 -9.02881V-66.4048M1310.5 -9.02881V48.3462M1367.87 -9.02881H1425.25M1367.87 -9.02881V-66.4048M1367.87 -9.02881V48.3462M1425.25 -9.02881H1482.63M1425.25 -9.02881L1425.25 -66.4048M1425.25 -9.02881V48.3462M1482.63 -9.02881H1540M1482.63 -9.02881L1482.63 -66.4048M1482.63 -9.02881V48.3462M1540 -9.02881H1597.37M1540 -9.02881V-66.4048M1540 -9.02881V48.3462M1597.37 -9.02881H1654.75M1597.37 -9.02881V-66.4048M1597.37 -9.02881V48.3462M1654.75 -9.02881H1712.13M1654.75 -9.02881V-66.4048M1654.75 -9.02881V48.3462M1712.13 -9.02881H1769.5M1712.13 -9.02881V-66.4048M1712.13 -9.02881V48.3462M1769.5 -9.02881H1826.88M1769.5 -9.02881V-66.4048M1769.5 -9.02881V48.3462M1826.88 -9.02881H1884.25M1826.88 -9.02881V-66.4048M1826.88 -9.02881V48.3462M1884.25 -9.02881H1941.63M1884.25 -9.02881V-66.4048M1884.25 -9.02881V48.3462M1941.63 -9.02881H1999.01M1941.63 -9.02881V-66.4048M1941.63 -9.02881V48.3462M1999.01 -9.02881H2056.38M1999.01 -9.02881V-66.4048M1999.01 -9.02881V48.3462M2056.38 -9.02881H2064.9M2056.38 -9.02881V-66.4048M2056.38 -9.02881V48.3462M990 -238.533H1023.62M1023.62 -238.533H1081M1023.62 -238.533V-258.701M1023.62 -238.533V-181.157M1081 -238.533H1138.37M1081 -238.533V-258.701M1081 -238.533V-181.157M1138.37 -238.533H1195.75M1138.37 -238.533V-258.701M1138.37 -238.533V-181.157M1195.75 -238.533H1253.12M1195.75 -238.533V-258.701M1195.75 -238.533V-181.157M1253.12 -238.533H1310.5M1253.12 -238.533V-258.701M1253.12 -238.533V-181.157M1310.5 -238.533H1367.87M1310.5 -238.533V-258.701M1310.5 -238.533V-181.157M1367.87 -238.533H1425.25M1367.87 -238.533V-258.701M1367.87 -238.533V-181.157M1425.25 -238.533H1482.63M1425.25 -238.533V-258.701M1425.25 -238.533V-181.157M1482.63 -238.533H1540M1482.63 -238.533V-258.701M1482.63 -238.533V-181.157M1540 -238.533H1597.37M1540 -238.533V-258.701M1540 -238.533V-181.157M1597.37 -238.533H1654.75M1597.37 -238.533V-258.701M1597.37 -238.533V-181.157M1654.75 -238.533H1712.13M1654.75 -238.533V-258.701M1654.75 -238.533V-181.157M1712.13 -238.533H1769.5M1712.13 -238.533V-258.701M1712.13 -238.533V-181.157M1769.5 -238.533H1826.88M1769.5 -238.533V-258.701M1769.5 -238.533V-181.157M1826.88 -238.533H1884.25M1826.88 -238.533V-258.701M1826.88 -238.533V-181.157M1884.25 -238.533H1941.63M1884.25 -238.533V-258.701M1884.25 -238.533V-181.157M1941.63 -238.533H1999.01M1941.63 -238.533V-258.701M1941.63 -238.533V-181.157M1999.01 -238.533H2056.38M1999.01 -238.533V-258.701M1999.01 -238.533V-181.157M2056.38 -238.533H2064.9M2056.38 -238.533V-258.701M2056.38 -238.533V-181.157M990 564.729H1023.62M1023.62 564.729H1081M1023.62 564.729V507.353M1023.62 564.729V571.454M1081 564.729H1138.37M1081 564.729V507.353M1081 564.729V571.454M1138.37 564.729H1195.75M1138.37 564.729V507.353M1138.37 564.729V571.454M1195.75 564.729H1253.12M1195.75 564.729V507.353M1195.75 564.729V571.454M1253.12 564.729H1310.5M1253.12 564.729V507.353M1253.12 564.729V571.454M1310.5 564.729H1367.87M1310.5 564.729V507.353M1310.5 564.729V571.454M1367.87 564.729H1425.25M1367.87 564.729V507.353M1367.87 564.729V571.454M1425.25 564.729H1482.63M1425.25 564.729V507.353M1425.25 564.729V571.454M1482.63 564.729H1540M1482.63 564.729V507.353M1482.63 564.729V571.454M1540 564.729H1597.37M1540 564.729V507.353M1540 564.729V571.454M1597.37 564.729H1654.75M1597.37 564.729V507.353M1597.37 564.729V571.454M1654.75 564.729H1712.13M1654.75 564.729V507.353M1654.75 564.729V571.454M1712.13 564.729H1769.5M1712.13 564.729V507.353M1712.13 564.729V571.454M1769.5 564.729H1826.88M1769.5 564.729V507.353M1769.5 564.729V571.454M1826.88 564.729H1884.25M1826.88 564.729V507.353M1826.88 564.729V571.454M1884.25 564.729H1941.63M1884.25 564.729V507.353M1884.25 564.729V571.454M1941.63 564.729H1999.01M1941.63 564.729V507.353M1941.63 564.729V571.454M1999.01 564.729H2056.38M1999.01 564.729V507.353M1999.01 564.729V571.454M2056.38 564.729H2064.9M2056.38 564.729V507.353M2056.38 564.729V571.454M990 105.721H1023.62M1023.62 105.721H1081M1023.62 105.721V48.3462M1023.62 105.721V163.098M1081 105.721H1138.37M1081 105.721V48.3462M1081 105.721V163.098M1138.37 105.721H1195.75M1138.37 105.721V48.3462M1138.37 105.721L1138.37 163.098M1195.75 105.721H1253.12M1195.75 105.721V48.3462M1195.75 105.721V163.098M1253.12 105.721H1310.5M1253.12 105.721V48.3462M1253.12 105.721V163.098M1310.5 105.721H1367.87M1310.5 105.721V48.3462M1310.5 105.721V163.098M1367.87 105.721H1425.25M1367.87 105.721V48.3462M1367.87 105.721V163.098M1425.25 105.721H1482.63M1425.25 105.721V48.3462M1425.25 105.721V163.098M1482.63 105.721H1540M1482.63 105.721V48.3462M1482.63 105.721V163.098M1540 105.721H1597.37M1540 105.721V48.3462M1540 105.721V163.098M1597.37 105.721H1654.75M1597.37 105.721V48.3462M1597.37 105.721V163.098M1654.75 105.721H1712.13M1654.75 105.721V48.3462M1654.75 105.721V163.098M1712.13 105.721H1769.5M1712.13 105.721V48.3462M1712.13 105.721V163.098M1769.5 105.721H1826.88M1769.5 105.721V48.3462M1769.5 105.721V163.098M1826.88 105.721H1884.25M1826.88 105.721V48.3462M1826.88 105.721V163.098M1884.25 105.721H1941.63M1884.25 105.721V48.3462M1884.25 105.721V163.098M1941.63 105.721H1999.01M1941.63 105.721V48.3462M1941.63 105.721V163.098M1999.01 105.721H2056.38M1999.01 105.721V48.3462M1999.01 105.721V163.098M2056.38 105.721H2064.9M2056.38 105.721V48.3462M2056.38 105.721V163.098M990 335.225H1023.62M1023.62 335.225H1081M1023.62 335.225V277.85M1023.62 335.225V392.601M1081 335.225H1138.37M1081 335.225V277.85M1081 335.225V392.601M1138.37 335.225H1195.75M1138.37 335.225V277.85M1138.37 335.225V392.601M1195.75 335.225H1253.12M1195.75 335.225V277.85M1195.75 335.225V392.601M1253.12 335.225H1310.5M1253.12 335.225V277.85M1253.12 335.225V392.601M1310.5 335.225H1367.87M1310.5 335.225V277.85M1310.5 335.225V392.601M1367.87 335.225H1425.25M1367.87 335.225V277.85M1367.87 335.225V392.601M1425.25 335.225H1482.63M1425.25 335.225V277.85M1425.25 335.225V392.601M1482.63 335.225H1540M1482.63 335.225V277.85M1482.63 335.225V392.601M1540 335.225H1597.37M1540 335.225V277.85M1540 335.225V392.601M1597.37 335.225H1654.75M1597.37 335.225V277.85M1597.37 335.225V392.601M1654.75 335.225H1712.13M1654.75 335.225V277.85M1654.75 335.225V392.601M1712.13 335.225H1769.5M1712.13 335.225V277.85M1712.13 335.225V392.601M1769.5 335.225H1826.88M1769.5 335.225V277.85M1769.5 335.225V392.601M1826.88 335.225H1884.25M1826.88 335.225V277.85M1826.88 335.225V392.601M1884.25 335.225H1941.63M1884.25 335.225V277.85M1884.25 335.225V392.601M1941.63 335.225H1999.01M1941.63 335.225V277.85M1941.63 335.225V392.601M1999.01 335.225H2056.38M1999.01 335.225V277.85M1999.01 335.225V392.601M2056.38 335.225H2064.9M2056.38 335.225V277.85M2056.38 335.225V392.601M990 -123.78H1023.62M1023.62 -123.78H1081M1023.62 -123.78V-181.157M1023.62 -123.78V-66.4048M1081 -123.78H1138.37M1081 -123.78V-181.157M1081 -123.78V-66.4048M1138.37 -123.78H1195.75M1138.37 -123.78V-181.157M1138.37 -123.78V-66.4048M1195.75 -123.78H1253.12M1195.75 -123.78V-181.157M1195.75 -123.78V-66.4048M1253.12 -123.78H1310.5M1253.12 -123.78V-181.157M1253.12 -123.78V-66.4048M1310.5 -123.78H1367.87M1310.5 -123.78V-181.157M1310.5 -123.78V-66.4048M1367.87 -123.78H1425.25M1367.87 -123.78V-181.157M1367.87 -123.78V-66.4048M1425.25 -123.78H1482.63M1425.25 -123.78V-181.157M1425.25 -123.78V-66.4048M1482.63 -123.78H1540M1482.63 -123.78V-181.157M1482.63 -123.78V-66.4048M1540 -123.78H1597.37M1540 -123.78V-181.157M1540 -123.78V-66.4048M1597.37 -123.78H1654.75M1597.37 -123.78V-181.157M1597.37 -123.78V-66.4048M1654.75 -123.78H1712.13M1654.75 -123.78V-181.157M1654.75 -123.78V-66.4048M1712.13 -123.78H1769.5M1712.13 -123.78V-181.157M1712.13 -123.78V-66.4048M1769.5 -123.78H1826.88M1769.5 -123.78V-181.157M1769.5 -123.78V-66.4048M1826.88 -123.78H1884.25M1826.88 -123.78V-181.157M1826.88 -123.78V-66.4048M1884.25 -123.78H1941.63M1884.25 -123.78V-181.157M1884.25 -123.78V-66.4048M1941.63 -123.78H1999.01M1941.63 -123.78V-181.157M1941.63 -123.78V-66.4048M1999.01 -123.78H2056.38M1999.01 -123.78V-181.157M1999.01 -123.78V-66.4048M2056.38 -123.78H2064.9M2056.38 -123.78V-181.157M2056.38 -123.78V-66.4048M990 163.098H1023.62M1023.62 163.098H1081M1081 163.098H1138.37M1138.37 163.098H1195.75M1195.75 163.098H1253.12M1253.12 163.098H1310.5M1310.5 163.098H1367.87M1367.87 163.098H1425.25M1425.25 163.098H1482.63M1482.63 163.098H1540M1540 163.098H1597.37M1597.37 163.098H1654.75M1654.75 163.098H1712.13M1712.13 163.098H1769.5M1769.5 163.098H1826.88M1826.88 163.098H1884.25M1884.25 163.098H1941.63M1941.63 163.098H1999.01M1999.01 163.098H2056.38M2056.38 163.098H2064.9M990 392.601H1023.62M1023.62 392.601H1081M1081 392.601H1138.37M1138.37 392.601H1195.75M1195.75 392.601H1253.12M1253.12 392.601H1310.5M1310.5 392.601H1367.87M1367.87 392.601H1425.25M1425.25 392.601H1482.63M1482.63 392.601H1540M1540 392.601H1597.37M1597.37 392.601H1654.75M1654.75 392.601H1712.13M1712.13 392.601H1769.5M1769.5 392.601H1826.88M1826.88 392.601H1884.25M1884.25 392.601H1941.63M1941.63 392.601H1999.01M1999.01 392.601H2056.38M2056.38 392.601H2064.9M990 -66.4048H1023.62M1023.62 -66.4048H1081M1081 -66.4048H1138.37M1138.37 -66.4048H1195.75M1195.75 -66.4048H1253.12M1253.12 -66.4048H1310.5M1310.5 -66.4048H1367.87M1367.87 -66.4048H1425.25M1425.25 -66.4048H1482.63M1482.63 -66.4048H1540M1540 -66.4048H1597.37M1597.37 -66.4048H1654.75M1654.75 -66.4048H1712.13M1712.13 -66.4048H1769.5M1769.5 -66.4048H1826.88M1826.88 -66.4048H1884.25M1884.25 -66.4048H1941.63M1941.63 -66.4048H1999.01M1999.01 -66.4048H2056.38M2056.38 -66.4048H2064.9M990 507.353H1023.62M1023.62 507.353H1081M1081 507.353H1138.37M1138.37 507.353H1195.75M1195.75 507.353H1253.12M1253.12 507.353H1310.5M1310.5 507.353H1367.87M1367.87 507.353H1425.25M1425.25 507.353H1482.63M1482.63 507.353H1540M1540 507.353H1597.37M1597.37 507.353H1654.75M1654.75 507.353H1712.13M1712.13 507.353H1769.5M1769.5 507.353H1826.88M1826.88 507.353H1884.25M1884.25 507.353H1941.63M1941.63 507.353H1999.01M1999.01 507.353H2056.38M2056.38 507.353H2064.9M990 48.3462H1023.62M1023.62 48.3462H1081M1081 48.3462H1138.37M1138.37 48.3462H1195.75M1195.75 48.3462H1253.12M1253.12 48.3462H1310.5M1310.5 48.3462H1367.87M1367.87 48.3462H1425.25M1425.25 48.3462H1482.63M1482.63 48.3462H1540M1540 48.3462H1597.37M1597.37 48.3462H1654.75M1654.75 48.3462H1712.13M1712.13 48.3462H1769.5M1769.5 48.3462H1826.88M1826.88 48.3462H1884.25M1884.25 48.3462H1941.63M1941.63 48.3462H1999.01M1999.01 48.3462H2056.38M2056.38 48.3462H2064.9M990 277.85H1023.62M1023.62 277.85H1081M1081 277.85H1138.37M1138.37 277.85H1195.75M1195.75 277.85H1253.12M1253.12 277.85H1310.5M1310.5 277.85H1367.87M1367.87 277.85H1425.25M1425.25 277.85H1482.63M1482.63 277.85H1540M1540 277.85H1597.37M1597.37 277.85H1654.75M1654.75 277.85H1712.13M1712.13 277.85H1769.5M1769.5 277.85H1826.88M1826.88 277.85H1884.25M1884.25 277.85H1941.63M1941.63 277.85H1999.01M1999.01 277.85H2056.38M2056.38 277.85H2064.9M990 -181.157H1023.62M1023.62 -181.157H1081M1081 -181.157H1138.37M1138.37 -181.157H1195.75M1195.75 -181.157H1253.12M1253.12 -181.157H1310.5M1310.5 -181.157H1367.87M1367.87 -181.157H1425.25M1425.25 -181.157H1482.63M1482.63 -181.157H1540M1540 -181.157H1597.37M1597.37 -181.157H1654.75M1654.75 -181.157H1712.13M1712.13 -181.157H1769.5M1769.5 -181.157H1826.88M1826.88 -181.157H1884.25M1884.25 -181.157H1941.63M1941.63 -181.157H1999.01M1999.01 -181.157H2056.38M2056.38 -181.157H2064.9M-42.8989 1023.63H-9.28172M-9.28172 1023.63H48.0961M-9.28172 1023.63L-9.28172 966.253M-9.28172 1023.63V1081M48.0961 1023.63H105.471M48.0961 1023.63V966.253M48.0961 1023.63L48.0961 1081M105.471 1023.63H162.848M105.471 1023.63V966.253M105.471 1023.63V1081M162.848 1023.63H220.223M162.848 1023.63V966.253M162.848 1023.63V1081M220.223 1023.63H277.597M220.223 1023.63V966.253M220.223 1023.63V1081M277.597 1023.63H334.975M277.597 1023.63V966.253M277.597 1023.63V1081M334.975 1023.63H392.349M334.975 1023.63V966.253M334.975 1023.63V1081M392.349 1023.63H449.727M392.349 1023.63V966.253M392.349 1023.63V1081M449.727 1023.63H507.102M449.727 1023.63V966.253M449.727 1023.63V1081M507.102 1023.63H564.475M507.102 1023.63V966.253M507.102 1023.63V1081M564.475 1023.63H621.853M564.475 1023.63V966.253M564.475 1023.63V1081M621.853 1023.63H679.228M621.853 1023.63V966.253M621.853 1023.63V1081M679.228 1023.63H736.605M679.228 1023.63V966.253M679.228 1023.63V1081M736.605 1023.63H793.981M736.605 1023.63V966.253M736.605 1023.63V1081M793.981 1023.63H851.355M793.981 1023.63V966.253M793.981 1023.63V1081M851.355 1023.63H908.733M851.355 1023.63V966.253M851.355 1023.63V1081M908.733 1023.63H966.107M908.733 1023.63V966.253M908.733 1023.63V1081M966.107 1023.63H1023.49M966.107 1023.63V966.253M966.107 1023.63V1081M1023.49 1023.63H1032M1023.49 1023.63V966.253M1023.49 1023.63V1081M-42.8989 1253.13H-9.28173M-9.28173 1253.13H48.0961M-9.28173 1253.13L-9.28173 1195.76M-9.28173 1253.13V1310.51M48.0961 1253.13H105.471M48.0961 1253.13V1195.76M48.0961 1253.13L48.0961 1310.51M105.471 1253.13H162.848M105.471 1253.13L105.471 1195.76M105.471 1253.13V1310.51M162.848 1253.13H220.223M162.848 1253.13V1195.76M162.848 1253.13V1310.51M220.223 1253.13H277.597M220.223 1253.13V1195.76M220.223 1253.13V1310.51M277.597 1253.13H334.975M277.597 1253.13V1195.76M277.597 1253.13V1310.51M334.975 1253.13H392.349M334.975 1253.13V1195.76M334.975 1253.13V1310.51M392.349 1253.13H449.727M392.349 1253.13V1195.76M392.349 1253.13V1310.51M449.727 1253.13H507.102M449.727 1253.13V1195.76M449.727 1253.13V1310.51M507.102 1253.13H564.475M507.102 1253.13V1195.76M507.102 1253.13V1310.51M564.475 1253.13H621.853M564.475 1253.13V1195.76M564.475 1253.13V1310.51M621.853 1253.13H679.228M621.853 1253.13V1195.76M621.853 1253.13V1310.51M679.228 1253.13H736.605M679.228 1253.13V1195.76M679.228 1253.13V1310.51M736.605 1253.13H793.981M736.605 1253.13V1195.76M736.605 1253.13V1310.51M793.981 1253.13H851.355M793.981 1253.13V1195.76M793.981 1253.13V1310.51M851.355 1253.13H908.733M851.355 1253.13V1195.76M851.355 1253.13V1310.51M908.733 1253.13H966.107M908.733 1253.13V1195.76M908.733 1253.13V1310.51M966.107 1253.13H1023.49M966.107 1253.13V1195.76M966.107 1253.13V1310.51M1023.49 1253.13H1032M1023.49 1253.13V1195.76M1023.49 1253.13V1310.51M-42.8989 794.126H-9.28171M-9.28171 794.126H48.0961M-9.28171 794.126L-9.28171 736.75M-9.28171 794.126L-9.28172 851.501M48.0961 794.126H105.471M48.0961 794.126V736.75M48.0961 794.126V851.501M105.471 794.126H162.848M105.471 794.126V736.75M105.471 794.126V851.501M162.848 794.126H220.223M162.848 794.126L162.848 736.75M162.848 794.126V851.501M220.223 794.126H277.597M220.223 794.126V736.75M220.223 794.126V851.501M277.597 794.126H334.975M277.597 794.126L277.597 736.75M277.597 794.126V851.501M334.975 794.126H392.349M334.975 794.126L334.975 736.75M334.975 794.126V851.501M392.349 794.126H449.727M392.349 794.126L392.349 736.75M392.349 794.126V851.501M449.727 794.126H507.102M449.727 794.126L449.727 736.75M449.727 794.126V851.501M507.102 794.126H564.475M507.102 794.126V736.75M507.102 794.126V851.501M564.475 794.126H621.853M564.475 794.126V736.75M564.475 794.126V851.501M621.853 794.126H679.228M621.853 794.126V736.75M621.853 794.126V851.501M679.228 794.126H736.605M679.228 794.126V736.75M679.228 794.126V851.501M736.605 794.126H793.981M736.605 794.126V736.75M736.605 794.126V851.501M793.981 794.126H851.355M793.981 794.126V736.75M793.981 794.126V851.501M851.355 794.126H908.733M851.355 794.126V736.75M851.355 794.126V851.501M908.733 794.126H966.107M908.733 794.126V736.75M908.733 794.126V851.501M966.107 794.126H1023.49M966.107 794.126V736.75M966.107 794.126V851.501M1023.49 794.126H1032M1023.49 794.126V736.75M1023.49 794.126V851.501M-42.8989 564.622H-9.2817M-9.2817 564.622H48.0961M-9.2817 564.622V544.454M-9.2817 564.622L-9.2817 621.998M48.0961 564.622H105.471M48.0961 564.622V544.454M48.0961 564.622V621.998M105.471 564.622H162.848M105.471 564.622V544.454M105.471 564.622V621.998M162.848 564.622H220.223M162.848 564.622V544.454M162.848 564.622V621.998M220.223 564.622H277.597M220.223 564.622V544.454M220.223 564.622V621.998M277.597 564.622H334.975M277.597 564.622V544.454M277.597 564.622V621.998M334.975 564.622H392.349M334.975 564.622V544.454M334.975 564.622V621.998M392.349 564.622H449.727M392.349 564.622V544.454M392.349 564.622V621.998M449.727 564.622H507.102M449.727 564.622V544.454M449.727 564.622V621.998M507.102 564.622H564.475M507.102 564.622V544.454M507.102 564.622V621.998M564.475 564.622H621.853M564.475 564.622V544.454M564.475 564.622V621.998M621.853 564.622H679.228M621.853 564.622V544.454M621.853 564.622V621.998M679.228 564.622H736.605M679.228 564.622V544.454M679.228 564.622V621.998M736.605 564.622H793.981M736.605 564.622V544.454M736.605 564.622V621.998M793.981 564.622H851.355M793.981 564.622V544.454M793.981 564.622V621.998M851.355 564.622H908.733M851.355 564.622V544.454M851.355 564.622V621.998M908.733 564.622H966.107M908.733 564.622V544.454M908.733 564.622V621.998M966.107 564.622H1023.49M966.107 564.622V544.454M966.107 564.622V621.998M1023.49 564.622H1032M1023.49 564.622V544.454M1023.49 564.622V621.998M-42.8989 1367.88H-9.28174M-9.28174 1367.88H48.0961M-9.28174 1367.88L-9.28173 1310.51M-9.28174 1367.88V1374.61M48.0961 1367.88H105.471M48.0961 1367.88V1310.51M48.0961 1367.88V1374.61M105.471 1367.88H162.848M105.471 1367.88V1310.51M105.471 1367.88V1374.61M162.848 1367.88H220.223M162.848 1367.88V1310.51M162.848 1367.88V1374.61M220.223 1367.88H277.597M220.223 1367.88V1310.51M220.223 1367.88V1374.61M277.597 1367.88H334.975M277.597 1367.88V1310.51M277.597 1367.88V1374.61M334.975 1367.88H392.349M334.975 1367.88V1310.51M334.975 1367.88V1374.61M392.349 1367.88H449.727M392.349 1367.88V1310.51M392.349 1367.88V1374.61M449.727 1367.88H507.102M449.727 1367.88V1310.51M449.727 1367.88V1374.61M507.102 1367.88H564.475M507.102 1367.88V1310.51M507.102 1367.88V1374.61M564.475 1367.88H621.853M564.475 1367.88V1310.51M564.475 1367.88V1374.61M621.853 1367.88H679.228M621.853 1367.88V1310.51M621.853 1367.88V1374.61M679.228 1367.88H736.605M679.228 1367.88V1310.51M679.228 1367.88V1374.61M736.605 1367.88H793.981M736.605 1367.88V1310.51M736.605 1367.88V1374.61M793.981 1367.88H851.355M793.981 1367.88V1310.51M793.981 1367.88V1374.61M851.355 1367.88H908.733M851.355 1367.88V1310.51M851.355 1367.88V1374.61M908.733 1367.88H966.107M908.733 1367.88V1310.51M908.733 1367.88V1374.61M966.107 1367.88H1023.49M966.107 1367.88V1310.51M966.107 1367.88V1374.61M1023.49 1367.88H1032M1023.49 1367.88V1310.51M1023.49 1367.88V1374.61M-42.8989 908.876H-9.28172M-9.28172 908.876H48.0961M-9.28172 908.876V851.501M-9.28172 908.876L-9.28172 966.253M48.0961 908.876H105.471M48.0961 908.876L48.0961 851.501M48.0961 908.876V966.253M105.471 908.876H162.848M105.471 908.876V851.501M105.471 908.876L105.471 966.253M162.848 908.876H220.223M162.848 908.876V851.501M162.848 908.876V966.253M220.223 908.876H277.597M220.223 908.876V851.501M220.223 908.876L220.223 966.253M277.597 908.876H334.975M277.597 908.876V851.501M277.597 908.876V966.253M334.975 908.876H392.349M334.975 908.876V851.501M334.975 908.876V966.253M392.349 908.876H449.727M392.349 908.876V851.501M392.349 908.876V966.253M449.727 908.876H507.102M449.727 908.876V851.501M449.727 908.876V966.253M507.102 908.876H564.475M507.102 908.876V851.501M507.102 908.876V966.253M564.475 908.876H621.853M564.475 908.876V851.501M564.475 908.876V966.253M621.853 908.876H679.228M621.853 908.876V851.501M621.853 908.876V966.253M679.228 908.876H736.605M679.228 908.876V851.501M679.228 908.876V966.253M736.605 908.876H793.981M736.605 908.876V851.501M736.605 908.876V966.253M793.981 908.876H851.355M793.981 908.876V851.501M793.981 908.876V966.253M851.355 908.876H908.733M851.355 908.876V851.501M851.355 908.876V966.253M908.733 908.876H966.107M908.733 908.876V851.501M908.733 908.876V966.253M966.107 908.876H1023.49M966.107 908.876V851.501M966.107 908.876V966.253M1023.49 908.876H1032M1023.49 908.876V851.501M1023.49 908.876L1023.49 966.253M-42.8989 1138.38H-9.28173M-9.28173 1138.38H48.0961M-9.28173 1138.38L-9.28172 1081M-9.28173 1138.38L-9.28173 1195.76M48.0961 1138.38H105.471M48.0961 1138.38V1081M48.0961 1138.38V1195.76M105.471 1138.38H162.848M105.471 1138.38V1081M105.471 1138.38V1195.76M162.848 1138.38H220.223M162.848 1138.38V1081M162.848 1138.38L162.848 1195.76M220.223 1138.38H277.597M220.223 1138.38V1081M220.223 1138.38V1195.76M277.597 1138.38H334.975M277.597 1138.38V1081M277.597 1138.38L277.597 1195.76M334.975 1138.38H392.349M334.975 1138.38V1081M334.975 1138.38L334.975 1195.76M392.349 1138.38H449.727M392.349 1138.38V1081M392.349 1138.38L392.349 1195.76M449.727 1138.38H507.102M449.727 1138.38V1081M449.727 1138.38L449.727 1195.76M507.102 1138.38H564.475M507.102 1138.38V1081M507.102 1138.38V1195.76M564.475 1138.38H621.853M564.475 1138.38V1081M564.475 1138.38V1195.76M621.853 1138.38H679.228M621.853 1138.38V1081M621.853 1138.38V1195.76M679.228 1138.38H736.605M679.228 1138.38V1081M679.228 1138.38V1195.76M736.605 1138.38H793.981M736.605 1138.38V1081M736.605 1138.38V1195.76M793.981 1138.38H851.355M793.981 1138.38V1081M793.981 1138.38V1195.76M851.355 1138.38H908.733M851.355 1138.38V1081M851.355 1138.38V1195.76M908.733 1138.38H966.107M908.733 1138.38V1081M908.733 1138.38V1195.76M966.107 1138.38H1023.49M966.107 1138.38V1081M966.107 1138.38V1195.76M1023.49 1138.38H1032M1023.49 1138.38V1081M1023.49 1138.38V1195.76M-42.8989 679.375H-9.28171M-9.28171 679.375H48.0961M-9.28171 679.375L-9.2817 621.998M-9.28171 679.375V736.75M48.0961 679.375H105.471M48.0961 679.375L48.0961 621.998M48.0961 679.375V736.75M105.471 679.375H162.848M105.471 679.375V621.998M105.471 679.375L105.471 736.75M162.848 679.375H220.223M162.848 679.375V621.998M162.848 679.375V736.75M220.223 679.375H277.597M220.223 679.375V621.998M220.223 679.375V736.75M277.597 679.375H334.975M277.597 679.375V621.998M277.597 679.375V736.75M334.975 679.375H392.349M334.975 679.375V621.998M334.975 679.375V736.75M392.349 679.375H449.727M392.349 679.375V621.998M392.349 679.375V736.75M449.727 679.375H507.102M449.727 679.375V621.998M449.727 679.375V736.75M507.102 679.375H564.475M507.102 679.375V621.998M507.102 679.375V736.75M564.475 679.375H621.853M564.475 679.375V621.998M564.475 679.375V736.75M621.853 679.375H679.228M621.853 679.375V621.998M621.853 679.375V736.75M679.228 679.375H736.605M679.228 679.375V621.998M679.228 679.375V736.75M736.605 679.375H793.981M736.605 679.375V621.998M736.605 679.375V736.75M793.981 679.375H851.355M793.981 679.375V621.998M793.981 679.375V736.75M851.355 679.375H908.733M851.355 679.375V621.998M851.355 679.375V736.75M908.733 679.375H966.107M908.733 679.375V621.998M908.733 679.375V736.75M966.107 679.375H1023.49M966.107 679.375V621.998M966.107 679.375V736.75M1023.49 679.375H1032M1023.49 679.375V621.998M1023.49 679.375V736.75M-42.8989 966.253H-9.28172M-9.28172 966.253H48.0961M48.0961 966.253H105.471M105.471 966.253H162.848M162.848 966.253H220.223M220.223 966.253H277.597M277.597 966.253H334.975M334.975 966.253H392.349M392.349 966.253H449.727M449.727 966.253H507.102M507.102 966.253H564.475M564.475 966.253H621.853M621.853 966.253H679.228M679.228 966.253H736.605M736.605 966.253H793.981M793.981 966.253H851.355M851.355 966.253H908.733M908.733 966.253H966.107M966.107 966.253H1023.49M1023.49 966.253H1032M-42.8989 1195.76H-9.28173M-9.28173 1195.76H48.0961M48.0961 1195.76H105.471M105.471 1195.76H162.848M162.848 1195.76H220.223M220.223 1195.76H277.597M277.597 1195.76H334.975M334.975 1195.76H392.349M392.349 1195.76H449.727M449.727 1195.76H507.102M507.102 1195.76H564.475M564.475 1195.76H621.853M621.853 1195.76H679.228M679.228 1195.76H736.605M736.605 1195.76H793.981M793.981 1195.76H851.355M851.355 1195.76H908.733M908.733 1195.76H966.107M966.107 1195.76H1023.49M1023.49 1195.76H1032M-42.8989 736.75H-9.28171M-9.28171 736.75H48.0961M48.0961 736.75H105.471M105.471 736.75H162.848M162.848 736.75H220.223M220.223 736.75H277.597M277.597 736.75H334.975M334.975 736.75H392.349M392.349 736.75H449.727M449.727 736.75H507.102M507.102 736.75H564.475M564.475 736.75H621.853M621.853 736.75H679.228M679.228 736.75H736.605M736.605 736.75H793.981M793.981 736.75H851.355M851.355 736.75H908.733M908.733 736.75H966.107M966.107 736.75H1023.49M1023.49 736.75H1032M-42.8989 1310.51H-9.28173M-9.28173 1310.51H48.0961M48.0961 1310.51H105.471M105.471 1310.51H162.848M162.848 1310.51H220.223M220.223 1310.51H277.597M277.597 1310.51H334.975M334.975 1310.51H392.349M392.349 1310.51H449.727M449.727 1310.51H507.102M507.102 1310.51H564.475M564.475 1310.51H621.853M621.853 1310.51H679.228M679.228 1310.51H736.605M736.605 1310.51H793.981M793.981 1310.51H851.355M851.355 1310.51H908.733M908.733 1310.51H966.107M966.107 1310.51H1023.49M1023.49 1310.51H1032M-42.8989 851.501H-9.28172M-9.28172 851.501H48.0961M48.0961 851.501H105.471M105.471 851.501H162.848M162.848 851.501H220.223M220.223 851.501H277.597M277.597 851.501H334.975M334.975 851.501H392.349M392.349 851.501H449.727M449.727 851.501H507.102M507.102 851.501H564.475M564.475 851.501H621.853M621.853 851.501H679.228M679.228 851.501H736.605M736.605 851.501H793.981M793.981 851.501H851.355M851.355 851.501H908.733M908.733 851.501H966.107M966.107 851.501H1023.49M1023.49 851.501H1032M-42.8989 1081H-9.28172M-9.28172 1081H48.0961M48.0961 1081H105.471M105.471 1081H162.848M162.848 1081H220.223M220.223 1081H277.597M277.597 1081H334.975M334.975 1081H392.349M392.349 1081H449.727M449.727 1081H507.102M507.102 1081H564.475M564.475 1081H621.853M621.853 1081H679.228M679.228 1081H736.605M736.605 1081H793.981M793.981 1081H851.355M851.355 1081H908.733M908.733 1081H966.107M966.107 1081H1023.49M1023.49 1081H1032M-42.8989 621.998H-9.2817M-9.2817 621.998H48.0961M48.0961 621.998H105.471M105.471 621.998H162.848M162.848 621.998H220.223M220.223 621.998H277.597M277.597 621.998H334.975M334.975 621.998H392.349M392.349 621.998H449.727M449.727 621.998H507.102M507.102 621.998H564.475M564.475 621.998H621.853M621.853 621.998H679.228M679.228 621.998H736.605M736.605 621.998H793.981M793.981 621.998H851.355M851.355 621.998H908.733M908.733 621.998H966.107M966.107 621.998H1023.49M1023.49 621.998H1032M990 1023.63H1023.62M1023.62 1023.63H1081M1023.62 1023.63V966.252M1023.62 1023.63V1081M1081 1023.63H1138.37M1081 1023.63V966.252M1081 1023.63V1081M1138.37 1023.63H1195.75M1138.37 1023.63V966.252M1138.37 1023.63V1081M1195.75 1023.63H1253.12M1195.75 1023.63V966.252M1195.75 1023.63V1081M1253.12 1023.63H1310.5M1253.12 1023.63V966.252M1253.12 1023.63V1081M1310.5 1023.63H1367.87M1310.5 1023.63V966.252M1310.5 1023.63V1081M1367.87 1023.63H1425.25M1367.87 1023.63V966.252M1367.87 1023.63V1081M1425.25 1023.63H1482.63M1425.25 1023.63V966.252M1425.25 1023.63V1081M1482.63 1023.63H1540M1482.63 1023.63V966.252M1482.63 1023.63V1081M1540 1023.63H1597.37M1540 1023.63V966.252M1540 1023.63V1081M1597.37 1023.63H1654.75M1597.37 1023.63V966.252M1597.37 1023.63V1081M1654.75 1023.63H1712.13M1654.75 1023.63V966.252M1654.75 1023.63V1081M1712.13 1023.63H1769.5M1712.13 1023.63V966.252M1712.13 1023.63V1081M1769.5 1023.63H1826.88M1769.5 1023.63V966.252M1769.5 1023.63V1081M1826.88 1023.63H1884.25M1826.88 1023.63V966.252M1826.88 1023.63V1081M1884.25 1023.63H1941.63M1884.25 1023.63V966.252M1884.25 1023.63V1081M1941.63 1023.63H1999.01M1941.63 1023.63V966.252M1941.63 1023.63V1081M1999.01 1023.63H2056.38M1999.01 1023.63V966.252M1999.01 1023.63V1081M2056.38 1023.63H2064.9M2056.38 1023.63V966.252M2056.38 1023.63V1081M990 1253.13H1023.62M1023.62 1253.13H1081M1023.62 1253.13V1195.76M1023.62 1253.13V1310.51M1081 1253.13H1138.37M1081 1253.13V1195.76M1081 1253.13V1310.51M1138.37 1253.13H1195.75M1138.37 1253.13V1195.76M1138.37 1253.13V1310.51M1195.75 1253.13H1253.12M1195.75 1253.13V1195.76M1195.75 1253.13V1310.51M1253.12 1253.13H1310.5M1253.12 1253.13V1195.76M1253.12 1253.13V1310.51M1310.5 1253.13H1367.87M1310.5 1253.13V1195.76M1310.5 1253.13V1310.51M1367.87 1253.13H1425.25M1367.87 1253.13V1195.76M1367.87 1253.13V1310.51M1425.25 1253.13H1482.63M1425.25 1253.13V1195.76M1425.25 1253.13V1310.51M1482.63 1253.13H1540M1482.63 1253.13V1195.76M1482.63 1253.13V1310.51M1540 1253.13H1597.37M1540 1253.13V1195.76M1540 1253.13V1310.51M1597.37 1253.13H1654.75M1597.37 1253.13V1195.76M1597.37 1253.13V1310.51M1654.75 1253.13H1712.13M1654.75 1253.13V1195.76M1654.75 1253.13V1310.51M1712.13 1253.13H1769.5M1712.13 1253.13V1195.76M1712.13 1253.13V1310.51M1769.5 1253.13H1826.88M1769.5 1253.13V1195.76M1769.5 1253.13V1310.51M1826.88 1253.13H1884.25M1826.88 1253.13V1195.76M1826.88 1253.13V1310.51M1884.25 1253.13H1941.63M1884.25 1253.13V1195.76M1884.25 1253.13V1310.51M1941.63 1253.13H1999.01M1941.63 1253.13V1195.76M1941.63 1253.13V1310.51M1999.01 1253.13H2056.38M1999.01 1253.13V1195.76M1999.01 1253.13V1310.51M2056.38 1253.13H2064.9M2056.38 1253.13V1195.76M2056.38 1253.13V1310.51M990 794.125H1023.62M1023.62 794.125H1081M1023.62 794.125V736.75M1023.62 794.125V851.5M1081 794.125H1138.37M1081 794.125V736.75M1081 794.125V851.5M1138.37 794.125H1195.75M1138.37 794.125V736.75M1138.37 794.125V851.5M1195.75 794.125H1253.12M1195.75 794.125V736.75M1195.75 794.125V851.5M1253.12 794.125H1310.5M1253.12 794.125V736.75M1253.12 794.125V851.5M1310.5 794.125H1367.87M1310.5 794.125V736.75M1310.5 794.125V851.5M1367.87 794.125H1425.25M1367.87 794.125V736.75M1367.87 794.125V851.5M1425.25 794.125H1482.63M1425.25 794.125L1425.25 736.75M1425.25 794.125V851.5M1482.63 794.125H1540M1482.63 794.125L1482.63 736.75M1482.63 794.125V851.5M1540 794.125H1597.37M1540 794.125V736.75M1540 794.125V851.5M1597.37 794.125H1654.75M1597.37 794.125V736.75M1597.37 794.125V851.5M1654.75 794.125H1712.13M1654.75 794.125V736.75M1654.75 794.125V851.5M1712.13 794.125H1769.5M1712.13 794.125V736.75M1712.13 794.125V851.5M1769.5 794.125H1826.88M1769.5 794.125V736.75M1769.5 794.125V851.5M1826.88 794.125H1884.25M1826.88 794.125V736.75M1826.88 794.125V851.5M1884.25 794.125H1941.63M1884.25 794.125V736.75M1884.25 794.125V851.5M1941.63 794.125H1999.01M1941.63 794.125V736.75M1941.63 794.125V851.5M1999.01 794.125H2056.38M1999.01 794.125V736.75M1999.01 794.125V851.5M2056.38 794.125H2064.9M2056.38 794.125V736.75M2056.38 794.125V851.5M990 564.622H1023.62M1023.62 564.622H1081M1023.62 564.622V544.454M1023.62 564.622V621.998M1081 564.622H1138.37M1081 564.622V544.454M1081 564.622V621.998M1138.37 564.622H1195.75M1138.37 564.622V544.454M1138.37 564.622V621.998M1195.75 564.622H1253.12M1195.75 564.622V544.454M1195.75 564.622V621.998M1253.12 564.622H1310.5M1253.12 564.622V544.454M1253.12 564.622V621.998M1310.5 564.622H1367.87M1310.5 564.622V544.454M1310.5 564.622V621.998M1367.87 564.622H1425.25M1367.87 564.622V544.454M1367.87 564.622V621.998M1425.25 564.622H1482.63M1425.25 564.622V544.454M1425.25 564.622V621.998M1482.63 564.622H1540M1482.63 564.622V544.454M1482.63 564.622V621.998M1540 564.622H1597.37M1540 564.622V544.454M1540 564.622V621.998M1597.37 564.622H1654.75M1597.37 564.622V544.454M1597.37 564.622V621.998M1654.75 564.622H1712.13M1654.75 564.622V544.454M1654.75 564.622V621.998M1712.13 564.622H1769.5M1712.13 564.622V544.454M1712.13 564.622V621.998M1769.5 564.622H1826.88M1769.5 564.622V544.454M1769.5 564.622V621.998M1826.88 564.622H1884.25M1826.88 564.622V544.454M1826.88 564.622V621.998M1884.25 564.622H1941.63M1884.25 564.622V544.454M1884.25 564.622V621.998M1941.63 564.622H1999.01M1941.63 564.622V544.454M1941.63 564.622V621.998M1999.01 564.622H2056.38M1999.01 564.622V544.454M1999.01 564.622V621.998M2056.38 564.622H2064.9M2056.38 564.622V544.454M2056.38 564.622V621.998M990 1367.88H1023.62M1023.62 1367.88H1081M1023.62 1367.88V1310.51M1023.62 1367.88V1374.61M1081 1367.88H1138.37M1081 1367.88V1310.51M1081 1367.88V1374.61M1138.37 1367.88H1195.75M1138.37 1367.88V1310.51M1138.37 1367.88V1374.61M1195.75 1367.88H1253.12M1195.75 1367.88V1310.51M1195.75 1367.88V1374.61M1253.12 1367.88H1310.5M1253.12 1367.88V1310.51M1253.12 1367.88V1374.61M1310.5 1367.88H1367.87M1310.5 1367.88V1310.51M1310.5 1367.88V1374.61M1367.87 1367.88H1425.25M1367.87 1367.88V1310.51M1367.87 1367.88V1374.61M1425.25 1367.88H1482.63M1425.25 1367.88V1310.51M1425.25 1367.88V1374.61M1482.63 1367.88H1540M1482.63 1367.88V1310.51M1482.63 1367.88V1374.61M1540 1367.88H1597.37M1540 1367.88V1310.51M1540 1367.88V1374.61M1597.37 1367.88H1654.75M1597.37 1367.88V1310.51M1597.37 1367.88V1374.61M1654.75 1367.88H1712.13M1654.75 1367.88V1310.51M1654.75 1367.88V1374.61M1712.13 1367.88H1769.5M1712.13 1367.88V1310.51M1712.13 1367.88V1374.61M1769.5 1367.88H1826.88M1769.5 1367.88V1310.51M1769.5 1367.88V1374.61M1826.88 1367.88H1884.25M1826.88 1367.88V1310.51M1826.88 1367.88V1374.61M1884.25 1367.88H1941.63M1884.25 1367.88V1310.51M1884.25 1367.88V1374.61M1941.63 1367.88H1999.01M1941.63 1367.88V1310.51M1941.63 1367.88V1374.61M1999.01 1367.88H2056.38M1999.01 1367.88V1310.51M1999.01 1367.88V1374.61M2056.38 1367.88H2064.9M2056.38 1367.88V1310.51M2056.38 1367.88V1374.61M990 908.875H1023.62M1023.62 908.875H1081M1023.62 908.875V851.5M1023.62 908.875V966.252M1081 908.875H1138.37M1081 908.875V851.5M1081 908.875V966.252M1138.37 908.875H1195.75M1138.37 908.875V851.5M1138.37 908.875L1138.37 966.252M1195.75 908.875H1253.12M1195.75 908.875V851.5M1195.75 908.875V966.252M1253.12 908.875H1310.5M1253.12 908.875V851.5M1253.12 908.875V966.252M1310.5 908.875H1367.87M1310.5 908.875V851.5M1310.5 908.875V966.252M1367.87 908.875H1425.25M1367.87 908.875V851.5M1367.87 908.875V966.252M1425.25 908.875H1482.63M1425.25 908.875V851.5M1425.25 908.875V966.252M1482.63 908.875H1540M1482.63 908.875V851.5M1482.63 908.875V966.252M1540 908.875H1597.37M1540 908.875V851.5M1540 908.875V966.252M1597.37 908.875H1654.75M1597.37 908.875V851.5M1597.37 908.875V966.252M1654.75 908.875H1712.13M1654.75 908.875V851.5M1654.75 908.875V966.252M1712.13 908.875H1769.5M1712.13 908.875V851.5M1712.13 908.875V966.252M1769.5 908.875H1826.88M1769.5 908.875V851.5M1769.5 908.875V966.252M1826.88 908.875H1884.25M1826.88 908.875V851.5M1826.88 908.875V966.252M1884.25 908.875H1941.63M1884.25 908.875V851.5M1884.25 908.875V966.252M1941.63 908.875H1999.01M1941.63 908.875V851.5M1941.63 908.875V966.252M1999.01 908.875H2056.38M1999.01 908.875V851.5M1999.01 908.875V966.252M2056.38 908.875H2064.9M2056.38 908.875V851.5M2056.38 908.875V966.252M990 1138.38H1023.62M1023.62 1138.38H1081M1023.62 1138.38V1081M1023.62 1138.38V1195.76M1081 1138.38H1138.37M1081 1138.38V1081M1081 1138.38V1195.76M1138.37 1138.38H1195.75M1138.37 1138.38V1081M1138.37 1138.38V1195.76M1195.75 1138.38H1253.12M1195.75 1138.38V1081M1195.75 1138.38V1195.76M1253.12 1138.38H1310.5M1253.12 1138.38V1081M1253.12 1138.38V1195.76M1310.5 1138.38H1367.87M1310.5 1138.38V1081M1310.5 1138.38V1195.76M1367.87 1138.38H1425.25M1367.87 1138.38V1081M1367.87 1138.38V1195.76M1425.25 1138.38H1482.63M1425.25 1138.38V1081M1425.25 1138.38V1195.76M1482.63 1138.38H1540M1482.63 1138.38V1081M1482.63 1138.38V1195.76M1540 1138.38H1597.37M1540 1138.38V1081M1540 1138.38V1195.76M1597.37 1138.38H1654.75M1597.37 1138.38V1081M1597.37 1138.38V1195.76M1654.75 1138.38H1712.13M1654.75 1138.38V1081M1654.75 1138.38V1195.76M1712.13 1138.38H1769.5M1712.13 1138.38V1081M1712.13 1138.38V1195.76M1769.5 1138.38H1826.88M1769.5 1138.38V1081M1769.5 1138.38V1195.76M1826.88 1138.38H1884.25M1826.88 1138.38V1081M1826.88 1138.38V1195.76M1884.25 1138.38H1941.63M1884.25 1138.38V1081M1884.25 1138.38V1195.76M1941.63 1138.38H1999.01M1941.63 1138.38V1081M1941.63 1138.38V1195.76M1999.01 1138.38H2056.38M1999.01 1138.38V1081M1999.01 1138.38V1195.76M2056.38 1138.38H2064.9M2056.38 1138.38V1081M2056.38 1138.38V1195.76M990 679.375H1023.62M1023.62 679.375H1081M1023.62 679.375V621.998M1023.62 679.375V736.75M1081 679.375H1138.37M1081 679.375V621.998M1081 679.375V736.75M1138.37 679.375H1195.75M1138.37 679.375V621.998M1138.37 679.375V736.75M1195.75 679.375H1253.12M1195.75 679.375V621.998M1195.75 679.375V736.75M1253.12 679.375H1310.5M1253.12 679.375V621.998M1253.12 679.375V736.75M1310.5 679.375H1367.87M1310.5 679.375V621.998M1310.5 679.375V736.75M1367.87 679.375H1425.25M1367.87 679.375V621.998M1367.87 679.375V736.75M1425.25 679.375H1482.63M1425.25 679.375V621.998M1425.25 679.375V736.75M1482.63 679.375H1540M1482.63 679.375V621.998M1482.63 679.375V736.75M1540 679.375H1597.37M1540 679.375V621.998M1540 679.375V736.75M1597.37 679.375H1654.75M1597.37 679.375V621.998M1597.37 679.375V736.75M1654.75 679.375H1712.13M1654.75 679.375V621.998M1654.75 679.375V736.75M1712.13 679.375H1769.5M1712.13 679.375V621.998M1712.13 679.375V736.75M1769.5 679.375H1826.88M1769.5 679.375V621.998M1769.5 679.375V736.75M1826.88 679.375H1884.25M1826.88 679.375V621.998M1826.88 679.375V736.75M1884.25 679.375H1941.63M1884.25 679.375V621.998M1884.25 679.375V736.75M1941.63 679.375H1999.01M1941.63 679.375V621.998M1941.63 679.375V736.75M1999.01 679.375H2056.38M1999.01 679.375V621.998M1999.01 679.375V736.75M2056.38 679.375H2064.9M2056.38 679.375V621.998M2056.38 679.375V736.75M990 966.252H1023.62M1023.62 966.252H1081M1081 966.252H1138.37M1138.37 966.252H1195.75M1195.75 966.252H1253.12M1253.12 966.252H1310.5M1310.5 966.252H1367.87M1367.87 966.252H1425.25M1425.25 966.252H1482.63M1482.63 966.252H1540M1540 966.252H1597.37M1597.37 966.252H1654.75M1654.75 966.252H1712.13M1712.13 966.252H1769.5M1769.5 966.252H1826.88M1826.88 966.252H1884.25M1884.25 966.252H1941.63M1941.63 966.252H1999.01M1999.01 966.252H2056.38M2056.38 966.252H2064.9M990 1195.76H1023.62M1023.62 1195.76H1081M1081 1195.76H1138.37M1138.37 1195.76H1195.75M1195.75 1195.76H1253.12M1253.12 1195.76H1310.5M1310.5 1195.76H1367.87M1367.87 1195.76H1425.25M1425.25 1195.76H1482.63M1482.63 1195.76H1540M1540 1195.76H1597.37M1597.37 1195.76H1654.75M1654.75 1195.76H1712.13M1712.13 1195.76H1769.5M1769.5 1195.76H1826.88M1826.88 1195.76H1884.25M1884.25 1195.76H1941.63M1941.63 1195.76H1999.01M1999.01 1195.76H2056.38M2056.38 1195.76H2064.9M990 736.75H1023.62M1023.62 736.75H1081M1081 736.75H1138.37M1138.37 736.75H1195.75M1195.75 736.75H1253.12M1253.12 736.75H1310.5M1310.5 736.75H1367.87M1367.87 736.75H1425.25M1425.25 736.75H1482.63M1482.63 736.75H1540M1540 736.75H1597.37M1597.37 736.75H1654.75M1654.75 736.75H1712.13M1712.13 736.75H1769.5M1769.5 736.75H1826.88M1826.88 736.75H1884.25M1884.25 736.75H1941.63M1941.63 736.75H1999.01M1999.01 736.75H2056.38M2056.38 736.75H2064.9M990 1310.51H1023.62M1023.62 1310.51H1081M1081 1310.51H1138.37M1138.37 1310.51H1195.75M1195.75 1310.51H1253.12M1253.12 1310.51H1310.5M1310.5 1310.51H1367.87M1367.87 1310.51H1425.25M1425.25 1310.51H1482.63M1482.63 1310.51H1540M1540 1310.51H1597.37M1597.37 1310.51H1654.75M1654.75 1310.51H1712.13M1712.13 1310.51H1769.5M1769.5 1310.51H1826.88M1826.88 1310.51H1884.25M1884.25 1310.51H1941.63M1941.63 1310.51H1999.01M1999.01 1310.51H2056.38M2056.38 1310.51H2064.9M990 851.5H1023.62M1023.62 851.5H1081M1081 851.5H1138.37M1138.37 851.5H1195.75M1195.75 851.5H1253.12M1253.12 851.5H1310.5M1310.5 851.5H1367.87M1367.87 851.5H1425.25M1425.25 851.5H1482.63M1482.63 851.5H1540M1540 851.5H1597.37M1597.37 851.5H1654.75M1654.75 851.5H1712.13M1712.13 851.5H1769.5M1769.5 851.5H1826.88M1826.88 851.5H1884.25M1884.25 851.5H1941.63M1941.63 851.5H1999.01M1999.01 851.5H2056.38M2056.38 851.5H2064.9M990 1081H1023.62M1023.62 1081H1081M1081 1081H1138.37M1138.37 1081H1195.75M1195.75 1081H1253.12M1253.12 1081H1310.5M1310.5 1081H1367.87M1367.87 1081H1425.25M1425.25 1081H1482.63M1482.63 1081H1540M1540 1081H1597.37M1597.37 1081H1654.75M1654.75 1081H1712.13M1712.13 1081H1769.5M1769.5 1081H1826.88M1826.88 1081H1884.25M1884.25 1081H1941.63M1941.63 1081H1999.01M1999.01 1081H2056.38M2056.38 1081H2064.9M990 621.998H1023.62M1023.62 621.998H1081M1081 621.998H1138.37M1138.37 621.998H1195.75M1195.75 621.998H1253.12M1253.12 621.998H1310.5M1310.5 621.998H1367.87M1367.87 621.998H1425.25M1425.25 621.998H1482.63M1482.63 621.998H1540M1540 621.998H1597.37M1597.37 621.998H1654.75M1654.75 621.998H1712.13M1712.13 621.998H1769.5M1769.5 621.998H1826.88M1826.88 621.998H1884.25M1884.25 621.998H1941.63M1941.63 621.998H1999.01M1999.01 621.998H2056.38M2056.38 621.998H2064.9" stroke="white" stroke-width="0.896496"/>
</g>
<defs>
<filter id="filter0_f_2_228" x="588.937" y="42.6438" width="886.073" height="859.685" filterUnits="userSpaceOnUse" color-interpolation-filters="sRGB">
<feFlood flood-opacity="0" result="BackgroundImageFix"/>
<feBlend mode="normal" in="SourceGraphic" in2="BackgroundImageFix" result="shape"/>
<feGaussianBlur stdDeviation="82" result="effect1_foregroundBlur_2_228"/>
</filter>
<filter id="filter1_f_2_228" x="-635.593" y="268.165" width="827.017" height="803.421" filterUnits="userSpaceOnUse" color-interpolation-filters="sRGB">
<feFlood flood-opacity="0" result="BackgroundImageFix"/>
<feBlend mode="normal" in="SourceGraphic" in2="BackgroundImageFix" result="shape"/>
<feGaussianBlur stdDeviation="82" result="effect1_foregroundBlur_2_228"/>
</filter>
<linearGradient id="paint0_linear_2_228" x1="842.062" y1="684.378" x2="1239.95" y2="279.68" gradientUnits="userSpaceOnUse">
<stop stop-color="#FFD700"/>
<stop offset="0.33" stop-color="#66CCFF"/>
<stop offset="1" stop-color="#003366"/>
</linearGradient>
<linearGradient id="paint1_linear_2_228" x1="-391.899" y1="859.345" x2="-36.1173" y2="497.472" gradientUnits="userSpaceOnUse">
<stop stop-color="#FFD700"/>
<stop offset="0.33" stop-color="#66CCFF"/>
<stop offset="1" stop-color="#003366"/>
</linearGradient>
<clipPath id="clip0_2_228">
<rect width="1466" height="1207" fill="white" transform="translate(-13 -140.5)"/>
</clipPath>
</defs>
</svg>
