<svg width="20" height="20" viewBox="0 0 20 20" fill="none" xmlns="http://www.w3.org/2000/svg">
<g clip-path="url(#clip0_2_1348)">
<path d="M3.33325 11.6667C3.17555 11.6672 3.02094 11.623 2.88737 11.5392C2.75381 11.4554 2.64677 11.3353 2.5787 11.1931C2.51063 11.0508 2.48432 10.8922 2.50283 10.7356C2.52133 10.579 2.5839 10.4308 2.68325 10.3084L10.9333 1.80835C10.9952 1.73691 11.0795 1.68864 11.1724 1.67146C11.2654 1.65427 11.3614 1.66919 11.4447 1.71377C11.5281 1.75834 11.5938 1.82993 11.6311 1.91677C11.6683 2.00361 11.675 2.10055 11.6499 2.19168L10.0499 7.20836C10.0028 7.33463 9.98691 7.47046 10.0038 7.6042C10.0206 7.73794 10.0697 7.8656 10.1467 7.97622C10.2237 8.08684 10.3264 8.17713 10.446 8.23933C10.5656 8.30154 10.6985 8.33381 10.8333 8.33337H16.6666C16.8243 8.33283 16.9789 8.37705 17.1125 8.46089C17.2461 8.54472 17.3531 8.66474 17.4212 8.80699C17.4892 8.94924 17.5155 9.10788 17.497 9.26449C17.4785 9.4211 17.416 9.56924 17.3166 9.69171L9.0666 18.1917C9.00471 18.2632 8.92038 18.3114 8.82745 18.3286C8.73451 18.3458 8.63849 18.3309 8.55515 18.2863C8.47182 18.2417 8.40611 18.1701 8.36882 18.0833C8.33152 17.9965 8.32486 17.8995 8.34993 17.8084L9.94993 12.7917C9.99711 12.6654 10.013 12.5296 9.99611 12.3959C9.97926 12.2621 9.93022 12.1345 9.85319 12.0239C9.77617 11.9132 9.67346 11.8229 9.55387 11.7607C9.43428 11.6985 9.30139 11.6663 9.1666 11.6667H3.33325Z" stroke="white" stroke-width="1.66635" stroke-linecap="round" stroke-linejoin="round"/>
</g>
<defs>
<clipPath id="clip0_2_1348">
<rect width="19.9962" height="19.9962" fill="white"/>
</clipPath>
</defs>
</svg>
