<svg width="20" height="20" viewBox="0 0 20 20" fill="none" xmlns="http://www.w3.org/2000/svg">
<g clip-path="url(#clip0_2_1370)">
<path d="M10 15.0001V4.16671" stroke="white" stroke-width="1.66635" stroke-linecap="round" stroke-linejoin="round"/>
<path d="M12.5 10.8333C11.779 10.6226 11.1457 10.1839 10.695 9.58292C10.2443 8.98198 10.0005 8.25118 10 7.5C9.99956 8.25118 9.75571 8.98198 9.30501 9.58292C8.8543 10.1839 8.221 10.6226 7.5 10.8333" stroke="white" stroke-width="1.66635" stroke-linecap="round" stroke-linejoin="round"/>
<path d="M14.665 5.41671C14.8568 5.08461 14.9696 4.71286 14.9947 4.3302C15.0198 3.94754 14.9565 3.56424 14.8098 3.20994C14.663 2.85565 14.4367 2.53986 14.1484 2.28701C13.8601 2.03416 13.5175 1.85103 13.1471 1.75177C12.7767 1.65252 12.3884 1.63981 12.0123 1.71463C11.6362 1.78944 11.2823 1.94978 10.9781 2.18323C10.6738 2.41669 10.4274 2.717 10.2578 3.06094C10.0882 3.40488 10 3.78322 10 4.1667C10 3.78322 9.91183 3.40488 9.74223 3.06094C9.57263 2.717 9.32619 2.41669 9.02196 2.18323C8.71773 1.94978 8.36387 1.78944 7.98776 1.71463C7.61164 1.63981 7.22336 1.65252 6.85295 1.75177C6.48254 1.85103 6.13992 2.03416 5.85161 2.28701C5.5633 2.53986 5.33702 2.85565 5.19028 3.20994C5.04353 3.56424 4.98026 3.94754 5.00536 4.3302C5.03046 4.71286 5.14324 5.08461 5.335 5.41671" stroke="white" stroke-width="1.66635" stroke-linecap="round" stroke-linejoin="round"/>
<path d="M14.9976 4.27085C15.4874 4.3968 15.9421 4.63256 16.3274 4.96028C16.7126 5.288 17.0182 5.69909 17.221 6.1624C17.4239 6.62571 17.5186 7.12911 17.4981 7.63446C17.4776 8.13981 17.3423 8.63386 17.1026 9.0792" stroke="white" stroke-width="1.66635" stroke-linecap="round" stroke-linejoin="round"/>
<path d="M15 15.0001C15.7338 15 16.447 14.7579 17.0291 14.3112C17.6112 13.8645 18.0297 13.2382 18.2196 12.5295C18.4095 11.8207 18.3603 11.0691 18.0795 10.3912C17.7987 9.71327 17.3021 9.14695 16.6667 8.78004" stroke="white" stroke-width="1.66635" stroke-linecap="round" stroke-linejoin="round"/>
<path d="M16.6393 14.5691C16.6977 15.021 16.6628 15.48 16.5369 15.9179C16.4109 16.3558 16.1965 16.7632 15.907 17.1149C15.6174 17.4667 15.2588 17.7554 14.8533 17.9631C14.4478 18.1708 14.004 18.2932 13.5493 18.3228C13.0946 18.3523 12.6387 18.2882 12.2098 18.1347C11.7808 17.9811 11.3879 17.7412 11.0553 17.4298C10.7227 17.1184 10.4575 16.7421 10.276 16.3242C10.0945 15.9063 10.0006 15.4556 10.0001 15C9.99961 15.4556 9.90573 15.9063 9.72424 16.3242C9.54274 16.7421 9.27751 17.1184 8.9449 17.4298C8.61229 17.7412 8.21937 17.9811 7.79042 18.1347C7.36146 18.2882 6.90557 18.3523 6.4509 18.3228C5.99624 18.2932 5.55244 18.1708 5.14693 17.9631C4.74143 17.7554 4.38281 17.4667 4.09324 17.1149C3.80366 16.7632 3.58928 16.3558 3.46332 15.9179C3.33736 15.48 3.30251 15.021 3.36091 14.5691" stroke="white" stroke-width="1.66635" stroke-linecap="round" stroke-linejoin="round"/>
<path d="M5.00003 15.0001C4.26627 15 3.55303 14.7579 2.97091 14.3112C2.38879 13.8645 1.97033 13.2382 1.78041 12.5295C1.5905 11.8207 1.63975 11.0691 1.92053 10.3912C2.20131 9.71327 2.69792 9.14695 3.33336 8.78004" stroke="white" stroke-width="1.66635" stroke-linecap="round" stroke-linejoin="round"/>
<path d="M5.00253 4.27085C4.5127 4.3968 4.05795 4.63256 3.67272 4.96028C3.28749 5.288 2.98189 5.69909 2.77906 6.1624C2.57623 6.62571 2.48149 7.12911 2.50201 7.63446C2.52254 8.13981 2.65779 8.63386 2.89752 9.0792" stroke="white" stroke-width="1.66635" stroke-linecap="round" stroke-linejoin="round"/>
</g>
<defs>
<clipPath id="clip0_2_1370">
<rect width="19.9962" height="19.9962" fill="white"/>
</clipPath>
</defs>
</svg>
