<svg width="20" height="20" viewBox="0 0 20 20" fill="none" xmlns="http://www.w3.org/2000/svg">
<path d="M9.99807 6.66542C14.1394 6.66542 17.4966 5.54635 17.4966 4.1659C17.4966 2.78545 14.1394 1.66638 9.99807 1.66638C5.85673 1.66638 2.49951 2.78545 2.49951 4.1659C2.49951 5.54635 5.85673 6.66542 9.99807 6.66542Z" stroke="#343434" stroke-width="2.08293" stroke-linecap="round" stroke-linejoin="round"/>
<path d="M2.49951 4.16589V15.8303C2.49951 16.4932 3.28954 17.129 4.69579 17.5977C6.10204 18.0665 8.00933 18.3298 9.99807 18.3298C11.9868 18.3298 13.8941 18.0665 15.3004 17.5977C16.7066 17.129 17.4966 16.4932 17.4966 15.8303V4.16589" stroke="#343434" stroke-width="2.08293" stroke-linecap="round" stroke-linejoin="round"/>
<path d="M2.49951 9.99805C2.49951 10.661 3.28954 11.2967 4.69579 11.7655C6.10204 12.2342 8.00933 12.4976 9.99807 12.4976C11.9868 12.4976 13.8941 12.2342 15.3004 11.7655C16.7066 11.2967 17.4966 10.661 17.4966 9.99805" stroke="#343434" stroke-width="2.08293" stroke-linecap="round" stroke-linejoin="round"/>
</svg>
