<svg width="20" height="20" viewBox="0 0 20 20" fill="none" xmlns="http://www.w3.org/2000/svg">
<path d="M3.33272 11.6644C3.17505 11.665 3.02047 11.6208 2.88693 11.5369C2.75339 11.4531 2.64638 11.3331 2.57832 11.1909C2.51026 11.0487 2.48396 10.8901 2.50246 10.7335C2.52096 10.5769 2.58351 10.4288 2.68284 10.3064L10.9313 1.80799C10.9931 1.73658 11.0774 1.68831 11.1704 1.67113C11.2633 1.65395 11.3593 1.66886 11.4426 1.71343C11.5259 1.758 11.5916 1.82957 11.6289 1.9164C11.6662 2.00322 11.6728 2.10014 11.6478 2.19125L10.0481 7.20696C10.0009 7.3332 9.98508 7.46901 10.0019 7.60272C10.0188 7.73643 10.0678 7.86406 10.1448 7.97466C10.2218 8.08526 10.3245 8.17553 10.4441 8.23772C10.5636 8.29992 10.6965 8.33218 10.8313 8.33174H16.6635C16.8212 8.3312 16.9757 8.37541 17.1093 8.45923C17.2428 8.54305 17.3498 8.66305 17.4179 8.80527C17.4859 8.94749 17.5122 9.1061 17.4937 9.26268C17.4752 9.41926 17.4127 9.56737 17.3134 9.68981L9.06495 18.1882C9.00308 18.2596 8.91876 18.3079 8.82584 18.325C8.73293 18.3422 8.63693 18.3273 8.55361 18.2827C8.47028 18.2382 8.40459 18.1666 8.3673 18.0798C8.33002 17.9929 8.32336 17.896 8.34842 17.8049L9.94811 12.7892C9.99528 12.663 10.0111 12.5272 9.99428 12.3935C9.97743 12.2597 9.9284 12.1321 9.85139 12.0215C9.77438 11.9109 9.67169 11.8206 9.55213 11.7584C9.43256 11.6963 9.2997 11.664 9.16493 11.6644H3.33272Z" stroke="#343434" stroke-width="2.08293" stroke-linecap="round" stroke-linejoin="round"/>
</svg>
