<svg width="20" height="20" viewBox="0 0 20 20" fill="none" xmlns="http://www.w3.org/2000/svg">
<g clip-path="url(#clip0_2_832)">
<path d="M9.99805 14.9971V4.16589" stroke="#343434" stroke-width="2.08293" stroke-linecap="round" stroke-linejoin="round"/>
<path d="M12.4976 10.8312C11.7767 10.6205 11.1435 10.1819 10.6929 9.58105C10.2423 8.98023 9.9985 8.24956 9.99805 7.49854C9.9976 8.24956 9.75381 8.98023 9.30319 9.58105C8.85257 10.1819 8.2194 10.6205 7.49854 10.8312" stroke="#343434" stroke-width="2.08293" stroke-linecap="round" stroke-linejoin="round"/>
<path d="M14.6622 5.41565C14.8539 5.08362 14.9667 4.71194 14.9917 4.32935C15.0168 3.94677 14.9536 3.56354 14.8069 3.20932C14.6601 2.85509 14.4339 2.53937 14.1457 2.28657C13.8574 2.03377 13.5149 1.85067 13.1445 1.75143C12.7742 1.6522 12.386 1.63949 12.0099 1.71429C11.6339 1.78909 11.2801 1.9494 10.9759 2.18281C10.6718 2.41622 10.4254 2.71647 10.2558 3.06034C10.0862 3.40421 9.99805 3.78248 9.99806 4.16589C9.99808 3.78248 9.90989 3.40421 9.74033 3.06034C9.57076 2.71647 9.32437 2.41622 9.02019 2.18281C8.71602 1.9494 8.36223 1.78909 7.9862 1.71429C7.61016 1.63949 7.22195 1.6522 6.85161 1.75143C6.48127 1.85067 6.13872 2.03377 5.85047 2.28657C5.56221 2.53937 5.33598 2.85509 5.18926 3.20932C5.04255 3.56354 4.97929 3.94677 5.00438 4.32935C5.02947 4.71194 5.14224 5.08362 5.33396 5.41565" stroke="#343434" stroke-width="2.08293" stroke-linecap="round" stroke-linejoin="round"/>
<path d="M14.9946 4.27002C15.4844 4.39594 15.939 4.63166 16.3242 4.95931C16.7093 5.28697 17.0149 5.69797 17.2177 6.1612C17.4205 6.62442 17.5152 7.12772 17.4947 7.63297C17.4741 8.13822 17.3389 8.63218 17.0992 9.07743" stroke="#343434" stroke-width="2.08293" stroke-linecap="round" stroke-linejoin="round"/>
<path d="M14.9971 14.9971C15.7307 14.9971 16.4438 14.755 17.0258 14.3084C17.6078 13.8618 18.0262 13.2356 18.2161 12.527C18.4059 11.8184 18.3567 11.0669 18.076 10.3891C17.7952 9.71137 17.2987 9.14516 16.6634 8.77832" stroke="#343434" stroke-width="2.08293" stroke-linecap="round" stroke-linejoin="round"/>
<path d="M16.636 14.5664C16.6944 15.0182 16.6596 15.4771 16.5337 15.9149C16.4077 16.3527 16.1934 16.76 15.9039 17.1117C15.6143 17.4634 15.2558 17.752 14.8504 17.9597C14.4449 18.1674 14.0012 18.2898 13.5467 18.3193C13.0921 18.3488 12.6363 18.2848 12.2074 18.1312C11.7785 17.9777 11.3857 17.7378 11.0531 17.4265C10.7206 17.1152 10.4554 16.739 10.274 16.3211C10.0925 15.9033 9.99863 15.4527 9.99815 14.9972C9.99766 15.4527 9.90379 15.9033 9.72234 16.3211C9.54088 16.739 9.27569 17.1152 8.94315 17.4265C8.61061 17.7378 8.21777 17.9777 7.78889 18.1312C7.36002 18.2848 6.90422 18.3488 6.44964 18.3193C5.99506 18.2898 5.55136 18.1674 5.14593 17.9597C4.7405 17.752 4.38195 17.4634 4.09244 17.1117C3.80292 16.76 3.58857 16.3527 3.46264 15.9149C3.33671 15.4771 3.30186 15.0182 3.36026 14.5664" stroke="#343434" stroke-width="2.08293" stroke-linecap="round" stroke-linejoin="round"/>
<path d="M4.99905 14.9971C4.26544 14.9971 3.55233 14.755 2.97033 14.3084C2.38832 13.8618 1.96994 13.2356 1.78007 12.527C1.59019 11.8184 1.63943 11.0669 1.92016 10.3891C2.20088 9.71137 2.6974 9.14516 3.3327 8.77832" stroke="#343434" stroke-width="2.08293" stroke-linecap="round" stroke-linejoin="round"/>
<path d="M5.00155 4.27002C4.51181 4.39594 4.05715 4.63166 3.672 4.95931C3.28685 5.28697 2.98131 5.69797 2.77852 6.1612C2.57573 6.62442 2.481 7.12772 2.50152 7.63297C2.52205 8.13822 2.65727 8.63218 2.89696 9.07743" stroke="#343434" stroke-width="2.08293" stroke-linecap="round" stroke-linejoin="round"/>
</g>
<defs>
<clipPath id="clip0_2_832">
<rect width="19.9962" height="19.9962" fill="white"/>
</clipPath>
</defs>
</svg>
