<svg preserveAspectRatio="none" width="100%" height="100%" overflow="visible" style="display: block;" viewBox="0 0 50 50" fill="none" xmlns="http://www.w3.org/2000/svg">
<g id="Frame">
<path id="Vector" d="M39.5833 22.9167H10.4167C8.11548 22.9167 6.25 24.7821 6.25 27.0833V41.6667C6.25 43.9679 8.11548 45.8333 10.4167 45.8333H39.5833C41.8845 45.8333 43.75 43.9679 43.75 41.6667V27.0833C43.75 24.7821 41.8845 22.9167 39.5833 22.9167Z" stroke="var(--stroke-0, #343434)" stroke-width="3" stroke-linecap="round" stroke-linejoin="round"/>
<path id="Vector_2" d="M14.5833 22.9167V14.5833C14.5833 11.8207 15.6808 9.17114 17.6343 7.21764C19.5878 5.26413 22.2373 4.16667 25 4.16667C27.7627 4.16667 30.4122 5.26413 32.3657 7.21764C34.3192 9.17114 35.4167 11.8207 35.4167 14.5833V22.9167" stroke="var(--stroke-0, #343434)" stroke-width="3" stroke-linecap="round" stroke-linejoin="round"/>
</g>
</svg>
