<svg preserveAspectRatio="none" width="100%" height="100%" overflow="visible" style="display: block;" viewBox="0 0 50 50" fill="none" xmlns="http://www.w3.org/2000/svg">
<g id="Frame">
<path id="Vector" d="M36.4583 39.5833H18.75C16.0456 39.5826 13.3946 38.8299 11.0933 37.4093C8.79202 35.9887 6.9311 33.9561 5.7185 31.5388C4.50589 29.1214 3.98938 26.4145 4.22667 23.7205C4.46396 21.0264 5.4457 18.4515 7.0622 16.2833C8.67869 14.1151 10.8663 12.4392 13.3804 11.4427C15.8946 10.4462 18.6364 10.1685 21.2993 10.6406C23.9622 11.1126 26.4414 12.3159 28.4599 14.1158C30.4783 15.9158 31.9565 18.2416 32.7292 20.8333H36.4583C38.9448 20.8333 41.3293 21.8211 43.0875 23.5792C44.8456 25.3374 45.8333 27.7219 45.8333 30.2083C45.8333 32.6947 44.8456 35.0793 43.0875 36.8375C41.3293 38.5956 38.9448 39.5833 36.4583 39.5833Z" stroke="var(--stroke-0, #343434)" stroke-width="3" stroke-linecap="round" stroke-linejoin="round"/>
</g>
</svg>
