<svg preserveAspectRatio="none" width="100%" height="100%" overflow="visible" style="display: block;" viewBox="0 0 50 50" fill="none" xmlns="http://www.w3.org/2000/svg">
<g id="Frame">
<path id="Vector" d="M41.6667 27.0843C41.6667 37.5009 34.375 42.7093 25.7083 45.7301C25.2545 45.8839 24.7615 45.8765 24.3125 45.7093C15.625 42.7093 8.33333 37.5009 8.33333 27.0843V12.5009C8.33333 11.9484 8.55283 11.4185 8.94353 11.0278C9.33423 10.6371 9.86413 10.4176 10.4167 10.4176C14.5833 10.4176 19.7917 7.9176 23.4167 4.75094C23.858 4.37385 24.4195 4.16667 25 4.16667C25.5805 4.16667 26.142 4.37385 26.5833 4.75094C30.2292 7.93844 35.4167 10.4176 39.5833 10.4176C40.1359 10.4176 40.6658 10.6371 41.0565 11.0278C41.4472 11.4185 41.6667 11.9484 41.6667 12.5009V27.0843Z" stroke="var(--stroke-0, #343434)" stroke-width="3" stroke-linecap="round" stroke-linejoin="round"/>
<path id="Vector_2" d="M18.75 25L22.9167 29.1667L31.25 20.8333" stroke="var(--stroke-0, #343434)" stroke-width="3" stroke-linecap="round" stroke-linejoin="round"/>
</g>
</svg>
