<svg width="1440" height="321" viewBox="0 0 1440 321" fill="none" xmlns="http://www.w3.org/2000/svg">
<g clip-path="url(#clip0_2034_2377)">
<mask id="path-1-inside-1_2034_2377" fill="white">
<path d="M0 0H1440V321H0V0Z"/>
</mask>
<g opacity="0.7">
<g filter="url(#filter0_f_2034_2377)">
<path d="M1241.97 -41.1096C1303.48 -75.2612 1422.21 -54.97 1456.28 6.22866C1490.34 67.4273 1476.45 135.743 1414.94 169.895C1353.43 204.046 1259.9 208.759 1225.83 147.56C1191.77 86.3617 1180.45 -6.95802 1241.97 -41.1096Z" fill="url(#paint0_linear_2034_2377)"/>
</g>
<g filter="url(#filter1_f_2034_2377)">
<path d="M1241.97 -41.1096C1303.48 -75.2612 1422.21 -54.97 1456.28 6.22866C1490.34 67.4273 1476.45 135.743 1414.94 169.895C1353.43 204.046 1259.9 208.759 1225.83 147.56C1191.77 86.3617 1180.45 -6.95802 1241.97 -41.1096Z" fill="url(#paint1_linear_2034_2377)"/>
</g>
</g>
<g opacity="0.7">
<g filter="url(#filter2_f_2034_2377)">
<path d="M-90.4896 330.65C-28.9777 296.499 89.7572 316.79 123.821 377.989C157.885 439.187 143.998 507.503 82.4856 541.654C20.9737 575.806 -72.5599 580.519 -106.624 519.32C-140.688 458.122 -152.002 364.802 -90.4896 330.65Z" fill="url(#paint2_linear_2034_2377)"/>
</g>
<g filter="url(#filter3_f_2034_2377)">
<path d="M-90.4896 330.65C-28.9777 296.499 89.7572 316.79 123.821 377.989C157.885 439.187 143.998 507.503 82.4856 541.654C20.9737 575.806 -72.5599 580.519 -106.624 519.32C-140.688 458.122 -152.002 364.802 -90.4896 330.65Z" fill="url(#paint3_linear_2034_2377)"/>
</g>
</g>
<g opacity="0.5">
<g filter="url(#filter4_f_2034_2377)">
<path d="M-111.875 248.723C-69.5736 238.117 -1.71884 269.271 8.88535 311.37C19.4895 353.469 0.239712 392.156 -42.0613 402.763C-84.3624 413.369 -141.128 401.222 -151.732 359.123C-162.336 317.023 -154.176 259.33 -111.875 248.723Z" fill="url(#paint4_linear_2034_2377)"/>
</g>
<g filter="url(#filter5_f_2034_2377)">
<path d="M-111.875 248.723C-69.5736 238.117 -1.71884 269.271 8.88535 311.37C19.4895 353.469 0.239712 392.156 -42.0613 402.763C-84.3624 413.369 -141.128 401.222 -151.732 359.123C-162.336 317.023 -154.176 259.33 -111.875 248.723Z" fill="url(#paint5_linear_2034_2377)"/>
</g>
</g>
<g opacity="0.5">
<g filter="url(#filter6_f_2034_2377)">
<path d="M1503.65 307.759C1545.95 297.152 1613.8 328.306 1624.41 370.406C1635.01 412.505 1615.76 451.192 1573.46 461.798C1531.16 472.405 1474.39 460.258 1463.79 418.158C1453.18 376.059 1461.34 318.365 1503.65 307.759Z" fill="url(#paint6_linear_2034_2377)"/>
</g>
<g filter="url(#filter7_f_2034_2377)">
<path d="M1503.65 307.759C1545.95 297.152 1613.8 328.306 1624.41 370.406C1635.01 412.505 1615.76 451.192 1573.46 461.798C1531.16 472.405 1474.39 460.258 1463.79 418.158C1453.18 376.059 1461.34 318.365 1503.65 307.759Z" fill="url(#paint7_linear_2034_2377)"/>
</g>
</g>
<g clip-path="url(#clip1_2034_2377)">
<path d="M-334.014 -79.8845H-300.397M-300.397 -79.8845H-243.019M-300.397 -79.8845L-300.397 -137.26M-300.397 -79.8845V-22.5085M-243.019 -79.8845H-185.644M-243.019 -79.8845V-137.26M-243.019 -79.8845L-243.019 -22.5085M-185.644 -79.8845H-128.267M-185.644 -79.8845V-137.26M-185.644 -79.8845V-22.5085M-128.267 -79.8845H-70.8922M-128.267 -79.8845V-137.26M-128.267 -79.8845V-22.5085M-70.8922 -79.8845H-13.5175M-70.8922 -79.8845V-137.26M-70.8922 -79.8845V-22.5085M-13.5175 -79.8845H43.8605M-13.5175 -79.8845V-137.26M-13.5175 -79.8845V-22.5085M43.8605 -79.8845H101.234M43.8605 -79.8845V-137.26M43.8605 -79.8845V-22.5085M101.234 -79.8845H158.612M101.234 -79.8845V-137.26M101.234 -79.8845V-22.5085M158.612 -79.8845H215.987M158.612 -79.8845V-137.26M158.612 -79.8845V-22.5085M215.987 -79.8845H273.36M215.987 -79.8845V-137.26M215.987 -79.8845V-22.5085M273.36 -79.8845H330.738M273.36 -79.8845V-137.26M273.36 -79.8845V-22.5085M330.738 -79.8845H388.113M330.738 -79.8845V-137.26M330.738 -79.8845V-22.5085M388.113 -79.8845H445.49M388.113 -79.8845V-137.26M388.113 -79.8845V-22.5085M445.49 -79.8845H502.866M445.49 -79.8845V-137.26M445.49 -79.8845V-22.5085M502.866 -79.8845H560.24M502.866 -79.8845V-137.26M502.866 -79.8845V-22.5085M560.24 -79.8845H617.618M560.24 -79.8845V-137.26M560.24 -79.8845V-22.5085M617.618 -79.8845H674.992M617.618 -79.8845V-137.26M617.618 -79.8845V-22.5085M674.992 -79.8845H732.37M674.992 -79.8845V-137.26M674.992 -79.8845V-22.5085M732.37 -79.8845H740.885M732.37 -79.8845V-137.26M732.37 -79.8845V-22.5085M-334.014 149.619H-300.397M-300.397 149.619H-243.019M-300.397 149.619L-300.397 92.2426M-300.397 149.619V206.994M-243.019 149.619H-185.644M-243.019 149.619V92.2426M-243.019 149.619L-243.019 206.994M-185.644 149.619H-128.267M-185.644 149.619L-185.644 92.2426M-185.644 149.619V206.994M-128.267 149.619H-70.8922M-128.267 149.619V92.2426M-128.267 149.619V206.994M-70.8922 149.619H-13.5176M-70.8922 149.619V92.2426M-70.8922 149.619V206.994M-13.5176 149.619H43.8604M-13.5176 149.619V92.2426M-13.5176 149.619V206.994M43.8604 149.619H101.234M43.8604 149.619V92.2426M43.8604 149.619V206.994M101.234 149.619H158.612M101.234 149.619V92.2426M101.234 149.619V206.994M158.612 149.619H215.987M158.612 149.619V92.2426M158.612 149.619V206.994M215.987 149.619H273.36M215.987 149.619V92.2426M215.987 149.619V206.994M273.36 149.619H330.738M273.36 149.619V92.2426M273.36 149.619V206.994M330.738 149.619H388.113M330.738 149.619V92.2426M330.738 149.619V206.994M388.113 149.619H445.49M388.113 149.619V92.2426M388.113 149.619V206.994M445.49 149.619H502.866M445.49 149.619V92.2426M445.49 149.619V206.994M502.866 149.619H560.24M502.866 149.619V92.2426M502.866 149.619V206.994M560.24 149.619H617.618M560.24 149.619V92.2426M560.24 149.619V206.994M617.618 149.619H674.992M617.618 149.619V92.2426M617.618 149.619V206.994M674.992 149.619H732.37M674.992 149.619V92.2426M674.992 149.619V206.994M732.37 149.619H740.885M732.37 149.619V92.2426M732.37 149.619V206.994M-334.014 -309.387H-300.397M-300.397 -309.387H-243.019M-300.397 -309.387L-300.397 -366.763M-300.397 -309.387L-300.397 -252.012M-243.019 -309.387H-185.644M-243.019 -309.387V-366.763M-243.019 -309.387V-252.012M-185.644 -309.387H-128.267M-185.644 -309.387V-366.763M-185.644 -309.387V-252.012M-128.267 -309.387H-70.8921M-128.267 -309.387L-128.267 -366.763M-128.267 -309.387V-252.012M-70.8921 -309.387H-13.5175M-70.8921 -309.387V-366.763M-70.8921 -309.387V-252.012M-13.5175 -309.387H43.8605M-13.5175 -309.387L-13.5175 -366.763M-13.5175 -309.387V-252.012M43.8605 -309.387H101.234M43.8605 -309.387L43.8605 -366.763M43.8605 -309.387V-252.012M101.234 -309.387H158.612M101.234 -309.387L101.234 -366.763M101.234 -309.387V-252.012M158.612 -309.387H215.987M158.612 -309.387L158.612 -366.763M158.612 -309.387V-252.012M215.987 -309.387H273.36M215.987 -309.387V-366.763M215.987 -309.387V-252.012M273.36 -309.387H330.738M273.36 -309.387V-366.763M273.36 -309.387V-252.012M330.738 -309.387H388.113M330.738 -309.387V-366.763M330.738 -309.387V-252.012M388.113 -309.387H445.49M388.113 -309.387V-366.763M388.113 -309.387V-252.012M445.49 -309.387H502.866M445.49 -309.387V-366.763M445.49 -309.387V-252.012M502.866 -309.387H560.24M502.866 -309.387V-366.763M502.866 -309.387V-252.012M560.24 -309.387H617.618M560.24 -309.387V-366.763M560.24 -309.387V-252.012M617.618 -309.387H674.992M617.618 -309.387V-366.763M617.618 -309.387V-252.012M674.992 -309.387H732.37M674.992 -309.387V-366.763M674.992 -309.387V-252.012M732.37 -309.387H740.885M732.37 -309.387V-366.763M732.37 -309.387V-252.012M-334.014 -538.891H-300.397M-300.397 -538.891H-243.019M-300.397 -538.891V-559.059M-300.397 -538.891L-300.397 -481.515M-243.019 -538.891H-185.644M-243.019 -538.891V-559.059M-243.019 -538.891V-481.515M-185.644 -538.891H-128.267M-185.644 -538.891V-559.059M-185.644 -538.891V-481.515M-128.267 -538.891H-70.8921M-128.267 -538.891V-559.059M-128.267 -538.891V-481.515M-70.8921 -538.891H-13.5175M-70.8921 -538.891V-559.059M-70.8921 -538.891V-481.515M-13.5175 -538.891H43.8605M-13.5175 -538.891V-559.059M-13.5175 -538.891V-481.515M43.8605 -538.891H101.234M43.8605 -538.891V-559.059M43.8605 -538.891V-481.515M101.234 -538.891H158.612M101.234 -538.891V-559.059M101.234 -538.891V-481.515M158.612 -538.891H215.987M158.612 -538.891V-559.059M158.612 -538.891V-481.515M215.987 -538.891H273.36M215.987 -538.891V-559.059M215.987 -538.891V-481.515M273.36 -538.891H330.738M273.36 -538.891V-559.059M273.36 -538.891V-481.515M330.738 -538.891H388.113M330.738 -538.891V-559.059M330.738 -538.891V-481.515M388.113 -538.891H445.49M388.113 -538.891V-559.059M388.113 -538.891V-481.515M445.49 -538.891H502.866M445.49 -538.891V-559.059M445.49 -538.891V-481.515M502.866 -538.891H560.24M502.866 -538.891V-559.059M502.866 -538.891V-481.515M560.24 -538.891H617.618M560.24 -538.891V-559.059M560.24 -538.891V-481.515M617.618 -538.891H674.992M617.618 -538.891V-559.059M617.618 -538.891V-481.515M674.992 -538.891H732.37M674.992 -538.891V-559.059M674.992 -538.891V-481.515M732.37 -538.891H740.885M732.37 -538.891V-559.059M732.37 -538.891V-481.515M-334.014 264.37H-300.397M-300.397 264.37H-243.019M-300.397 264.37L-300.397 206.994M-300.397 264.37V271.096M-243.019 264.37H-185.644M-243.019 264.37V206.994M-243.019 264.37V271.096M-185.644 264.37H-128.267M-185.644 264.37V206.994M-185.644 264.37V271.096M-128.267 264.37H-70.8922M-128.267 264.37V206.994M-128.267 264.37V271.096M-70.8922 264.37H-13.5176M-70.8922 264.37V206.994M-70.8922 264.37V271.096M-13.5176 264.37H43.8604M-13.5176 264.37V206.994M-13.5176 264.37V271.096M43.8604 264.37H101.234M43.8604 264.37V206.994M43.8604 264.37V271.096M101.234 264.37H158.612M101.234 264.37V206.994M101.234 264.37V271.096M158.612 264.37H215.987M158.612 264.37V206.994M158.612 264.37V271.096M215.987 264.37H273.36M215.987 264.37V206.994M215.987 264.37V271.096M273.36 264.37H330.738M273.36 264.37V206.994M273.36 264.37V271.096M330.738 264.37H388.113M330.738 264.37V206.994M330.738 264.37V271.096M388.113 264.37H445.49M388.113 264.37V206.994M388.113 264.37V271.096M445.49 264.37H502.866M445.49 264.37V206.994M445.49 264.37V271.096M502.866 264.37H560.24M502.866 264.37V206.994M502.866 264.37V271.096M560.24 264.37H617.618M560.24 264.37V206.994M560.24 264.37V271.096M617.618 264.37H674.992M617.618 264.37V206.994M617.618 264.37V271.096M674.992 264.37H732.37M674.992 264.37V206.994M674.992 264.37V271.096M732.37 264.37H740.885M732.37 264.37V206.994M732.37 264.37V271.096M-334.014 -194.638H-300.397M-300.397 -194.638H-243.019M-300.397 -194.638V-252.012M-300.397 -194.638L-300.397 -137.26M-243.019 -194.638H-185.644M-243.019 -194.638L-243.019 -252.012M-243.019 -194.638V-137.26M-185.644 -194.638H-128.267M-185.644 -194.638V-252.012M-185.644 -194.638L-185.644 -137.26M-128.267 -194.638H-70.8921M-128.267 -194.638V-252.012M-128.267 -194.638V-137.26M-70.8921 -194.638H-13.5175M-70.8921 -194.638V-252.012M-70.8921 -194.638L-70.8922 -137.26M-13.5175 -194.638H43.8605M-13.5175 -194.638V-252.012M-13.5175 -194.638V-137.26M43.8605 -194.638H101.234M43.8605 -194.638V-252.012M43.8605 -194.638V-137.26M101.234 -194.638H158.612M101.234 -194.638V-252.012M101.234 -194.638V-137.26M158.612 -194.638H215.987M158.612 -194.638V-252.012M158.612 -194.638V-137.26M215.987 -194.638H273.36M215.987 -194.638V-252.012M215.987 -194.638V-137.26M273.36 -194.638H330.738M273.36 -194.638V-252.012M273.36 -194.638V-137.26M330.738 -194.638H388.113M330.738 -194.638V-252.012M330.738 -194.638V-137.26M388.113 -194.638H445.49M388.113 -194.638V-252.012M388.113 -194.638V-137.26M445.49 -194.638H502.866M445.49 -194.638V-252.012M445.49 -194.638V-137.26M502.866 -194.638H560.24M502.866 -194.638V-252.012M502.866 -194.638V-137.26M560.24 -194.638H617.618M560.24 -194.638V-252.012M560.24 -194.638V-137.26M617.618 -194.638H674.992M617.618 -194.638V-252.012M617.618 -194.638V-137.26M674.992 -194.638H732.37M674.992 -194.638V-252.012M674.992 -194.638V-137.26M732.37 -194.638H740.885M732.37 -194.638V-252.012M732.37 -194.638L732.37 -137.26M-334.014 34.8664H-300.397M-300.397 34.8664H-243.019M-300.397 34.8664L-300.397 -22.5085M-300.397 34.8664L-300.397 92.2426M-243.019 34.8664H-185.644M-243.019 34.8664V-22.5085M-243.019 34.8664V92.2426M-185.644 34.8664H-128.267M-185.644 34.8664V-22.5085M-185.644 34.8664V92.2426M-128.267 34.8664H-70.8922M-128.267 34.8664V-22.5085M-128.267 34.8664L-128.267 92.2426M-70.8922 34.8664H-13.5175M-70.8922 34.8664V-22.5085M-70.8922 34.8664V92.2426M-13.5175 34.8664H43.8605M-13.5175 34.8664V-22.5085M-13.5175 34.8664L-13.5176 92.2426M43.8605 34.8664H101.234M43.8605 34.8664V-22.5085M43.8605 34.8664L43.8604 92.2426M101.234 34.8664H158.612M101.234 34.8664V-22.5085M101.234 34.8664L101.234 92.2426M158.612 34.8664H215.987M158.612 34.8664V-22.5085M158.612 34.8664L158.612 92.2426M215.987 34.8664H273.36M215.987 34.8664V-22.5085M215.987 34.8664V92.2426M273.36 34.8664H330.738M273.36 34.8664V-22.5085M273.36 34.8664V92.2426M330.738 34.8664H388.113M330.738 34.8664V-22.5085M330.738 34.8664V92.2426M388.113 34.8664H445.49M388.113 34.8664V-22.5085M388.113 34.8664V92.2426M445.49 34.8664H502.866M445.49 34.8664V-22.5085M445.49 34.8664V92.2426M502.866 34.8664H560.24M502.866 34.8664V-22.5085M502.866 34.8664V92.2426M560.24 34.8664H617.618M560.24 34.8664V-22.5085M560.24 34.8664V92.2426M617.618 34.8664H674.992M617.618 34.8664V-22.5085M617.618 34.8664V92.2426M674.992 34.8664H732.37M674.992 34.8664V-22.5085M674.992 34.8664V92.2426M732.37 34.8664H740.885M732.37 34.8664V-22.5085M732.37 34.8664V92.2426M-334.014 -424.138H-300.397M-300.397 -424.138H-243.019M-300.397 -424.138L-300.397 -481.515M-300.397 -424.138V-366.763M-243.019 -424.138H-185.644M-243.019 -424.138L-243.019 -481.515M-243.019 -424.138V-366.763M-185.644 -424.138H-128.267M-185.644 -424.138V-481.515M-185.644 -424.138L-185.644 -366.763M-128.267 -424.138H-70.8921M-128.267 -424.138V-481.515M-128.267 -424.138V-366.763M-70.8921 -424.138H-13.5175M-70.8921 -424.138V-481.515M-70.8921 -424.138V-366.763M-13.5175 -424.138H43.8605M-13.5175 -424.138V-481.515M-13.5175 -424.138V-366.763M43.8605 -424.138H101.234M43.8605 -424.138V-481.515M43.8605 -424.138V-366.763M101.234 -424.138H158.612M101.234 -424.138V-481.515M101.234 -424.138V-366.763M158.612 -424.138H215.987M158.612 -424.138V-481.515M158.612 -424.138V-366.763M215.987 -424.138H273.36M215.987 -424.138V-481.515M215.987 -424.138V-366.763M273.36 -424.138H330.738M273.36 -424.138V-481.515M273.36 -424.138V-366.763M330.738 -424.138H388.113M330.738 -424.138V-481.515M330.738 -424.138V-366.763M388.113 -424.138H445.49M388.113 -424.138V-481.515M388.113 -424.138V-366.763M445.49 -424.138H502.866M445.49 -424.138V-481.515M445.49 -424.138V-366.763M502.866 -424.138H560.24M502.866 -424.138V-481.515M502.866 -424.138V-366.763M560.24 -424.138H617.618M560.24 -424.138V-481.515M560.24 -424.138V-366.763M617.618 -424.138H674.992M617.618 -424.138V-481.515M617.618 -424.138V-366.763M674.992 -424.138H732.37M674.992 -424.138V-481.515M674.992 -424.138V-366.763M732.37 -424.138H740.885M732.37 -424.138V-481.515M732.37 -424.138V-366.763M-334.014 -137.26H-300.397M-300.397 -137.26H-243.019M-243.019 -137.26H-185.644M-185.644 -137.26H-128.267M-128.267 -137.26H-70.8922M-70.8922 -137.26H-13.5175M-13.5175 -137.26H43.8605M43.8605 -137.26H101.234M101.234 -137.26H158.612M158.612 -137.26H215.987M215.987 -137.26H273.36M273.36 -137.26H330.738M330.738 -137.26H388.113M388.113 -137.26H445.49M445.49 -137.26H502.866M502.866 -137.26H560.24M560.24 -137.26H617.618M617.618 -137.26H674.992M674.992 -137.26H732.37M732.37 -137.26H740.885M-334.014 92.2426H-300.397M-300.397 92.2426H-243.019M-243.019 92.2426H-185.644M-185.644 92.2426H-128.267M-128.267 92.2426H-70.8922M-70.8922 92.2426H-13.5176M-13.5176 92.2426H43.8604M43.8604 92.2426H101.234M101.234 92.2426H158.612M158.612 92.2426H215.987M215.987 92.2426H273.36M273.36 92.2426H330.738M330.738 92.2426H388.113M388.113 92.2426H445.49M445.49 92.2426H502.866M502.866 92.2426H560.24M560.24 92.2426H617.618M617.618 92.2426H674.992M674.992 92.2426H732.37M732.37 92.2426H740.885M-334.014 -366.763H-300.397M-300.397 -366.763H-243.019M-243.019 -366.763H-185.644M-185.644 -366.763H-128.267M-128.267 -366.763H-70.8921M-70.8921 -366.763H-13.5175M-13.5175 -366.763H43.8605M43.8605 -366.763H101.234M101.234 -366.763H158.612M158.612 -366.763H215.987M215.987 -366.763H273.36M273.36 -366.763H330.738M330.738 -366.763H388.113M388.113 -366.763H445.49M445.49 -366.763H502.866M502.866 -366.763H560.24M560.24 -366.763H617.618M617.618 -366.763H674.992M674.992 -366.763H732.37M732.37 -366.763H740.885M-334.014 206.994H-300.397M-300.397 206.994H-243.019M-243.019 206.994H-185.644M-185.644 206.994H-128.267M-128.267 206.994H-70.8922M-70.8922 206.994H-13.5176M-13.5176 206.994H43.8604M43.8604 206.994H101.234M101.234 206.994H158.612M158.612 206.994H215.987M215.987 206.994H273.36M273.36 206.994H330.738M330.738 206.994H388.113M388.113 206.994H445.49M445.49 206.994H502.866M502.866 206.994H560.24M560.24 206.994H617.618M617.618 206.994H674.992M674.992 206.994H732.37M732.37 206.994H740.885M-334.014 -252.012H-300.397M-300.397 -252.012H-243.019M-243.019 -252.012H-185.644M-185.644 -252.012H-128.267M-128.267 -252.012H-70.8921M-70.8921 -252.012H-13.5175M-13.5175 -252.012H43.8605M43.8605 -252.012H101.234M101.234 -252.012H158.612M158.612 -252.012H215.987M215.987 -252.012H273.36M273.36 -252.012H330.738M330.738 -252.012H388.113M388.113 -252.012H445.49M445.49 -252.012H502.866M502.866 -252.012H560.24M560.24 -252.012H617.618M617.618 -252.012H674.992M674.992 -252.012H732.37M732.37 -252.012H740.885M-334.014 -22.5085H-300.397M-300.397 -22.5085H-243.019M-243.019 -22.5085H-185.644M-185.644 -22.5085H-128.267M-128.267 -22.5085H-70.8922M-70.8922 -22.5085H-13.5175M-13.5175 -22.5085H43.8605M43.8605 -22.5085H101.234M101.234 -22.5085H158.612M158.612 -22.5085H215.987M215.987 -22.5085H273.36M273.36 -22.5085H330.738M330.738 -22.5085H388.113M388.113 -22.5085H445.49M445.49 -22.5085H502.866M502.866 -22.5085H560.24M560.24 -22.5085H617.618M617.618 -22.5085H674.992M674.992 -22.5085H732.37M732.37 -22.5085H740.885M-334.014 -481.515H-300.397M-300.397 -481.515H-243.019M-243.019 -481.515H-185.644M-185.644 -481.515H-128.267M-128.267 -481.515H-70.8921M-70.8921 -481.515H-13.5175M-13.5175 -481.515H43.8605M43.8605 -481.515H101.234M101.234 -481.515H158.612M158.612 -481.515H215.987M215.987 -481.515H273.36M273.36 -481.515H330.738M330.738 -481.515H388.113M388.113 -481.515H445.49M445.49 -481.515H502.866M502.866 -481.515H560.24M560.24 -481.515H617.618M617.618 -481.515H674.992M674.992 -481.515H732.37M732.37 -481.515H740.885M698.885 -79.884H732.502M732.502 -79.884H789.88M732.502 -79.884V-137.26M732.502 -79.884V-22.508M789.88 -79.884H847.255M789.88 -79.884V-137.26M789.88 -79.884V-22.508M847.255 -79.884H904.632M847.255 -79.884V-137.26M847.255 -79.884V-22.508M904.632 -79.884H962.007M904.632 -79.884V-137.26M904.632 -79.884V-22.508M962.007 -79.884H1019.38M962.007 -79.884V-137.26M962.007 -79.884V-22.508M1019.38 -79.884H1076.76M1019.38 -79.884V-137.26M1019.38 -79.884V-22.508M1076.76 -79.884H1134.13M1076.76 -79.884V-137.26M1076.76 -79.884V-22.508M1134.13 -79.884H1191.51M1134.13 -79.884V-137.26M1134.13 -79.884V-22.508M1191.51 -79.884H1248.89M1191.51 -79.884V-137.26M1191.51 -79.884V-22.508M1248.89 -79.884H1306.26M1248.89 -79.884V-137.26M1248.89 -79.884V-22.508M1306.26 -79.884H1363.64M1306.26 -79.884V-137.26M1306.26 -79.884V-22.508M1363.64 -79.884H1421.01M1363.64 -79.884V-137.26M1363.64 -79.884V-22.508M1421.01 -79.884H1478.39M1421.01 -79.884V-137.26M1421.01 -79.884V-22.508M1478.39 -79.884H1535.77M1478.39 -79.884V-137.26M1478.39 -79.884V-22.508M1535.77 -79.884H1593.14M1535.77 -79.884V-137.26M1535.77 -79.884V-22.508M1593.14 -79.884H1650.52M1593.14 -79.884V-137.26M1593.14 -79.884V-22.508M1650.52 -79.884H1707.89M1650.52 -79.884V-137.26M1650.52 -79.884V-22.508M1707.89 -79.884H1765.27M1707.89 -79.884V-137.26M1707.89 -79.884V-22.508M1765.27 -79.884H1773.78M1765.27 -79.884V-137.26M1765.27 -79.884V-22.508M698.885 149.62H732.502M732.502 149.62H789.88M732.502 149.62V92.2431M732.502 149.62V206.995M789.88 149.62H847.255M789.88 149.62V92.2431M789.88 149.62V206.995M847.255 149.62H904.632M847.255 149.62V92.2431M847.255 149.62V206.995M904.632 149.62H962.007M904.632 149.62V92.2431M904.632 149.62V206.995M962.007 149.62H1019.38M962.007 149.62V92.2431M962.007 149.62V206.995M1019.38 149.62H1076.76M1019.38 149.62V92.2431M1019.38 149.62V206.995M1076.76 149.62H1134.13M1076.76 149.62V92.2431M1076.76 149.62V206.995M1134.13 149.62H1191.51M1134.13 149.62V92.2431M1134.13 149.62V206.995M1191.51 149.62H1248.89M1191.51 149.62V92.2431M1191.51 149.62V206.995M1248.89 149.62H1306.26M1248.89 149.62V92.2431M1248.89 149.62V206.995M1306.26 149.62H1363.64M1306.26 149.62V92.2431M1306.26 149.62V206.995M1363.64 149.62H1421.01M1363.64 149.62V92.2431M1363.64 149.62V206.995M1421.01 149.62H1478.39M1421.01 149.62V92.2431M1421.01 149.62V206.995M1478.39 149.62H1535.77M1478.39 149.62V92.2431M1478.39 149.62V206.995M1535.77 149.62H1593.14M1535.77 149.62V92.2431M1535.77 149.62V206.995M1593.14 149.62H1650.52M1593.14 149.62V92.2431M1593.14 149.62V206.995M1650.52 149.62H1707.89M1650.52 149.62V92.2431M1650.52 149.62V206.995M1707.89 149.62H1765.27M1707.89 149.62V92.2431M1707.89 149.62V206.995M1765.27 149.62H1773.78M1765.27 149.62V92.2431M1765.27 149.62V206.995M698.885 -309.387H732.502M732.502 -309.387H789.88M732.502 -309.387V-366.763M732.502 -309.387V-252.012M789.88 -309.387H847.255M789.88 -309.387V-366.763M789.88 -309.387V-252.012M847.255 -309.387H904.632M847.255 -309.387V-366.763M847.255 -309.387V-252.012M904.632 -309.387H962.007M904.632 -309.387V-366.763M904.632 -309.387V-252.012M962.007 -309.387H1019.38M962.007 -309.387V-366.763M962.007 -309.387V-252.012M1019.38 -309.387H1076.76M1019.38 -309.387V-366.763M1019.38 -309.387V-252.012M1076.76 -309.387H1134.13M1076.76 -309.387V-366.763M1076.76 -309.387V-252.012M1134.13 -309.387H1191.51M1134.13 -309.387L1134.13 -366.763M1134.13 -309.387V-252.012M1191.51 -309.387H1248.89M1191.51 -309.387L1191.51 -366.763M1191.51 -309.387V-252.012M1248.89 -309.387H1306.26M1248.89 -309.387V-366.763M1248.89 -309.387V-252.012M1306.26 -309.387H1363.64M1306.26 -309.387V-366.763M1306.26 -309.387V-252.012M1363.64 -309.387H1421.01M1363.64 -309.387V-366.763M1363.64 -309.387V-252.012M1421.01 -309.387H1478.39M1421.01 -309.387V-366.763M1421.01 -309.387V-252.012M1478.39 -309.387H1535.77M1478.39 -309.387V-366.763M1478.39 -309.387V-252.012M1535.77 -309.387H1593.14M1535.77 -309.387V-366.763M1535.77 -309.387V-252.012M1593.14 -309.387H1650.52M1593.14 -309.387V-366.763M1593.14 -309.387V-252.012M1650.52 -309.387H1707.89M1650.52 -309.387V-366.763M1650.52 -309.387V-252.012M1707.89 -309.387H1765.27M1707.89 -309.387V-366.763M1707.89 -309.387V-252.012M1765.27 -309.387H1773.78M1765.27 -309.387V-366.763M1765.27 -309.387V-252.012M698.885 -538.891H732.502M732.502 -538.891H789.88M732.502 -538.891V-559.059M732.502 -538.891V-481.515M789.88 -538.891H847.255M789.88 -538.891V-559.059M789.88 -538.891V-481.515M847.255 -538.891H904.632M847.255 -538.891V-559.059M847.255 -538.891V-481.515M904.632 -538.891H962.007M904.632 -538.891V-559.059M904.632 -538.891V-481.515M962.007 -538.891H1019.38M962.007 -538.891V-559.059M962.007 -538.891V-481.515M1019.38 -538.891H1076.76M1019.38 -538.891V-559.059M1019.38 -538.891V-481.515M1076.76 -538.891H1134.13M1076.76 -538.891V-559.059M1076.76 -538.891V-481.515M1134.13 -538.891H1191.51M1134.13 -538.891V-559.059M1134.13 -538.891V-481.515M1191.51 -538.891H1248.89M1191.51 -538.891V-559.059M1191.51 -538.891V-481.515M1248.89 -538.891H1306.26M1248.89 -538.891V-559.059M1248.89 -538.891V-481.515M1306.26 -538.891H1363.64M1306.26 -538.891V-559.059M1306.26 -538.891V-481.515M1363.64 -538.891H1421.01M1363.64 -538.891V-559.059M1363.64 -538.891V-481.515M1421.01 -538.891H1478.39M1421.01 -538.891V-559.059M1421.01 -538.891V-481.515M1478.39 -538.891H1535.77M1478.39 -538.891V-559.059M1478.39 -538.891V-481.515M1535.77 -538.891H1593.14M1535.77 -538.891V-559.059M1535.77 -538.891V-481.515M1593.14 -538.891H1650.52M1593.14 -538.891V-559.059M1593.14 -538.891V-481.515M1650.52 -538.891H1707.89M1650.52 -538.891V-559.059M1650.52 -538.891V-481.515M1707.89 -538.891H1765.27M1707.89 -538.891V-559.059M1707.89 -538.891V-481.515M1765.27 -538.891H1773.78M1765.27 -538.891V-559.059M1765.27 -538.891V-481.515M698.885 264.371H732.502M732.502 264.371H789.88M732.502 264.371V206.995M732.502 264.371V271.096M789.88 264.371H847.255M789.88 264.371V206.995M789.88 264.371V271.096M847.255 264.371H904.632M847.255 264.371V206.995M847.255 264.371V271.096M904.632 264.371H962.007M904.632 264.371V206.995M904.632 264.371V271.096M962.007 264.371H1019.38M962.007 264.371V206.995M962.007 264.371V271.096M1019.38 264.371H1076.76M1019.38 264.371V206.995M1019.38 264.371V271.096M1076.76 264.371H1134.13M1076.76 264.371V206.995M1076.76 264.371V271.096M1134.13 264.371H1191.51M1134.13 264.371V206.995M1134.13 264.371V271.096M1191.51 264.371H1248.89M1191.51 264.371V206.995M1191.51 264.371V271.096M1248.89 264.371H1306.26M1248.89 264.371V206.995M1248.89 264.371V271.096M1306.26 264.371H1363.64M1306.26 264.371V206.995M1306.26 264.371V271.096M1363.64 264.371H1421.01M1363.64 264.371V206.995M1363.64 264.371V271.096M1421.01 264.371H1478.39M1421.01 264.371V206.995M1421.01 264.371V271.096M1478.39 264.371H1535.77M1478.39 264.371V206.995M1478.39 264.371V271.096M1535.77 264.371H1593.14M1535.77 264.371V206.995M1535.77 264.371V271.096M1593.14 264.371H1650.52M1593.14 264.371V206.995M1593.14 264.371V271.096M1650.52 264.371H1707.89M1650.52 264.371V206.995M1650.52 264.371V271.096M1707.89 264.371H1765.27M1707.89 264.371V206.995M1707.89 264.371V271.096M1765.27 264.371H1773.78M1765.27 264.371V206.995M1765.27 264.371V271.096M698.885 -194.637H732.502M732.502 -194.637H789.88M732.502 -194.637V-252.012M732.502 -194.637V-137.26M789.88 -194.637H847.255M789.88 -194.637V-252.012M789.88 -194.637V-137.26M847.255 -194.637H904.632M847.255 -194.637V-252.012M847.255 -194.637L847.255 -137.26M904.632 -194.637H962.007M904.632 -194.637V-252.012M904.632 -194.637V-137.26M962.007 -194.637H1019.38M962.007 -194.637V-252.012M962.007 -194.637V-137.26M1019.38 -194.637H1076.76M1019.38 -194.637V-252.012M1019.38 -194.637V-137.26M1076.76 -194.637H1134.13M1076.76 -194.637V-252.012M1076.76 -194.637V-137.26M1134.13 -194.637H1191.51M1134.13 -194.637V-252.012M1134.13 -194.637V-137.26M1191.51 -194.637H1248.89M1191.51 -194.637V-252.012M1191.51 -194.637V-137.26M1248.89 -194.637H1306.26M1248.89 -194.637V-252.012M1248.89 -194.637V-137.26M1306.26 -194.637H1363.64M1306.26 -194.637V-252.012M1306.26 -194.637V-137.26M1363.64 -194.637H1421.01M1363.64 -194.637V-252.012M1363.64 -194.637V-137.26M1421.01 -194.637H1478.39M1421.01 -194.637V-252.012M1421.01 -194.637V-137.26M1478.39 -194.637H1535.77M1478.39 -194.637V-252.012M1478.39 -194.637V-137.26M1535.77 -194.637H1593.14M1535.77 -194.637V-252.012M1535.77 -194.637V-137.26M1593.14 -194.637H1650.52M1593.14 -194.637V-252.012M1593.14 -194.637V-137.26M1650.52 -194.637H1707.89M1650.52 -194.637V-252.012M1650.52 -194.637V-137.26M1707.89 -194.637H1765.27M1707.89 -194.637V-252.012M1707.89 -194.637V-137.26M1765.27 -194.637H1773.78M1765.27 -194.637V-252.012M1765.27 -194.637V-137.26M698.885 34.8669H732.502M732.502 34.8669H789.88M732.502 34.8669V-22.508M732.502 34.8669V92.2431M789.88 34.8669H847.255M789.88 34.8669V-22.508M789.88 34.8669V92.2431M847.255 34.8669H904.632M847.255 34.8669V-22.508M847.255 34.8669V92.2431M904.632 34.8669H962.007M904.632 34.8669V-22.508M904.632 34.8669V92.2431M962.007 34.8669H1019.38M962.007 34.8669V-22.508M962.007 34.8669V92.2431M1019.38 34.8669H1076.76M1019.38 34.8669V-22.508M1019.38 34.8669V92.2431M1076.76 34.8669H1134.13M1076.76 34.8669V-22.508M1076.76 34.8669V92.2431M1134.13 34.8669H1191.51M1134.13 34.8669V-22.508M1134.13 34.8669V92.2431M1191.51 34.8669H1248.89M1191.51 34.8669V-22.508M1191.51 34.8669V92.2431M1248.89 34.8669H1306.26M1248.89 34.8669V-22.508M1248.89 34.8669V92.2431M1306.26 34.8669H1363.64M1306.26 34.8669V-22.508M1306.26 34.8669V92.2431M1363.64 34.8669H1421.01M1363.64 34.8669V-22.508M1363.64 34.8669V92.2431M1421.01 34.8669H1478.39M1421.01 34.8669V-22.508M1421.01 34.8669V92.2431M1478.39 34.8669H1535.77M1478.39 34.8669V-22.508M1478.39 34.8669V92.2431M1535.77 34.8669H1593.14M1535.77 34.8669V-22.508M1535.77 34.8669V92.2431M1593.14 34.8669H1650.52M1593.14 34.8669V-22.508M1593.14 34.8669V92.2431M1650.52 34.8669H1707.89M1650.52 34.8669V-22.508M1650.52 34.8669V92.2431M1707.89 34.8669H1765.27M1707.89 34.8669V-22.508M1707.89 34.8669V92.2431M1765.27 34.8669H1773.78M1765.27 34.8669V-22.508M1765.27 34.8669V92.2431M698.885 -424.138H732.502M732.502 -424.138H789.88M732.502 -424.138V-481.515M732.502 -424.138V-366.763M789.88 -424.138H847.255M789.88 -424.138V-481.515M789.88 -424.138V-366.763M847.255 -424.138H904.632M847.255 -424.138V-481.515M847.255 -424.138V-366.763M904.632 -424.138H962.007M904.632 -424.138V-481.515M904.632 -424.138V-366.763M962.007 -424.138H1019.38M962.007 -424.138V-481.515M962.007 -424.138V-366.763M1019.38 -424.138H1076.76M1019.38 -424.138V-481.515M1019.38 -424.138V-366.763M1076.76 -424.138H1134.13M1076.76 -424.138V-481.515M1076.76 -424.138V-366.763M1134.13 -424.138H1191.51M1134.13 -424.138V-481.515M1134.13 -424.138V-366.763M1191.51 -424.138H1248.89M1191.51 -424.138V-481.515M1191.51 -424.138V-366.763M1248.89 -424.138H1306.26M1248.89 -424.138V-481.515M1248.89 -424.138V-366.763M1306.26 -424.138H1363.64M1306.26 -424.138V-481.515M1306.26 -424.138V-366.763M1363.64 -424.138H1421.01M1363.64 -424.138V-481.515M1363.64 -424.138V-366.763M1421.01 -424.138H1478.39M1421.01 -424.138V-481.515M1421.01 -424.138V-366.763M1478.39 -424.138H1535.77M1478.39 -424.138V-481.515M1478.39 -424.138V-366.763M1535.77 -424.138H1593.14M1535.77 -424.138V-481.515M1535.77 -424.138V-366.763M1593.14 -424.138H1650.52M1593.14 -424.138V-481.515M1593.14 -424.138V-366.763M1650.52 -424.138H1707.89M1650.52 -424.138V-481.515M1650.52 -424.138V-366.763M1707.89 -424.138H1765.27M1707.89 -424.138V-481.515M1707.89 -424.138V-366.763M1765.27 -424.138H1773.78M1765.27 -424.138V-481.515M1765.27 -424.138V-366.763M698.885 -137.26H732.502M732.502 -137.26H789.88M789.88 -137.26H847.255M847.255 -137.26H904.632M904.632 -137.26H962.007M962.007 -137.26H1019.38M1019.38 -137.26H1076.76M1076.76 -137.26H1134.13M1134.13 -137.26H1191.51M1191.51 -137.26H1248.89M1248.89 -137.26H1306.26M1306.26 -137.26H1363.64M1363.64 -137.26H1421.01M1421.01 -137.26H1478.39M1478.39 -137.26H1535.77M1535.77 -137.26H1593.14M1593.14 -137.26H1650.52M1650.52 -137.26H1707.89M1707.89 -137.26H1765.27M1765.27 -137.26H1773.78M698.885 92.2431H732.502M732.502 92.2431H789.88M789.88 92.2431H847.255M847.255 92.2431H904.632M904.632 92.2431H962.007M962.007 92.2431H1019.38M1019.38 92.2431H1076.76M1076.76 92.2431H1134.13M1134.13 92.2431H1191.51M1191.51 92.2431H1248.89M1248.89 92.2431H1306.26M1306.26 92.2431H1363.64M1363.64 92.2431H1421.01M1421.01 92.2431H1478.39M1478.39 92.2431H1535.77M1535.77 92.2431H1593.14M1593.14 92.2431H1650.52M1650.52 92.2431H1707.89M1707.89 92.2431H1765.27M1765.27 92.2431H1773.78M698.885 -366.763H732.502M732.502 -366.763H789.88M789.88 -366.763H847.255M847.255 -366.763H904.632M904.632 -366.763H962.007M962.007 -366.763H1019.38M1019.38 -366.763H1076.76M1076.76 -366.763H1134.13M1134.13 -366.763H1191.51M1191.51 -366.763H1248.89M1248.89 -366.763H1306.26M1306.26 -366.763H1363.64M1363.64 -366.763H1421.01M1421.01 -366.763H1478.39M1478.39 -366.763H1535.77M1535.77 -366.763H1593.14M1593.14 -366.763H1650.52M1650.52 -366.763H1707.89M1707.89 -366.763H1765.27M1765.27 -366.763H1773.78M698.885 206.995H732.502M732.502 206.995H789.88M789.88 206.995H847.255M847.255 206.995H904.632M904.632 206.995H962.007M962.007 206.995H1019.38M1019.38 206.995H1076.76M1076.76 206.995H1134.13M1134.13 206.995H1191.51M1191.51 206.995H1248.89M1248.89 206.995H1306.26M1306.26 206.995H1363.64M1363.64 206.995H1421.01M1421.01 206.995H1478.39M1478.39 206.995H1535.77M1535.77 206.995H1593.14M1593.14 206.995H1650.52M1650.52 206.995H1707.89M1707.89 206.995H1765.27M1765.27 206.995H1773.78M698.885 -252.012H732.502M732.502 -252.012H789.88M789.88 -252.012H847.255M847.255 -252.012H904.632M904.632 -252.012H962.007M962.007 -252.012H1019.38M1019.38 -252.012H1076.76M1076.76 -252.012H1134.13M1134.13 -252.012H1191.51M1191.51 -252.012H1248.89M1248.89 -252.012H1306.26M1306.26 -252.012H1363.64M1363.64 -252.012H1421.01M1421.01 -252.012H1478.39M1478.39 -252.012H1535.77M1535.77 -252.012H1593.14M1593.14 -252.012H1650.52M1650.52 -252.012H1707.89M1707.89 -252.012H1765.27M1765.27 -252.012H1773.78M698.885 -22.508H732.502M732.502 -22.508H789.88M789.88 -22.508H847.255M847.255 -22.508H904.632M904.632 -22.508H962.007M962.007 -22.508H1019.38M1019.38 -22.508H1076.76M1076.76 -22.508H1134.13M1134.13 -22.508H1191.51M1191.51 -22.508H1248.89M1248.89 -22.508H1306.26M1306.26 -22.508H1363.64M1363.64 -22.508H1421.01M1421.01 -22.508H1478.39M1478.39 -22.508H1535.77M1535.77 -22.508H1593.14M1593.14 -22.508H1650.52M1650.52 -22.508H1707.89M1707.89 -22.508H1765.27M1765.27 -22.508H1773.78M698.885 -481.515H732.502M732.502 -481.515H789.88M789.88 -481.515H847.255M847.255 -481.515H904.632M904.632 -481.515H962.007M962.007 -481.515H1019.38M1019.38 -481.515H1076.76M1076.76 -481.515H1134.13M1134.13 -481.515H1191.51M1191.51 -481.515H1248.89M1248.89 -481.515H1306.26M1306.26 -481.515H1363.64M1363.64 -481.515H1421.01M1421.01 -481.515H1478.39M1478.39 -481.515H1535.77M1535.77 -481.515H1593.14M1593.14 -481.515H1650.52M1650.52 -481.515H1707.89M1707.89 -481.515H1765.27M1765.27 -481.515H1773.78M-334.014 723.271H-300.397M-300.397 723.271H-243.019M-300.397 723.271L-300.397 665.895M-300.397 723.271V780.647M-243.019 723.271H-185.644M-243.019 723.271V665.895M-243.019 723.271L-243.019 780.647M-185.644 723.271H-128.268M-185.644 723.271V665.895M-185.644 723.271V780.647M-128.268 723.271H-70.8924M-128.268 723.271V665.895M-128.268 723.271V780.647M-70.8924 723.271H-13.5178M-70.8924 723.271V665.895M-70.8924 723.271V780.647M-13.5178 723.271H43.8602M-13.5178 723.271V665.895M-13.5178 723.271V780.647M43.8602 723.271H101.234M43.8602 723.271V665.895M43.8602 723.271V780.647M101.234 723.271H158.611M101.234 723.271V665.895M101.234 723.271V780.647M158.611 723.271H215.987M158.611 723.271V665.895M158.611 723.271V780.647M215.987 723.271H273.36M215.987 723.271V665.895M215.987 723.271V780.647M273.36 723.271H330.738M273.36 723.271V665.895M273.36 723.271V780.647M330.738 723.271H388.113M330.738 723.271V665.895M330.738 723.271V780.647M388.113 723.271H445.49M388.113 723.271V665.895M388.113 723.271V780.647M445.49 723.271H502.866M445.49 723.271V665.895M445.49 723.271V780.647M502.866 723.271H560.239M502.866 723.271V665.895M502.866 723.271V780.647M560.239 723.271H617.617M560.239 723.271V665.895M560.239 723.271V780.647M617.617 723.271H674.992M617.617 723.271V665.895M617.617 723.271V780.647M674.992 723.271H732.37M674.992 723.271V665.895M674.992 723.271V780.647M732.37 723.271H740.885M732.37 723.271V665.895M732.37 723.271V780.647M-334.014 952.775H-300.397M-300.397 952.775H-243.019M-300.397 952.775L-300.397 895.398M-300.397 952.775V1010.15M-243.019 952.775H-185.644M-243.019 952.775V895.398M-243.019 952.775L-243.019 1010.15M-185.644 952.775H-128.268M-185.644 952.775L-185.644 895.398M-185.644 952.775V1010.15M-128.268 952.775H-70.8924M-128.268 952.775V895.398M-128.268 952.775V1010.15M-70.8924 952.775H-13.5178M-70.8924 952.775V895.398M-70.8924 952.775V1010.15M-13.5178 952.775H43.8602M-13.5178 952.775V895.398M-13.5178 952.775V1010.15M43.8602 952.775H101.234M43.8602 952.775V895.398M43.8602 952.775V1010.15M101.234 952.775H158.611M101.234 952.775V895.398M101.234 952.775V1010.15M158.611 952.775H215.987M158.611 952.775V895.398M158.611 952.775V1010.15M215.987 952.775H273.36M215.987 952.775V895.398M215.987 952.775V1010.15M273.36 952.775H330.738M273.36 952.775V895.398M273.36 952.775V1010.15M330.738 952.775H388.113M330.738 952.775V895.398M330.738 952.775V1010.15M388.113 952.775H445.49M388.113 952.775V895.398M388.113 952.775V1010.15M445.49 952.775H502.866M445.49 952.775V895.398M445.49 952.775V1010.15M502.866 952.775H560.239M502.866 952.775V895.398M502.866 952.775V1010.15M560.239 952.775H617.617M560.239 952.775V895.398M560.239 952.775V1010.15M617.617 952.775H674.992M617.617 952.775V895.398M617.617 952.775V1010.15M674.992 952.775H732.37M674.992 952.775V895.398M674.992 952.775V1010.15M732.37 952.775H740.885M732.37 952.775V895.398M732.37 952.775V1010.15M-334.014 493.768H-300.397M-300.397 493.768H-243.019M-300.397 493.768L-300.397 436.392M-300.397 493.768L-300.397 551.143M-243.019 493.768H-185.644M-243.019 493.768V436.392M-243.019 493.768V551.143M-185.644 493.768H-128.268M-185.644 493.768V436.392M-185.644 493.768V551.143M-128.268 493.768H-70.8924M-128.268 493.768L-128.268 436.392M-128.268 493.768V551.143M-70.8924 493.768H-13.5178M-70.8924 493.768V436.392M-70.8924 493.768V551.143M-13.5178 493.768H43.8602M-13.5178 493.768L-13.5178 436.392M-13.5178 493.768V551.143M43.8602 493.768H101.234M43.8602 493.768L43.8603 436.392M43.8602 493.768V551.143M101.234 493.768H158.611M101.234 493.768L101.234 436.392M101.234 493.768V551.143M158.611 493.768H215.987M158.611 493.768L158.612 436.392M158.611 493.768V551.143M215.987 493.768H273.36M215.987 493.768V436.392M215.987 493.768V551.143M273.36 493.768H330.738M273.36 493.768V436.392M273.36 493.768V551.143M330.738 493.768H388.113M330.738 493.768V436.392M330.738 493.768V551.143M388.113 493.768H445.49M388.113 493.768V436.392M388.113 493.768V551.143M445.49 493.768H502.866M445.49 493.768V436.392M445.49 493.768V551.143M502.866 493.768H560.239M502.866 493.768V436.392M502.866 493.768V551.143M560.239 493.768H617.617M560.239 493.768V436.392M560.239 493.768V551.143M617.617 493.768H674.992M617.617 493.768V436.392M617.617 493.768V551.143M674.992 493.768H732.37M674.992 493.768V436.392M674.992 493.768V551.143M732.37 493.768H740.885M732.37 493.768V436.392M732.37 493.768V551.143M-334.014 264.264H-300.397M-300.397 264.264H-243.019M-300.397 264.264V244.096M-300.397 264.264L-300.397 321.64M-243.019 264.264H-185.644M-243.019 264.264V244.096M-243.019 264.264V321.64M-185.644 264.264H-128.268M-185.644 264.264V244.096M-185.644 264.264V321.64M-128.268 264.264H-70.8924M-128.268 264.264V244.096M-128.268 264.264V321.64M-70.8924 264.264H-13.5178M-70.8924 264.264V244.096M-70.8924 264.264V321.64M-13.5178 264.264H43.8603M-13.5178 264.264V244.096M-13.5178 264.264V321.64M43.8603 264.264H101.234M43.8603 264.264V244.096M43.8603 264.264V321.64M101.234 264.264H158.612M101.234 264.264V244.096M101.234 264.264V321.64M158.612 264.264H215.987M158.612 264.264V244.096M158.612 264.264V321.64M215.987 264.264H273.36M215.987 264.264V244.096M215.987 264.264V321.64M273.36 264.264H330.738M273.36 264.264V244.096M273.36 264.264V321.64M330.738 264.264H388.113M330.738 264.264V244.096M330.738 264.264V321.64M388.113 264.264H445.49M388.113 264.264V244.096M388.113 264.264V321.64M445.49 264.264H502.866M445.49 264.264V244.096M445.49 264.264V321.64M502.866 264.264H560.239M502.866 264.264V244.096M502.866 264.264V321.64M560.239 264.264H617.617M560.239 264.264V244.096M560.239 264.264V321.64M617.617 264.264H674.992M617.617 264.264V244.096M617.617 264.264V321.64M674.992 264.264H732.37M674.992 264.264V244.096M674.992 264.264V321.64M732.37 264.264H740.885M732.37 264.264V244.096M732.37 264.264V321.64M-334.014 1067.53H-300.397M-300.397 1067.53H-243.019M-300.397 1067.53L-300.397 1010.15M-300.397 1067.53V1074.25M-243.019 1067.53H-185.644M-243.019 1067.53V1010.15M-243.019 1067.53V1074.25M-185.644 1067.53H-128.268M-185.644 1067.53V1010.15M-185.644 1067.53V1074.25M-128.268 1067.53H-70.8924M-128.268 1067.53V1010.15M-128.268 1067.53V1074.25M-70.8924 1067.53H-13.5178M-70.8924 1067.53V1010.15M-70.8924 1067.53V1074.25M-13.5178 1067.53H43.8602M-13.5178 1067.53V1010.15M-13.5178 1067.53V1074.25M43.8602 1067.53H101.234M43.8602 1067.53V1010.15M43.8602 1067.53V1074.25M101.234 1067.53H158.611M101.234 1067.53V1010.15M101.234 1067.53V1074.25M158.611 1067.53H215.987M158.611 1067.53V1010.15M158.611 1067.53V1074.25M215.987 1067.53H273.36M215.987 1067.53V1010.15M215.987 1067.53V1074.25M273.36 1067.53H330.738M273.36 1067.53V1010.15M273.36 1067.53V1074.25M330.738 1067.53H388.113M330.738 1067.53V1010.15M330.738 1067.53V1074.25M388.113 1067.53H445.49M388.113 1067.53V1010.15M388.113 1067.53V1074.25M445.49 1067.53H502.866M445.49 1067.53V1010.15M445.49 1067.53V1074.25M502.866 1067.53H560.239M502.866 1067.53V1010.15M502.866 1067.53V1074.25M560.239 1067.53H617.617M560.239 1067.53V1010.15M560.239 1067.53V1074.25M617.617 1067.53H674.992M617.617 1067.53V1010.15M617.617 1067.53V1074.25M674.992 1067.53H732.37M674.992 1067.53V1010.15M674.992 1067.53V1074.25M732.37 1067.53H740.885M732.37 1067.53V1010.15M732.37 1067.53V1074.25M-334.014 608.518H-300.397M-300.397 608.518H-243.019M-300.397 608.518V551.143M-300.397 608.518L-300.397 665.895M-243.019 608.518H-185.644M-243.019 608.518L-243.019 551.143M-243.019 608.518V665.895M-185.644 608.518H-128.268M-185.644 608.518V551.143M-185.644 608.518L-185.644 665.895M-128.268 608.518H-70.8924M-128.268 608.518V551.143M-128.268 608.518V665.895M-70.8924 608.518H-13.5178M-70.8924 608.518V551.143M-70.8924 608.518L-70.8924 665.895M-13.5178 608.518H43.8602M-13.5178 608.518V551.143M-13.5178 608.518V665.895M43.8602 608.518H101.234M43.8602 608.518V551.143M43.8602 608.518V665.895M101.234 608.518H158.611M101.234 608.518V551.143M101.234 608.518V665.895M158.611 608.518H215.987M158.611 608.518V551.143M158.611 608.518V665.895M215.987 608.518H273.36M215.987 608.518V551.143M215.987 608.518V665.895M273.36 608.518H330.738M273.36 608.518V551.143M273.36 608.518V665.895M330.738 608.518H388.113M330.738 608.518V551.143M330.738 608.518V665.895M388.113 608.518H445.49M388.113 608.518V551.143M388.113 608.518V665.895M445.49 608.518H502.866M445.49 608.518V551.143M445.49 608.518V665.895M502.866 608.518H560.239M502.866 608.518V551.143M502.866 608.518V665.895M560.239 608.518H617.617M560.239 608.518V551.143M560.239 608.518V665.895M617.617 608.518H674.992M617.617 608.518V551.143M617.617 608.518V665.895M674.992 608.518H732.37M674.992 608.518V551.143M674.992 608.518V665.895M732.37 608.518H740.885M732.37 608.518V551.143M732.37 608.518L732.37 665.895M-334.014 838.022H-300.397M-300.397 838.022H-243.019M-300.397 838.022L-300.397 780.647M-300.397 838.022L-300.397 895.398M-243.019 838.022H-185.644M-243.019 838.022V780.647M-243.019 838.022V895.398M-185.644 838.022H-128.268M-185.644 838.022V780.647M-185.644 838.022V895.398M-128.268 838.022H-70.8924M-128.268 838.022V780.647M-128.268 838.022L-128.268 895.398M-70.8924 838.022H-13.5178M-70.8924 838.022V780.647M-70.8924 838.022V895.398M-13.5178 838.022H43.8602M-13.5178 838.022V780.647M-13.5178 838.022L-13.5178 895.398M43.8602 838.022H101.234M43.8602 838.022V780.647M43.8602 838.022L43.8602 895.398M101.234 838.022H158.611M101.234 838.022V780.647M101.234 838.022L101.234 895.398M158.611 838.022H215.987M158.611 838.022V780.647M158.611 838.022L158.611 895.398M215.987 838.022H273.36M215.987 838.022V780.647M215.987 838.022V895.398M273.36 838.022H330.738M273.36 838.022V780.647M273.36 838.022V895.398M330.738 838.022H388.113M330.738 838.022V780.647M330.738 838.022V895.398M388.113 838.022H445.49M388.113 838.022V780.647M388.113 838.022V895.398M445.49 838.022H502.866M445.49 838.022V780.647M445.49 838.022V895.398M502.866 838.022H560.239M502.866 838.022V780.647M502.866 838.022V895.398M560.239 838.022H617.617M560.239 838.022V780.647M560.239 838.022V895.398M617.617 838.022H674.992M617.617 838.022V780.647M617.617 838.022V895.398M674.992 838.022H732.37M674.992 838.022V780.647M674.992 838.022V895.398M732.37 838.022H740.885M732.37 838.022V780.647M732.37 838.022V895.398M-334.014 379.017H-300.397M-300.397 379.017H-243.019M-300.397 379.017L-300.397 321.64M-300.397 379.017V436.392M-243.019 379.017H-185.644M-243.019 379.017L-243.019 321.64M-243.019 379.017V436.392M-185.644 379.017H-128.268M-185.644 379.017V321.64M-185.644 379.017L-185.644 436.392M-128.268 379.017H-70.8924M-128.268 379.017V321.64M-128.268 379.017V436.392M-70.8924 379.017H-13.5178M-70.8924 379.017V321.64M-70.8924 379.017V436.392M-13.5178 379.017H43.8603M-13.5178 379.017V321.64M-13.5178 379.017V436.392M43.8603 379.017H101.234M43.8603 379.017V321.64M43.8603 379.017V436.392M101.234 379.017H158.612M101.234 379.017V321.64M101.234 379.017V436.392M158.612 379.017H215.987M158.612 379.017V321.64M158.612 379.017V436.392M215.987 379.017H273.36M215.987 379.017V321.64M215.987 379.017V436.392M273.36 379.017H330.738M273.36 379.017V321.64M273.36 379.017V436.392M330.738 379.017H388.113M330.738 379.017V321.64M330.738 379.017V436.392M388.113 379.017H445.49M388.113 379.017V321.64M388.113 379.017V436.392M445.49 379.017H502.866M445.49 379.017V321.64M445.49 379.017V436.392M502.866 379.017H560.239M502.866 379.017V321.64M502.866 379.017V436.392M560.239 379.017H617.617M560.239 379.017V321.64M560.239 379.017V436.392M617.617 379.017H674.992M617.617 379.017V321.64M617.617 379.017V436.392M674.992 379.017H732.37M674.992 379.017V321.64M674.992 379.017V436.392M732.37 379.017H740.885M732.37 379.017V321.64M732.37 379.017V436.392M-334.014 665.895H-300.397M-300.397 665.895H-243.019M-243.019 665.895H-185.644M-185.644 665.895H-128.268M-128.268 665.895H-70.8924M-70.8924 665.895H-13.5178M-13.5178 665.895H43.8602M43.8602 665.895H101.234M101.234 665.895H158.611M158.611 665.895H215.987M215.987 665.895H273.36M273.36 665.895H330.738M330.738 665.895H388.113M388.113 665.895H445.49M445.49 665.895H502.866M502.866 665.895H560.239M560.239 665.895H617.617M617.617 665.895H674.992M674.992 665.895H732.37M732.37 665.895H740.885M-334.014 895.398H-300.397M-300.397 895.398H-243.019M-243.019 895.398H-185.644M-185.644 895.398H-128.268M-128.268 895.398H-70.8924M-70.8924 895.398H-13.5178M-13.5178 895.398H43.8602M43.8602 895.398H101.234M101.234 895.398H158.611M158.611 895.398H215.987M215.987 895.398H273.36M273.36 895.398H330.738M330.738 895.398H388.113M388.113 895.398H445.49M445.49 895.398H502.866M502.866 895.398H560.239M560.239 895.398H617.617M617.617 895.398H674.992M674.992 895.398H732.37M732.37 895.398H740.885M-334.014 436.392H-300.397M-300.397 436.392H-243.019M-243.019 436.392H-185.644M-185.644 436.392H-128.268M-128.268 436.392H-70.8924M-70.8924 436.392H-13.5178M-13.5178 436.392H43.8603M43.8603 436.392H101.234M101.234 436.392H158.612M158.612 436.392H215.987M215.987 436.392H273.36M273.36 436.392H330.738M330.738 436.392H388.113M388.113 436.392H445.49M445.49 436.392H502.866M502.866 436.392H560.239M560.239 436.392H617.617M617.617 436.392H674.992M674.992 436.392H732.37M732.37 436.392H740.885M-334.014 1010.15H-300.397M-300.397 1010.15H-243.019M-243.019 1010.15H-185.644M-185.644 1010.15H-128.268M-128.268 1010.15H-70.8924M-70.8924 1010.15H-13.5178M-13.5178 1010.15H43.8602M43.8602 1010.15H101.234M101.234 1010.15H158.611M158.611 1010.15H215.987M215.987 1010.15H273.36M273.36 1010.15H330.738M330.738 1010.15H388.113M388.113 1010.15H445.49M445.49 1010.15H502.866M502.866 1010.15H560.239M560.239 1010.15H617.617M617.617 1010.15H674.992M674.992 1010.15H732.37M732.37 1010.15H740.885M-334.014 551.143H-300.397M-300.397 551.143H-243.019M-243.019 551.143H-185.644M-185.644 551.143H-128.268M-128.268 551.143H-70.8924M-70.8924 551.143H-13.5178M-13.5178 551.143H43.8602M43.8602 551.143H101.234M101.234 551.143H158.611M158.611 551.143H215.987M215.987 551.143H273.36M273.36 551.143H330.738M330.738 551.143H388.113M388.113 551.143H445.49M445.49 551.143H502.866M502.866 551.143H560.239M560.239 551.143H617.617M617.617 551.143H674.992M674.992 551.143H732.37M732.37 551.143H740.885M-334.014 780.647H-300.397M-300.397 780.647H-243.019M-243.019 780.647H-185.644M-185.644 780.647H-128.268M-128.268 780.647H-70.8924M-70.8924 780.647H-13.5178M-13.5178 780.647H43.8602M43.8602 780.647H101.234M101.234 780.647H158.611M158.611 780.647H215.987M215.987 780.647H273.36M273.36 780.647H330.738M330.738 780.647H388.113M388.113 780.647H445.49M445.49 780.647H502.866M502.866 780.647H560.239M560.239 780.647H617.617M617.617 780.647H674.992M674.992 780.647H732.37M732.37 780.647H740.885M-334.014 321.64H-300.397M-300.397 321.64H-243.019M-243.019 321.64H-185.644M-185.644 321.64H-128.268M-128.268 321.64H-70.8924M-70.8924 321.64H-13.5178M-13.5178 321.64H43.8603M43.8603 321.64H101.234M101.234 321.64H158.612M158.612 321.64H215.987M215.987 321.64H273.36M273.36 321.64H330.738M330.738 321.64H388.113M388.113 321.64H445.49M445.49 321.64H502.866M502.866 321.64H560.239M560.239 321.64H617.617M617.617 321.64H674.992M674.992 321.64H732.37M732.37 321.64H740.885M698.885 723.27H732.502M732.502 723.27H789.88M732.502 723.27V665.894M732.502 723.27V780.646M789.88 723.27H847.255M789.88 723.27V665.894M789.88 723.27V780.646M847.255 723.27H904.632M847.255 723.27V665.894M847.255 723.27V780.646M904.632 723.27H962.007M904.632 723.27V665.894M904.632 723.27V780.646M962.007 723.27H1019.38M962.007 723.27V665.894M962.007 723.27V780.646M1019.38 723.27H1076.76M1019.38 723.27V665.894M1019.38 723.27V780.646M1076.76 723.27H1134.13M1076.76 723.27V665.894M1076.76 723.27V780.646M1134.13 723.27H1191.51M1134.13 723.27V665.894M1134.13 723.27V780.646M1191.51 723.27H1248.89M1191.51 723.27V665.894M1191.51 723.27V780.646M1248.89 723.27H1306.26M1248.89 723.27V665.894M1248.89 723.27V780.646M1306.26 723.27H1363.64M1306.26 723.27V665.894M1306.26 723.27V780.646M1363.64 723.27H1421.01M1363.64 723.27V665.894M1363.64 723.27V780.646M1421.01 723.27H1478.39M1421.01 723.27V665.894M1421.01 723.27V780.646M1478.39 723.27H1535.77M1478.39 723.27V665.894M1478.39 723.27V780.646M1535.77 723.27H1593.14M1535.77 723.27V665.894M1535.77 723.27V780.646M1593.14 723.27H1650.52M1593.14 723.27V665.894M1593.14 723.27V780.646M1650.52 723.27H1707.89M1650.52 723.27V665.894M1650.52 723.27V780.646M1707.89 723.27H1765.27M1707.89 723.27V665.894M1707.89 723.27V780.646M1765.27 723.27H1773.78M1765.27 723.27V665.894M1765.27 723.27V780.646M698.885 952.774H732.502M732.502 952.774H789.88M732.502 952.774V895.397M732.502 952.774V1010.15M789.88 952.774H847.255M789.88 952.774V895.397M789.88 952.774V1010.15M847.255 952.774H904.632M847.255 952.774V895.397M847.255 952.774V1010.15M904.632 952.774H962.007M904.632 952.774V895.397M904.632 952.774V1010.15M962.007 952.774H1019.38M962.007 952.774V895.397M962.007 952.774V1010.15M1019.38 952.774H1076.76M1019.38 952.774V895.397M1019.38 952.774V1010.15M1076.76 952.774H1134.13M1076.76 952.774V895.397M1076.76 952.774V1010.15M1134.13 952.774H1191.51M1134.13 952.774V895.397M1134.13 952.774V1010.15M1191.51 952.774H1248.89M1191.51 952.774V895.397M1191.51 952.774V1010.15M1248.89 952.774H1306.26M1248.89 952.774V895.397M1248.89 952.774V1010.15M1306.26 952.774H1363.64M1306.26 952.774V895.397M1306.26 952.774V1010.15M1363.64 952.774H1421.01M1363.64 952.774V895.397M1363.64 952.774V1010.15M1421.01 952.774H1478.39M1421.01 952.774V895.397M1421.01 952.774V1010.15M1478.39 952.774H1535.77M1478.39 952.774V895.397M1478.39 952.774V1010.15M1535.77 952.774H1593.14M1535.77 952.774V895.397M1535.77 952.774V1010.15M1593.14 952.774H1650.52M1593.14 952.774V895.397M1593.14 952.774V1010.15M1650.52 952.774H1707.89M1650.52 952.774V895.397M1650.52 952.774V1010.15M1707.89 952.774H1765.27M1707.89 952.774V895.397M1707.89 952.774V1010.15M1765.27 952.774H1773.78M1765.27 952.774V895.397M1765.27 952.774V1010.15M698.885 493.767H732.502M732.502 493.767H789.88M732.502 493.767V436.391M732.502 493.767V551.142M789.88 493.767H847.255M789.88 493.767V436.391M789.88 493.767V551.142M847.255 493.767H904.632M847.255 493.767V436.391M847.255 493.767V551.142M904.632 493.767H962.007M904.632 493.767V436.391M904.632 493.767V551.142M962.007 493.767H1019.38M962.007 493.767V436.391M962.007 493.767V551.142M1019.38 493.767H1076.76M1019.38 493.767V436.391M1019.38 493.767V551.142M1076.76 493.767H1134.13M1076.76 493.767V436.391M1076.76 493.767V551.142M1134.13 493.767H1191.51M1134.13 493.767L1134.13 436.391M1134.13 493.767V551.142M1191.51 493.767H1248.89M1191.51 493.767L1191.51 436.391M1191.51 493.767V551.142M1248.89 493.767H1306.26M1248.89 493.767V436.391M1248.89 493.767V551.142M1306.26 493.767H1363.64M1306.26 493.767V436.391M1306.26 493.767V551.142M1363.64 493.767H1421.01M1363.64 493.767V436.391M1363.64 493.767V551.142M1421.01 493.767H1478.39M1421.01 493.767V436.391M1421.01 493.767V551.142M1478.39 493.767H1535.77M1478.39 493.767V436.391M1478.39 493.767V551.142M1535.77 493.767H1593.14M1535.77 493.767V436.391M1535.77 493.767V551.142M1593.14 493.767H1650.52M1593.14 493.767V436.391M1593.14 493.767V551.142M1650.52 493.767H1707.89M1650.52 493.767V436.391M1650.52 493.767V551.142M1707.89 493.767H1765.27M1707.89 493.767V436.391M1707.89 493.767V551.142M1765.27 493.767H1773.78M1765.27 493.767V436.391M1765.27 493.767V551.142M698.885 264.263H732.502M732.502 264.263H789.88M732.502 264.263V244.096M732.502 264.263V321.639M789.88 264.263H847.255M789.88 264.263V244.096M789.88 264.263V321.639M847.255 264.263H904.632M847.255 264.263V244.096M847.255 264.263V321.639M904.632 264.263H962.007M904.632 264.263V244.096M904.632 264.263V321.639M962.007 264.263H1019.38M962.007 264.263V244.096M962.007 264.263V321.639M1019.38 264.263H1076.76M1019.38 264.263V244.096M1019.38 264.263V321.639M1076.76 264.263H1134.13M1076.76 264.263V244.096M1076.76 264.263V321.639M1134.13 264.263H1191.51M1134.13 264.263V244.096M1134.13 264.263V321.639M1191.51 264.263H1248.89M1191.51 264.263V244.096M1191.51 264.263V321.639M1248.89 264.263H1306.26M1248.89 264.263V244.096M1248.89 264.263V321.639M1306.26 264.263H1363.64M1306.26 264.263V244.096M1306.26 264.263V321.639M1363.64 264.263H1421.01M1363.64 264.263V244.096M1363.64 264.263V321.639M1421.01 264.263H1478.39M1421.01 264.263V244.096M1421.01 264.263V321.639M1478.39 264.263H1535.77M1478.39 264.263V244.096M1478.39 264.263V321.639M1535.77 264.263H1593.14M1535.77 264.263V244.096M1535.77 264.263V321.639M1593.14 264.263H1650.52M1593.14 264.263V244.096M1593.14 264.263V321.639M1650.52 264.263H1707.89M1650.52 264.263V244.096M1650.52 264.263V321.639M1707.89 264.263H1765.27M1707.89 264.263V244.096M1707.89 264.263V321.639M1765.27 264.263H1773.78M1765.27 264.263V244.096M1765.27 264.263V321.639M698.885 1067.53H732.502M732.502 1067.53H789.88M732.502 1067.53V1010.15M732.502 1067.53V1074.25M789.88 1067.53H847.255M789.88 1067.53V1010.15M789.88 1067.53V1074.25M847.255 1067.53H904.632M847.255 1067.53V1010.15M847.255 1067.53V1074.25M904.632 1067.53H962.007M904.632 1067.53V1010.15M904.632 1067.53V1074.25M962.007 1067.53H1019.38M962.007 1067.53V1010.15M962.007 1067.53V1074.25M1019.38 1067.53H1076.76M1019.38 1067.53V1010.15M1019.38 1067.53V1074.25M1076.76 1067.53H1134.13M1076.76 1067.53V1010.15M1076.76 1067.53V1074.25M1134.13 1067.53H1191.51M1134.13 1067.53V1010.15M1134.13 1067.53V1074.25M1191.51 1067.53H1248.89M1191.51 1067.53V1010.15M1191.51 1067.53V1074.25M1248.89 1067.53H1306.26M1248.89 1067.53V1010.15M1248.89 1067.53V1074.25M1306.26 1067.53H1363.64M1306.26 1067.53V1010.15M1306.26 1067.53V1074.25M1363.64 1067.53H1421.01M1363.64 1067.53V1010.15M1363.64 1067.53V1074.25M1421.01 1067.53H1478.39M1421.01 1067.53V1010.15M1421.01 1067.53V1074.25M1478.39 1067.53H1535.77M1478.39 1067.53V1010.15M1478.39 1067.53V1074.25M1535.77 1067.53H1593.14M1535.77 1067.53V1010.15M1535.77 1067.53V1074.25M1593.14 1067.53H1650.52M1593.14 1067.53V1010.15M1593.14 1067.53V1074.25M1650.52 1067.53H1707.89M1650.52 1067.53V1010.15M1650.52 1067.53V1074.25M1707.89 1067.53H1765.27M1707.89 1067.53V1010.15M1707.89 1067.53V1074.25M1765.27 1067.53H1773.78M1765.27 1067.53V1010.15M1765.27 1067.53V1074.25M698.885 608.517H732.502M732.502 608.517H789.88M732.502 608.517V551.142M732.502 608.517V665.894M789.88 608.517H847.255M789.88 608.517V551.142M789.88 608.517V665.894M847.255 608.517H904.632M847.255 608.517V551.142M847.255 608.517L847.255 665.894M904.632 608.517H962.007M904.632 608.517V551.142M904.632 608.517V665.894M962.007 608.517H1019.38M962.007 608.517V551.142M962.007 608.517V665.894M1019.38 608.517H1076.76M1019.38 608.517V551.142M1019.38 608.517V665.894M1076.76 608.517H1134.13M1076.76 608.517V551.142M1076.76 608.517V665.894M1134.13 608.517H1191.51M1134.13 608.517V551.142M1134.13 608.517V665.894M1191.51 608.517H1248.89M1191.51 608.517V551.142M1191.51 608.517V665.894M1248.89 608.517H1306.26M1248.89 608.517V551.142M1248.89 608.517V665.894M1306.26 608.517H1363.64M1306.26 608.517V551.142M1306.26 608.517V665.894M1363.64 608.517H1421.01M1363.64 608.517V551.142M1363.64 608.517V665.894M1421.01 608.517H1478.39M1421.01 608.517V551.142M1421.01 608.517V665.894M1478.39 608.517H1535.77M1478.39 608.517V551.142M1478.39 608.517V665.894M1535.77 608.517H1593.14M1535.77 608.517V551.142M1535.77 608.517V665.894M1593.14 608.517H1650.52M1593.14 608.517V551.142M1593.14 608.517V665.894M1650.52 608.517H1707.89M1650.52 608.517V551.142M1650.52 608.517V665.894M1707.89 608.517H1765.27M1707.89 608.517V551.142M1707.89 608.517V665.894M1765.27 608.517H1773.78M1765.27 608.517V551.142M1765.27 608.517V665.894M698.885 838.021H732.502M732.502 838.021H789.88M732.502 838.021V780.646M732.502 838.021V895.397M789.88 838.021H847.255M789.88 838.021V780.646M789.88 838.021V895.397M847.255 838.021H904.632M847.255 838.021V780.646M847.255 838.021V895.397M904.632 838.021H962.007M904.632 838.021V780.646M904.632 838.021V895.397M962.007 838.021H1019.38M962.007 838.021V780.646M962.007 838.021V895.397M1019.38 838.021H1076.76M1019.38 838.021V780.646M1019.38 838.021V895.397M1076.76 838.021H1134.13M1076.76 838.021V780.646M1076.76 838.021V895.397M1134.13 838.021H1191.51M1134.13 838.021V780.646M1134.13 838.021V895.397M1191.51 838.021H1248.89M1191.51 838.021V780.646M1191.51 838.021V895.397M1248.89 838.021H1306.26M1248.89 838.021V780.646M1248.89 838.021V895.397M1306.26 838.021H1363.64M1306.26 838.021V780.646M1306.26 838.021V895.397M1363.64 838.021H1421.01M1363.64 838.021V780.646M1363.64 838.021V895.397M1421.01 838.021H1478.39M1421.01 838.021V780.646M1421.01 838.021V895.397M1478.39 838.021H1535.77M1478.39 838.021V780.646M1478.39 838.021V895.397M1535.77 838.021H1593.14M1535.77 838.021V780.646M1535.77 838.021V895.397M1593.14 838.021H1650.52M1593.14 838.021V780.646M1593.14 838.021V895.397M1650.52 838.021H1707.89M1650.52 838.021V780.646M1650.52 838.021V895.397M1707.89 838.021H1765.27M1707.89 838.021V780.646M1707.89 838.021V895.397M1765.27 838.021H1773.78M1765.27 838.021V780.646M1765.27 838.021V895.397M698.885 379.016H732.502M732.502 379.016H789.88M732.502 379.016V321.639M732.502 379.016V436.391M789.88 379.016H847.255M789.88 379.016V321.639M789.88 379.016V436.391M847.255 379.016H904.632M847.255 379.016V321.639M847.255 379.016V436.391M904.632 379.016H962.007M904.632 379.016V321.639M904.632 379.016V436.391M962.007 379.016H1019.38M962.007 379.016V321.639M962.007 379.016V436.391M1019.38 379.016H1076.76M1019.38 379.016V321.639M1019.38 379.016V436.391M1076.76 379.016H1134.13M1076.76 379.016V321.639M1076.76 379.016V436.391M1134.13 379.016H1191.51M1134.13 379.016V321.639M1134.13 379.016V436.391M1191.51 379.016H1248.89M1191.51 379.016V321.639M1191.51 379.016V436.391M1248.89 379.016H1306.26M1248.89 379.016V321.639M1248.89 379.016V436.391M1306.26 379.016H1363.64M1306.26 379.016V321.639M1306.26 379.016V436.391M1363.64 379.016H1421.01M1363.64 379.016V321.639M1363.64 379.016V436.391M1421.01 379.016H1478.39M1421.01 379.016V321.639M1421.01 379.016V436.391M1478.39 379.016H1535.77M1478.39 379.016V321.639M1478.39 379.016V436.391M1535.77 379.016H1593.14M1535.77 379.016V321.639M1535.77 379.016V436.391M1593.14 379.016H1650.52M1593.14 379.016V321.639M1593.14 379.016V436.391M1650.52 379.016H1707.89M1650.52 379.016V321.639M1650.52 379.016V436.391M1707.89 379.016H1765.27M1707.89 379.016V321.639M1707.89 379.016V436.391M1765.27 379.016H1773.78M1765.27 379.016V321.639M1765.27 379.016V436.391M698.885 665.894H732.502M732.502 665.894H789.88M789.88 665.894H847.255M847.255 665.894H904.632M904.632 665.894H962.007M962.007 665.894H1019.38M1019.38 665.894H1076.76M1076.76 665.894H1134.13M1134.13 665.894H1191.51M1191.51 665.894H1248.89M1248.89 665.894H1306.26M1306.26 665.894H1363.64M1363.64 665.894H1421.01M1421.01 665.894H1478.39M1478.39 665.894H1535.77M1535.77 665.894H1593.14M1593.14 665.894H1650.52M1650.52 665.894H1707.89M1707.89 665.894H1765.27M1765.27 665.894H1773.78M698.885 895.397H732.502M732.502 895.397H789.88M789.88 895.397H847.255M847.255 895.397H904.632M904.632 895.397H962.007M962.007 895.397H1019.38M1019.38 895.397H1076.76M1076.76 895.397H1134.13M1134.13 895.397H1191.51M1191.51 895.397H1248.89M1248.89 895.397H1306.26M1306.26 895.397H1363.64M1363.64 895.397H1421.01M1421.01 895.397H1478.39M1478.39 895.397H1535.77M1535.77 895.397H1593.14M1593.14 895.397H1650.52M1650.52 895.397H1707.89M1707.89 895.397H1765.27M1765.27 895.397H1773.78M698.885 436.391H732.502M732.502 436.391H789.88M789.88 436.391H847.255M847.255 436.391H904.632M904.632 436.391H962.007M962.007 436.391H1019.38M1019.38 436.391H1076.76M1076.76 436.391H1134.13M1134.13 436.391H1191.51M1191.51 436.391H1248.89M1248.89 436.391H1306.26M1306.26 436.391H1363.64M1363.64 436.391H1421.01M1421.01 436.391H1478.39M1478.39 436.391H1535.77M1535.77 436.391H1593.14M1593.14 436.391H1650.52M1650.52 436.391H1707.89M1707.89 436.391H1765.27M1765.27 436.391H1773.78M698.885 1010.15H732.502M732.502 1010.15H789.88M789.88 1010.15H847.255M847.255 1010.15H904.632M904.632 1010.15H962.007M962.007 1010.15H1019.38M1019.38 1010.15H1076.76M1076.76 1010.15H1134.13M1134.13 1010.15H1191.51M1191.51 1010.15H1248.89M1248.89 1010.15H1306.26M1306.26 1010.15H1363.64M1363.64 1010.15H1421.01M1421.01 1010.15H1478.39M1478.39 1010.15H1535.77M1535.77 1010.15H1593.14M1593.14 1010.15H1650.52M1650.52 1010.15H1707.89M1707.89 1010.15H1765.27M1765.27 1010.15H1773.78M698.885 551.142H732.502M732.502 551.142H789.88M789.88 551.142H847.255M847.255 551.142H904.632M904.632 551.142H962.007M962.007 551.142H1019.38M1019.38 551.142H1076.76M1076.76 551.142H1134.13M1134.13 551.142H1191.51M1191.51 551.142H1248.89M1248.89 551.142H1306.26M1306.26 551.142H1363.64M1363.64 551.142H1421.01M1421.01 551.142H1478.39M1478.39 551.142H1535.77M1535.77 551.142H1593.14M1593.14 551.142H1650.52M1650.52 551.142H1707.89M1707.89 551.142H1765.27M1765.27 551.142H1773.78M698.885 780.646H732.502M732.502 780.646H789.88M789.88 780.646H847.255M847.255 780.646H904.632M904.632 780.646H962.007M962.007 780.646H1019.38M1019.38 780.646H1076.76M1076.76 780.646H1134.13M1134.13 780.646H1191.51M1191.51 780.646H1248.89M1248.89 780.646H1306.26M1306.26 780.646H1363.64M1363.64 780.646H1421.01M1421.01 780.646H1478.39M1478.39 780.646H1535.77M1535.77 780.646H1593.14M1593.14 780.646H1650.52M1650.52 780.646H1707.89M1707.89 780.646H1765.27M1765.27 780.646H1773.78M698.885 321.639H732.502M732.502 321.639H789.88M789.88 321.639H847.255M847.255 321.639H904.632M904.632 321.639H962.007M962.007 321.639H1019.38M1019.38 321.639H1076.76M1076.76 321.639H1134.13M1134.13 321.639H1191.51M1191.51 321.639H1248.89M1248.89 321.639H1306.26M1306.26 321.639H1363.64M1363.64 321.639H1421.01M1421.01 321.639H1478.39M1478.39 321.639H1535.77M1535.77 321.639H1593.14M1593.14 321.639H1650.52M1650.52 321.639H1707.89M1707.89 321.639H1765.27M1765.27 321.639H1773.78" stroke="white" stroke-width="0.896496"/>
</g>
</g>
<path d="M1440 321V320H0V321V322H1440V321Z" fill="black" fill-opacity="0.12" mask="url(#path-1-inside-1_2034_2377)"/>
<defs>
<filter id="filter0_f_2034_2377" x="1073.22" y="-182.436" width="526.035" height="502.043" filterUnits="userSpaceOnUse" color-interpolation-filters="sRGB">
<feFlood flood-opacity="0" result="BackgroundImageFix"/>
<feBlend mode="normal" in="SourceGraphic" in2="BackgroundImageFix" result="shape"/>
<feGaussianBlur stdDeviation="62.4073" result="effect1_foregroundBlur_2034_2377"/>
</filter>
<filter id="filter1_f_2034_2377" x="1073.22" y="-182.436" width="526.035" height="502.043" filterUnits="userSpaceOnUse" color-interpolation-filters="sRGB">
<feFlood flood-opacity="0" result="BackgroundImageFix"/>
<feBlend mode="normal" in="SourceGraphic" in2="BackgroundImageFix" result="shape"/>
<feGaussianBlur stdDeviation="62.4073" result="effect1_foregroundBlur_2034_2377"/>
</filter>
<filter id="filter2_f_2034_2377" x="-259.235" y="189.324" width="526.035" height="502.043" filterUnits="userSpaceOnUse" color-interpolation-filters="sRGB">
<feFlood flood-opacity="0" result="BackgroundImageFix"/>
<feBlend mode="normal" in="SourceGraphic" in2="BackgroundImageFix" result="shape"/>
<feGaussianBlur stdDeviation="62.4073" result="effect1_foregroundBlur_2034_2377"/>
</filter>
<filter id="filter3_f_2034_2377" x="-259.235" y="189.324" width="526.035" height="502.043" filterUnits="userSpaceOnUse" color-interpolation-filters="sRGB">
<feFlood flood-opacity="0" result="BackgroundImageFix"/>
<feBlend mode="normal" in="SourceGraphic" in2="BackgroundImageFix" result="shape"/>
<feGaussianBlur stdDeviation="62.4073" result="effect1_foregroundBlur_2034_2377"/>
</filter>
<filter id="filter4_f_2034_2377" x="-488.928" y="-86.365" width="833.678" height="825.75" filterUnits="userSpaceOnUse" color-interpolation-filters="sRGB">
<feFlood flood-opacity="0" result="BackgroundImageFix"/>
<feBlend mode="normal" in="SourceGraphic" in2="BackgroundImageFix" result="shape"/>
<feGaussianBlur stdDeviation="166.5" result="effect1_foregroundBlur_2034_2377"/>
</filter>
<filter id="filter5_f_2034_2377" x="-488.928" y="-86.365" width="833.678" height="825.75" filterUnits="userSpaceOnUse" color-interpolation-filters="sRGB">
<feFlood flood-opacity="0" result="BackgroundImageFix"/>
<feBlend mode="normal" in="SourceGraphic" in2="BackgroundImageFix" result="shape"/>
<feGaussianBlur stdDeviation="166.5" result="effect1_foregroundBlur_2034_2377"/>
</filter>
<filter id="filter6_f_2034_2377" x="1126.59" y="-27.3296" width="833.678" height="825.75" filterUnits="userSpaceOnUse" color-interpolation-filters="sRGB">
<feFlood flood-opacity="0" result="BackgroundImageFix"/>
<feBlend mode="normal" in="SourceGraphic" in2="BackgroundImageFix" result="shape"/>
<feGaussianBlur stdDeviation="166.5" result="effect1_foregroundBlur_2034_2377"/>
</filter>
<filter id="filter7_f_2034_2377" x="1126.59" y="-27.3296" width="833.678" height="825.75" filterUnits="userSpaceOnUse" color-interpolation-filters="sRGB">
<feFlood flood-opacity="0" result="BackgroundImageFix"/>
<feBlend mode="normal" in="SourceGraphic" in2="BackgroundImageFix" result="shape"/>
<feGaussianBlur stdDeviation="166.5" result="effect1_foregroundBlur_2034_2377"/>
</filter>
<linearGradient id="paint0_linear_2034_2377" x1="1273.96" y1="186.551" x2="1409.64" y2="-52.7641" gradientUnits="userSpaceOnUse">
<stop stop-color="#FFD700"/>
<stop offset="0.33" stop-color="#66CCFF"/>
<stop offset="1" stop-color="#003366"/>
</linearGradient>
<linearGradient id="paint1_linear_2034_2377" x1="1273.96" y1="186.551" x2="1409.64" y2="-52.7641" gradientUnits="userSpaceOnUse">
<stop stop-color="#FFD700"/>
<stop offset="0.33" stop-color="#66CCFF"/>
<stop offset="1" stop-color="#003366"/>
</linearGradient>
<linearGradient id="paint2_linear_2034_2377" x1="-58.4938" y1="558.311" x2="77.1833" y2="318.996" gradientUnits="userSpaceOnUse">
<stop stop-color="#FFD700"/>
<stop offset="0.33" stop-color="#66CCFF"/>
<stop offset="1" stop-color="#003366"/>
</linearGradient>
<linearGradient id="paint3_linear_2034_2377" x1="-58.4938" y1="558.311" x2="77.1833" y2="318.996" gradientUnits="userSpaceOnUse">
<stop stop-color="#FFD700"/>
<stop offset="0.33" stop-color="#66CCFF"/>
<stop offset="1" stop-color="#003366"/>
</linearGradient>
<linearGradient id="paint4_linear_2034_2377" x1="-129.15" y1="390.175" x2="-9.60147" y2="268.579" gradientUnits="userSpaceOnUse">
<stop stop-color="#FFD700"/>
<stop offset="0.33" stop-color="#66CCFF"/>
<stop offset="1" stop-color="#003366"/>
</linearGradient>
<linearGradient id="paint5_linear_2034_2377" x1="-129.15" y1="390.175" x2="-9.60147" y2="268.579" gradientUnits="userSpaceOnUse">
<stop stop-color="#FFD700"/>
<stop offset="0.33" stop-color="#66CCFF"/>
<stop offset="1" stop-color="#003366"/>
</linearGradient>
<linearGradient id="paint6_linear_2034_2377" x1="1486.37" y1="449.21" x2="1605.92" y2="327.615" gradientUnits="userSpaceOnUse">
<stop stop-color="#FFD700"/>
<stop offset="0.33" stop-color="#66CCFF"/>
<stop offset="1" stop-color="#003366"/>
</linearGradient>
<linearGradient id="paint7_linear_2034_2377" x1="1486.37" y1="449.21" x2="1605.92" y2="327.615" gradientUnits="userSpaceOnUse">
<stop stop-color="#FFD700"/>
<stop offset="0.33" stop-color="#66CCFF"/>
<stop offset="1" stop-color="#003366"/>
</linearGradient>
<clipPath id="clip0_2034_2377">
<path d="M0 0H1440V321H0V0Z" fill="white"/>
</clipPath>
<clipPath id="clip1_2034_2377">
<rect width="1466" height="1207" fill="white" transform="translate(-13 -345.849)"/>
</clipPath>
</defs>
</svg>
