<svg width="20" height="20" viewBox="0 0 20 20" fill="none" xmlns="http://www.w3.org/2000/svg">
<g clip-path="url(#clip0_2_1298)">
<path d="M7.49994 14.1667H5.83326C4.72819 14.1667 3.66838 13.7277 2.88698 12.9463C2.10557 12.1649 1.66659 11.105 1.66659 9.99997C1.66659 8.8949 2.10557 7.83509 2.88698 7.05368C3.66838 6.27228 4.72819 5.83329 5.83326 5.83329H7.49994" stroke="white" stroke-width="1.66635" stroke-linecap="round" stroke-linejoin="round"/>
<path d="M12.5 5.83329H14.1667C15.2717 5.83329 16.3316 6.27228 17.113 7.05368C17.8944 7.83509 18.3334 8.8949 18.3334 9.99997C18.3334 11.105 17.8944 12.1649 17.113 12.9463C16.3316 13.7277 15.2717 14.1667 14.1667 14.1667H12.5" stroke="white" stroke-width="1.66635" stroke-linecap="round" stroke-linejoin="round"/>
<path d="M6.66659 10H13.3333" stroke="white" stroke-width="1.66635" stroke-linecap="round" stroke-linejoin="round"/>
</g>
<defs>
<clipPath id="clip0_2_1298">
<rect width="19.9962" height="19.9962" fill="white"/>
</clipPath>
</defs>
</svg>
