<svg width="16" height="16" viewBox="0 0 16 16" fill="none" xmlns="http://www.w3.org/2000/svg">
<path d="M14.6666 8H13.0133C12.7219 7.99937 12.4384 8.0942 12.206 8.26997C11.9736 8.44575 11.8053 8.69279 11.7266 8.97333L10.1599 14.5467C10.1498 14.5813 10.1288 14.6117 10.0999 14.6333C10.0711 14.655 10.036 14.6667 9.99992 14.6667C9.96386 14.6667 9.92877 14.655 9.89992 14.6333C9.87107 14.6117 9.85002 14.5813 9.83992 14.5467L6.15992 1.45333C6.14982 1.41871 6.12877 1.3883 6.09992 1.36666C6.07107 1.34502 6.03598 1.33333 5.99992 1.33333C5.96386 1.33333 5.92877 1.34502 5.89992 1.36666C5.87107 1.3883 5.85002 1.41871 5.83992 1.45333L4.27325 7.02666C4.1949 7.3061 4.02751 7.55234 3.79649 7.728C3.56548 7.90367 3.28347 7.99916 2.99325 8H1.33325" stroke="#343434" stroke-width="1.33333" stroke-linecap="round" stroke-linejoin="round"/>
</svg>
